<ttFont>
<head>
    <!-- Most of this table will be recalculated by the compiler -->
    <tableVersion value="1.0"/>
    <fontRevision value="1.0"/>
    <checkSumAdjustment value="0x3de8969b"/>
    <magicNumber value="0x5f0f3cf5"/>
    <flags value="00000000 00000011"/>
    <unitsPerEm value="2048"/>
    <created value="Thu Aug 15 19:13:09 2019"/>
    <modified value="Fri Aug 16 02:19:09 2019"/>
    <xMin value="-494"/>
    <yMin value="-517"/>
    <xMax value="3628"/>
    <yMax value="2022"/>
<macStyle value="00000000 00000011"/>
    <lowestRecPPEM value="3"/>
    <fontDirectionHint value="2"/>
    <indexToLocFormat value="0"/>
    <glyphDataFormat value="0"/>
  </head>
          <CharString index="0">
            164 151 -73 callsubr
            58 -67 118 hhcurveto
            return
          </CharString>
          <CharString index="1">
            rmoveto
            -241 123 -135 return
          </CharString>
          <CharString index="2">
            rmoveto
            -40 callsubr
            21 callsubr
            endchar
          </CharString>
          <CharString index="3">
            rmoveto
            482 311 383 447 374 100 callgsubr
            -83 callgsubr
            157 callsubr
            endchar
          </CharString>
          <CharString index="4">
            45 callsubr
            -49 -18 33 68 15 hvcurveto
            20 callsubr
            endchar
          </CharString>
          <CharString index="5">
            -225 -47 90 -142 206 160 callsubr
            121 hhcurveto
            return
          </CharString>
          <CharString index="6">
            rmoveto
            346 242 271 330 267 95 callsubr
            147 callsubr
            endchar
          </CharString>
          <CharString index="7">
            rmoveto
            -1105 hlineto
            -49 callsubr
            -26 callsubr
            -138 -18 rlinecurve
            -18 -86 1150 -41 callsubr
            endchar
          </CharString>
          <CharString index="8">
            rmoveto
            -465 -56 -18 126 callsubr
            -93 -441 rcurveline
            return
          </CharString>
          <CharString index="9">
            rmoveto
            -79 -64 -64 -77 -72 56 -58 return
          </CharString>
          <CharString index="10">
            17 callsubr
            endchar
          </CharString>
          <CharString index="11">
            rmoveto
            337 224 211 366 81 hvcurveto
            141 633 29 129 23 26 130 21 rlinecurve
            18 86 -434 0 48 callsubr
            -2 callgsubr
            endchar
          </CharString>
          <CharString index="12">
            1847 rmoveto
            -201 -299 return
          </CharString>
          <CharString index="13">
            -19 callsubr
            endchar
          </CharString>
          <CharString index="14">
            rmoveto
            80 callsubr
            78 callsubr
            -99 callgsubr
            endchar
          </CharString>
          <CharString index="15">
            -551 rcurveline
            6 callsubr
            -25 callsubr
            -21 callsubr
            54 callsubr
            endchar
          </CharString>
          <CharString index="16">
            76 79 65 63 79 72 -57 57 -76 hvcurveto
            endchar
          </CharString>
          <CharString index="17">
            -167 -786 315 0 return
          </CharString>
          <CharString index="18">
            rmoveto
            99 callgsubr
            return
          </CharString>
          <CharString index="19">
            rmoveto
            582 hlineto
            34 159 rlineto
            -582 hlineto
            endchar
          </CharString>
          <CharString index="20">
            rmoveto
            185 -539 -88 -417 -18 -87 -24 -19 -152 -19 rlinecurve
            -18 -85 676 0 18 85 -144 19 -16 19 19 87 rlinecurve
            return
          </CharString>
          <CharString index="21">
            -56 57 -76 -79 -65 -62 return
          </CharString>
          <CharString index="22">
            rmoveto
            -417 -53 -17 -85 58 -11 56 -15 13 -17 5 -52 rlinecurve
            75 -907 -113 -100 -195 -137 -139 -86 rlinecurve
            -24 323 vlineto
            84 103 79 96 77 92 70 79 71 86 63 77 rrcurveto
            295 370 152 280 146 vvcurveto
            101 -1 -72 67 -95 hhcurveto
            -92 -72 -67 -90 hvcurveto
            -86 1 70 -69 86 6 7 1 5 hhcurveto
            -52 -170 -123 -191 -169 -214 rrcurveto
            endchar
          </CharString>
          <CharString index="23">
            rmoveto
            87 69 67 82 -1 hvcurveto
            77 -62 60 -83 return
          </CharString>
          <CharString index="24">
            51 -14 10 -19 -12 -54 return
          </CharString>
          <CharString index="25">
            -79 -72 57 -57 76 hvcurveto
            return
          </CharString>
          <CharString index="26">
            100 473 545 0 -101 -473 -18 -90 -24 -19 -130 -40 callgsubr
            17 -17 20 19 90 rlinecurve
            217 1018 19 90 25 20 136 17 rlinecurve
            18 86 -639 0 -18 -86 123 -16 15 -19 -19 -90 rlinecurve
            -94 -443 -545 0 94 443 18 88 25 20 129 17 rlinecurve
            18 86 -639 0 -17 -86 128 -18 16 -20 -19 -89 rlinecurve
            -217 -1018 -19 -89 -23 -20 -137 -18 rlinecurve
            -19 -86 return
          </CharString>
          <CharString index="27">
            89 420 410 533 118 152 35 169 callsubr
            -105 -145 rlinecurve
            -303 -421 -3 callgsubr
            endchar
          </CharString>
          <CharString index="28">
            449 hmoveto
            88 70 69 86 81 -62 63 return
          </CharString>
          <CharString index="29">
            1562 rmoveto
            78 65 63 77 73 return
          </CharString>
          <CharString index="30">
            -83 -88 -85 callgsubr
            return
          </CharString>
          <CharString index="31">
            rlinecurve
            -268 -1259 return
          </CharString>
          <CharString index="32">
            1182 rmoveto
            93 75 74 92 85 -66 67 -89 -93 -76 -74 -92 -85 66 -67 90 hvcurveto
            return
          </CharString>
          <CharString index="33">
            1548 rmoveto
            226 141 160 -141 91 0 -128 299 return
          </CharString>
          <CharString index="34">
            122 93 168 63 vhcurveto
            -3 -9 -7 -41 -10 vvcurveto
            -129 -16 return
          </CharString>
          <CharString index="35">
            1535 rmoveto
            -230 -388 -2 callsubr
            return
          </CharString>
          <CharString index="36">
            71 58 hvcurveto
            18 87 rlineto
            -24 -30 -43 -12 -33 hhcurveto
            return
          </CharString>
          <CharString index="37">
            -84 -87 -72 -70 -87 -79 63 -63 84 hvcurveto
            return
          </CharString>
          <CharString index="38">
            -454 -55 -17 125 callsubr
            return
          </CharString>
          <CharString index="39">
            170 -192 230 callsubr
            return
          </CharString>
          <CharString index="40">
            -67 118 hhcurveto
            116 117 53 return
          </CharString>
          <CharString index="41">
            1544 rmoveto
            -257 -191 return
          </CharString>
          <CharString index="42">
            91 -92 callgsubr
            return
          </CharString>
          <CharString index="43">
            -48 -18 33 68 15 hvcurveto
            return
          </CharString>
          <CharString index="44">
            -378 50 -50 callgsubr
            61 callgsubr
            return
          </CharString>
          <CharString index="45">
            1192 rmoveto
            88 70 69 86 81 -62 63 return
          </CharString>
          <CharString index="46">
            1543 rmoveto
            -107 -84 -41 -61 -47 hvcurveto
            return
          </CharString>
          <CharString index="47">
            91 0 405 290 rlineto
            9 vlineto
            return
          </CharString>
          <CharString index="48">
            1147 rmoveto
            257 192 return
          </CharString>
          <CharString index="49">
            rmoveto
            -467 -52 -17 -82 69 -16 return
          </CharString>
          <CharString index="50">
            rmoveto
            -125 73 -113 153 -52 vhcurveto
            -163 -34 -85 -80 -101 vvcurveto
            1 -74 43 -62 92 -35 rrcurveto
            -192 -27 -111 -81 -101 vvcurveto
            -149 202 -90 285 306 244 130 211 151 -105 102 -211 36 vhcurveto
            -191 33 rlineto
            -93 17 -26 26 34 vvcurveto
            -1 34 30 27 50 14 rrcurveto
            -7 38 43 -4 46 hhcurveto
            299 175 170 208 67 -20 64 -44 53 hvcurveto
            223 -35 26 128 -355 -12 rlineto
            31 -65 -86 18 -108 hhcurveto
            -296 -177 -158 -214 hvcurveto
            302 -41 rmoveto
            143 60 174 116 82 42 -75 -106 -148 -61 -170 -115 -83 -41 76 106 vhcurveto
            -252 -812 rmoveto
            71 51 54 96 30 vhcurveto
            2 1 -1 2 hhcurveto
            187 -31 rlineto
            141 -24 46 -45 -66 vvcurveto
            -93 -114 -62 -153 -160 -99 69 98 vhcurveto
            endchar
          </CharString>
          <CharString index="51">
            rmoveto
            419 226 367 298 192 108 -125 -242 8 vhcurveto
            77 -27 callgsubr
            -219 hhcurveto
            -484 -345 -334 -486 -4 hvcurveto
            return
          </CharString>
          <CharString index="52">
            rmoveto
            64 62 47 64 14 hvcurveto
            64 14 -42 47 -65 hhcurveto
            -13 hlineto
            -65 -61 -47 -64 -14 hvcurveto
            -64 -13 41 -47 65 hhcurveto
            377 hmoveto
            64 62 47 64 13 hvcurveto
            64 14 68 callgsubr
            return
          </CharString>
          <CharString index="53">
            110 522 151 callsubr
            -113 -536 rlineto
            -224 -48 92 -128 202 hhcurveto
            return
          </CharString>
          <CharString index="54">
            5 callsubr
            108 0 467 376 rlineto
            12 vlineto
            return
          </CharString>
          <CharString index="55">
            -14 -72 rlineto
            1 1 27 1 4 hhcurveto
            72 39 -28 -46 -44 return
          </CharString>
          <CharString index="56">
            -163 hhcurveto
            -210 -138 190 289 hvcurveto
            endchar
          </CharString>
          <CharString index="57">
            628 hlineto
            30 143 rlineto
            -627 hlineto
            return
          </CharString>
          <CharString index="58">
            -18 -86 129 -18 15 -18 -19 -89 rlinecurve
            return
          </CharString>
          <CharString index="59">
            -27 callsubr
            -162 141 return
          </CharString>
          <CharString index="60">
            190 -57 0 -325 -190 rlineto
            return
          </CharString>
          <CharString index="61">
            rmoveto
            335 102 292 -102 18 88 return
          </CharString>
          <CharString index="62">
            rmoveto
            237 173 159 -173 return
          </CharString>
          <CharString index="63">
            1573 rmoveto
            71 59 58 72 return
          </CharString>
          <CharString index="64">
            316 0 229 callsubr
            return
          </CharString>
          <CharString index="65">
            rmoveto
            -446 -4 322 -234 369 hhcurveto
            183 201 51 77 108 hvcurveto
            85 399 18 85 20 21 121 16 rlinecurve
            18 85 -589 0 -18 -85 rlineto
            136 -17 12 -19 -18 -85 -77 -370 rcurveline
            -26 -36 -65 -14 -62 hhcurveto
            -212 -143 180 298 419 227 367 299 193 108 -125 -242 7 hvcurveto
            78 -27 callgsubr
            -220 hhcurveto
            -484 -347 -334 -486 -4 hvcurveto
            endchar
          </CharString>
          <CharString index="66">
            0 103 427 rlineto
            -78 hlineto
            -110 -262 -81 -48 -259 -10 rrcurveto
            -210 -8 124 589 193 -1 90 -2 19 -37 -5 -166 rlinecurve
            74 hlineto
            107 506 rlineto
            -73 hlineto
            -65 -162 -34 -35 -92 -2 rrcurveto
            -193 -2 119 558 197 -7 231 -10 47 -47 10 -228 rlinecurve
            78 hlineto
            return
          </CharString>
          <CharString index="67">
            -148 1158 -261 0 -636 -1145 -96 -173 -32 -27 -116 -16 rlinecurve
            -18 -86 445 0 18 86 -139 21 -14 32 85 161 rlinecurve
            93 176 445 0 20 -185 return
          </CharString>
          <CharString index="68">
            1360 1608 1444 rmoveto
            -1244 hlineto
            26 callsubr
            91 callsubr
            101 callsubr
            82 callsubr
            return
          </CharString>
          <CharString index="69">
            -449 -4 317 -232 370 hhcurveto
            181 158 43 65 91 hvcurveto
            -56 callgsubr
            return
          </CharString>
          <CharString index="70">
            -77 callgsubr
            51 34 -48 -122 2 hvcurveto
            -242 2 -78 -252 -108 hhcurveto
            return
          </CharString>
          <CharString index="71">
            112 466 rlineto
            -78 hlineto
            -125 -286 -98 -66 -215 -9 rrcurveto
            -171 -6 return
          </CharString>
          <CharString index="72">
            95 72 117 111 -84 68 -103 -76 -63 42 callsubr
            27 hhcurveto
            53 return
          </CharString>
          <CharString index="73">
            -170 191 -101 0 130 -388 214 0 292 388 rlineto
            return
          </CharString>
          <CharString index="74">
            rmoveto
            -417 -88 callgsubr
            186 callsubr
            endchar
          </CharString>
          <CharString index="75">
            785 51 callsubr
            28 callsubr
            return
          </CharString>
          <CharString index="76">
            1653 824 19 callsubr
            return
          </CharString>
          <CharString index="77">
            hhcurveto
            359 hmoveto
            61 57 39 55 12 hvcurveto
            return
          </CharString>
          <CharString index="78">
            178 354 -106 callsubr
            return
          </CharString>
          <CharString index="79">
            -74 rlineto
            -36 41 69 -25 82 hhcurveto
            endchar
          </CharString>
          <CharString index="80">
            1862 rmoveto
            -226 -141 return
          </CharString>
          <CharString index="81">
            -217 -1022 -19 -88 -22 -19 return
          </CharString>
          <CharString index="82">
            117 119 52 72 58 hvcurveto
            return
          </CharString>
          <CharString index="83">
            -149 -89 callsubr
            return
          </CharString>
          <CharString index="84">
            -29 callsubr
            163 return
          </CharString>
          <CharString index="85">
            34 157 rlineto
            -564 hlineto
            return
          </CharString>
          <CharString index="86">
            19 87 rlineto
            -24 -31 -43 -12 return
          </CharString>
          <CharString index="87">
            rmoveto
            107 -1158 250 0 530 1049 79 -1049 258 0 583 1142 91 179 38 25 114 15 rlinecurve
            18 86 -440 0 -18 -86 132 -15 9 -34 -77 -163 rlinecurve
            -400 -843 -54 849 -10 159 17 27 138 20 rlinecurve
            18 86 -625 0 -18 -86 131 -16 8 -22 callgsubr
            endchar
          </CharString>
          <CharString index="88">
            111 -42 callgsubr
            -41 -12 -34 hhcurveto
            -49 -17 33 68 14 hvcurveto
            164 768 -18 callgsubr
            return
          </CharString>
          <CharString index="89">
            rmoveto
            101 476 115 -1 240 -686 404 0 18 81 -62 25 -33 40 -79 218 rlinecurve
            -201 567 221 198 185 163 64 44 127 22 rlinecurve
            18 86 -489 0 -18 -86 131 -16 8 201 callsubr
            endchar
          </CharString>
          <CharString index="90">
            103 427 rlineto
            -78 hlineto
            -111 -264 -98 -45 -268 -10 rrcurveto
            -243 -9 970 1264 17 81 -1049 0 -95 -391 rlineto
            78 hlineto
            100 222 69 51 245 -54 callgsubr
            endchar
          </CharString>
          <CharString index="91">
            240 1134 19 88 23 18 145 20 rlinecurve
            18 85 -652 0 -18 -86 rlineto
            128 -17 15 -22 -20 -96 -216 -1012 rcurveline
            -18 -88 -22 -19 -137 -18 -19 -86 rcurveline
            return
          </CharString>
          <CharString index="92">
            262 1237 -466 -52 -17 -82 69 -16 rlineto
            51 -14 9 -19 -11 -54 -67 -315 rcurveline
            51 -37 -74 41 -111 hhcurveto
            -312 -222 -308 -374 hvcurveto
            return
          </CharString>
          <CharString index="93">
            rmoveto
            158 144 69 97 68 hvcurveto
            19 89 rlineto
            135 callsubr
            -299 202 -147 215 vhcurveto
            endchar
          </CharString>
          <CharString index="94">
            1562 rmoveto
            79 64 63 77 73 -86 callsubr
            -82 callsubr
            return
          </CharString>
          <CharString index="95">
            rmoveto
            -451 109 callsubr
            -90 callsubr
            144 callsubr
            endchar
          </CharString>
          <CharString index="96">
            1204 1141 hmoveto
            -36 callsubr
            -16 callsubr
            return
          </CharString>
          <CharString index="97">
            558 -60 callgsubr
            -79 -77 -97 -89 69 -70 94 hvcurveto
            return
          </CharString>
          <CharString index="98">
            1237 rmoveto
            626 hlineto
            37 178 rlineto
            -625 hlineto
            return
          </CharString>
          <CharString index="99">
            53 -69 -72 -58 -58 -73 -1 hvcurveto
            -66 51 -53 69 vhcurveto
            return
          </CharString>
          <CharString index="100">
            rmoveto
            87 69 67 82 hvcurveto
            77 -1 -87 callgsubr
            return
          </CharString>
          <CharString index="101">
            1257 681 1027 -99 callsubr
            return
          </CharString>
          <CharString index="102">
            71 58 58 72 1 hvcurveto
            -44 callgsubr
            vhcurveto
            return
          </CharString>
          <CharString index="103">
            rmoveto
            115 90 67 124 25 hvcurveto
            -99 hlineto
            return
          </CharString>
          <CharString index="104">
            772 482 -18 73 callsubr
            return
          </CharString>
          <CharString index="105">
            109 0 467 376 rlineto
            12 vlineto
            return
          </CharString>
          <CharString index="106">
            -19 -88 -22 -19 -137 -18 rlinecurve
            -18 -86 return
          </CharString>
          <CharString index="107">
            1868 rmoveto
            33 154 -678 return
          </CharString>
          <CharString index="108">
            -59 callsubr
            169 -192 return
          </CharString>
          <CharString index="109">
            18 rlinecurve
            18 86 -638 0 -18 -86 return
          </CharString>
          <CharString index="110">
            rmoveto
            339 86 -79 callgsubr
            return
          </CharString>
          <CharString index="111">
            1843 -38 callgsubr
            return
          </CharString>
          <CharString index="112">
            1535 rmoveto
            -229 -388 return
          </CharString>
          <CharString index="113">
            -171 -37 63 -81 140 hhcurveto
            return
          </CharString>
          <CharString index="114">
            rmoveto
            263 6 189 157 return
          </CharString>
          <CharString index="115">
            rmoveto
            86 69 67 82 hvcurveto
            77 -1 return
          </CharString>
          <CharString index="116">
            1611 rmoveto
            564 hlineto
            return
          </CharString>
          <CharString index="117">
            -76 1 62 -61 83 hhcurveto
            endchar
          </CharString>
          <CharString index="118">
            rmoveto
            -147 -171 -48 -30 -122 -17 rrcurveto
            -18 -86 460 0 18 86 -135 21 -1 35 115 144 rlinecurve
            250 312 133 -331 50 -123 -16 -35 -137 -22 rlinecurve
            -18 -85 668 0 18 85 -92 26 -33 26 -50 127 rlinecurve
            -199 497 326 381 141 167 49 30 122 17 rlinecurve
            18 86 -459 0 -18 -86 135 -21 1 -35 -114 -144 rlinecurve
            -239 -300 -128 321 -51 125 17 33 136 21 rlinecurve
            18 86 -670 0 -18 -86 rlineto
            96 -24 32 -28 50 -126 194 -487 rcurveline
            endchar
          </CharString>
          <CharString index="119">
            375 hlineto
            17 81 rlineto
            -65 20 -35 44 -74 194 -125 337 rcurveline
            205 63 152 127 207 vvcurveto
            237 -203 134 -378 vhcurveto
            -584 hlineto
            -18 -86 130 -15 15 -19 -18 -88 rlinecurve
            -219 -1028 -19 -87 -22 -19 -138 -16 rlinecurve
            -18 -86 634 0 18 86 rlineto
            -118 16 -13 20 19 89 87 414 rcurveline
            124 hlineto
            15 15 0 1 16 hvcurveto
            327 443 rmoveto
            -196 -136 -137 -245 -9 vhcurveto
            -94 -3 131 619 76 -2 rlineto
            173 -6 95 -98 -168 vvcurveto
            return
          </CharString>
          <CharString index="120">
            rmoveto
            -267 167 -190 280 346 242 269 326 159 -62 134 -116 81 vhcurveto
            -11 45 51 -7 52 hhcurveto
            193 129 78 142 95 -54 79 -81 41 hvcurveto
            -74 hlineto
            7 -17 6 -30 -30 vvcurveto
            -153 -118 -121 -165 vhcurveto
            -79 -67 23 -106 hhcurveto
            -349 -247 -260 -341 hvcurveto
            318 -108 rmoveto
            -43 callgsubr
            -87 -52 78 160 1 hvcurveto
            endchar
          </CharString>
          <CharString index="121">
            18 86 rlineto
            -148 16 -15 26 17 84 73 339 rcurveline
            156 hlineto
            408 301 164 313 250 -177 166 -418 hvcurveto
            -577 hlineto
            -18 -86 rlineto
            132 -15 15 -22 -19 -87 -218 -1024 rcurveline
            -19 -86 -23 -23 -139 -15 -18 -86 rcurveline
            782 1345 rmoveto
            69 -3 rlineto
            171 -8 102 -101 -179 vvcurveto
            -252 -163 -140 -236 -9 vhcurveto
            -91 -3 rlineto
            endchar
          </CharString>
          <CharString index="122">
            rmoveto
            -522 hlineto
            -18 -86 126 -17 14 -35 -27 -113 rlinecurve
            -218 -929 -32 -129 -25 -31 -136 -18 rlinecurve
            -18 -86 439 0 18 86 -132 18 -11 28 29 133 rlinecurve
            191 910 163 -1175 174 0 219 420 422 765 -184 -978 -16 -85 -22 -20 -139 -40 callgsubr
            1 callgsubr
            endchar
          </CharString>
          <CharString index="123">
            rmoveto
            -449 -95 253 -201 328 hhcurveto
            337 225 211 366 81 hvcurveto
            184 829 rlineto
            -3 18 18 -2 20 hhcurveto
            165 1 111 80 137 vvcurveto
            94 -56 85 -71 42 vhcurveto
            -82 hlineto
            9 -17 5 -30 -30 vvcurveto
            -159 -108 -132 -211 vhcurveto
            -93 hlineto
            48 callsubr
            206 callsubr
            endchar
          </CharString>
          <CharString index="124">
            rmoveto
            157 142 67 99 70 hvcurveto
            19 89 rlineto
            142 callsubr
            -298 199 -147 217 vhcurveto
            145 952 rmoveto
            61 28 -41 -66 -129 -110 -111 -172 -54 hvcurveto
            -43 -15 rlineto
            235 10 97 181 129 hhcurveto
            return
          </CharString>
          <CharString index="125">
            rmoveto
            62 57 39 55 11 hvcurveto
            54 13 -41 40 -61 hhcurveto
            -13 hlineto
            38 callsubr
            359 hmoveto
            53 callsubr
            -40 40 -62 hhcurveto
            -13 hlineto
            -61 -57 -40 -54 -13 hvcurveto
            -55 -11 40 -39 62 hhcurveto
            return
          </CharString>
          <CharString index="126">
            rmoveto
            391 -1 -298 229 -449 hhcurveto
            -546 -107 callgsubr
            -89 -218 -1022 115 callsubr
            574 hlineto
            591 436 329 495 hvcurveto
            return
          </CharString>
          <CharString index="127">
            161 755 -181 0 -121 -108 rlineto
            69 -31 -82 61 -135 hhcurveto
            -313 -222 -308 -374 hvcurveto
            -57 callgsubr
            return
          </CharString>
          <CharString index="128">
            16 -149 -26 -36 -145 -20 rlinecurve
            -18 -86 661 0 -29 callgsubr
            -761 295 rmoveto
            313 592 63 -592 rlineto
            return
          </CharString>
          <CharString index="129">
            hvcurveto
            -99 hlineto
            -55 -16 -100 -37 -126 hhcurveto
            -126 -84 37 55 7 hvcurveto
            -99 hlineto
            -143 -38 113 -89 197 hhcurveto
            return
          </CharString>
          <CharString index="130">
            rmoveto
            -466 -55 -17 -82 68 -16 -83 callsubr
            rlinecurve
            -151 -713 -56 -264 159 callsubr
          </CharString>
          <CharString index="131">
            rmoveto
            77 -77 134 155 1 0 52 66 callsubr
            9 callgsubr
            endchar
          </CharString>
          <CharString index="132">
            rmoveto
            -465 -56 -17 -83 68 -15 rlineto
            51 -14 9 -19 -11 174 callsubr
            endchar
          </CharString>
          <CharString index="133">
            -94 -391 rlineto
            78 hlineto
            92 225 76 54 236 11 rrcurveto
            43 2 return
          </CharString>
          <CharString index="134">
            rmoveto
            -373 -3 248 -292 425 hhcurveto
            183 callsubr
            endchar
          </CharString>
          <CharString index="135">
            rlineto
            50 -14 10 -19 -11 -54 -219 -1024 rcurveline
            -4 callgsubr
            return
          </CharString>
          <CharString index="136">
            -41 40 -61 hhcurveto
            -13 hlineto
            -61 -57 -40 -54 -12 hvcurveto
            -55 -12 40 -39 return
          </CharString>
          <CharString index="137">
            rmoveto
            238 173 159 -173 94 31 callsubr
          </CharString>
          <CharString index="138">
            0 -124 350 -199 0 -269 -350 rlineto
            endchar
          </CharString>
          <CharString index="139">
            -32 27 rlineto
            39 -50 -50 24 -63 hhcurveto
            -105 -86 -74 -257 return
          </CharString>
          <CharString index="140">
            1847 rmoveto
            -202 -299 -65 callsubr
            return
          </CharString>
          <CharString index="141">
            14 24 -31 hvcurveto
            -33 27 rlineto
            39 -49 -51 24 -62 hhcurveto
            return
          </CharString>
          <CharString index="142">
            -61 60 -83 hhcurveto
            -87 -70 -66 -83 -93 callgsubr
          </CharString>
          <CharString index="143">
            rmoveto
            205 963 19 89 22 19 137 18 rlinecurve
            return
          </CharString>
          <CharString index="144">
            rmoveto
            173 96 72 117 111 -85 68 -103 -76 return
          </CharString>
          <CharString index="145">
            -62 -57 -40 -54 -12 hvcurveto
            -55 -11 40 -39 61 hhcurveto
            return
          </CharString>
          <CharString index="146">
            -81 43 65 9 hvcurveto
            -96 hlineto
            -169 -44 107 -104 return
          </CharString>
          <CharString index="147">
            1548 rmoveto
            225 73 callgsubr
            return
          </CharString>
          <CharString index="148">
            1335 rmoveto
            -125 116 -78 151 return
          </CharString>
          <CharString index="149">
            -27 -43 -41 hvcurveto
            -16 -69 rlineto
            5 17 31 5 return
          </CharString>
          <CharString index="150">
            -86 133 -206 hhcurveto
            -106 callgsubr
            return
          </CharString>
          <CharString index="151">
            -161 141 -98 -53 callgsubr
            return
          </CharString>
          <CharString index="152">
            116 117 53 -71 callsubr
            return
          </CharString>
          <CharString index="153">
            345 hmoveto
            71 59 58 72 67 -50 return
          </CharString>
          <CharString index="154">
            64 63 79 72 -56 57 -76 hvcurveto
            endchar
          </CharString>
          <CharString index="155">
            -18 -86 rlineto
            136 -23 12 -25 -25 return
          </CharString>
          <CharString index="156">
            rmoveto
            339 86 -80 callgsubr
            return
          </CharString>
          <CharString index="157">
            1546 93 callsubr
            return
          </CharString>
          <CharString index="158">
            1496 -58 callsubr
            return
          </CharString>
          <CharString index="159">
            -194 0 -252 -299 rlineto
            return
          </CharString>
          <CharString index="160">
            61 58 39 55 11 hvcurveto
            54 12 return
          </CharString>
          <CharString index="161">
            -32 hhcurveto
            -49 -18 33 68 14 hvcurveto
            return
          </CharString>
          <CharString index="162">
            rmoveto
            -83 59 -64 89 98 65 59 197 110 vhcurveto
            54 96 34 -99 rlineto
            -174 58 71 -78 133 hhcurveto
            110 90 52 72 44 hvcurveto
            18 87 rlineto
            -21 -26 -31 -13 -35 hhcurveto
            -55 -43 36 129 -42 hvcurveto
            -87 254 90 141 29 46 24 36 22 27 rlinecurve
            -51 21 51 -36 61 hhcurveto
            84 65 67 83 82 -59 65 -90 -98 -67 -60 -197 -107 hvcurveto
            -59 -106 -120 353 -379 -52 -17 -85 61 -11 59 -13 16 -16 20 -59 rlinecurve
            121 -361 -85 -132 -29 -46 -25 -35 -21 -28 rlinecurve
            51 -22 -51 36 -60 hhcurveto
            -85 -64 -67 -82 hvcurveto
            endchar
          </CharString>
          <CharString index="163">
            rmoveto
            327 252 184 283 164 -80 121 -186 118 hvcurveto
            -89 59 rlineto
            -134 85 -51 69 96 vvcurveto
            123 100 81 143 177 105 -117 -228 11 vhcurveto
            77 hlineto
            57 345 rlineto
            61 -78 -164 57 -197 hhcurveto
            -362 -198 -197 -245 -168 84 -116 187 -118 hvcurveto
            89 -59 rlineto
            135 -87 45 -72 -102 vvcurveto
            -137 -115 -82 -146 -183 -140 117 233 -4 vhcurveto
            -78 hlineto
            -57 -357 rlineto
            -59 88 194 -52 191 hhcurveto
            return
          </CharString>
          <CharString index="164">
            rmoveto
            300 262 248 395 63 hvcurveto
            273 42 -87 142 -154 hhcurveto
            -113 -82 -108 -142 12 hvcurveto
            174 -32 56 -141 -31 -171 rrcurveto
            -182 -32 -113 -117 -138 hhcurveto
            -132 -48 83 149 32 hvcurveto
            11 53 56 231 14 72 rrcurveto
            210 45 -73 87 -176 hhcurveto
            -95 -88 -33 -33 -54 hvcurveto
            -18 -82 rlineto
            5 13 17 4 20 hhcurveto
            68 32 -39 -107 -23 hvcurveto
            -18 -85 -55 -235 -14 -67 rrcurveto
            -229 -49 109 -149 267 hhcurveto
            endchar
          </CharString>
          <CharString index="165">
            rmoveto
            -58 68 140 -46 152 hhcurveto
            299 154 156 177 hvcurveto
            1 129 -59 89 -134 78 -84 48 rcurveline
            -89 53 -34 41 63 vvcurveto
            71 1 51 47 93 hhcurveto
            128 76 -91 -139 4 hvcurveto
            78 hlineto
            49 259 rlineto
            43 -68 -116 34 -151 hhcurveto
            -272 -169 -132 -190 -127 69 -89 131 -75 hvcurveto
            84 -49 rlineto
            88 -53 28 -44 -65 vvcurveto
            -78 -1 -60 -50 -97 hhcurveto
            -129 -100 91 172 -6 hvcurveto
            -77 hlineto
            return
          </CharString>
          <CharString index="166">
            1653 932 -28 rmoveto
            437 348 338 471 384 -297 309 -392 -437 -348 -339 -470 -386 296 -307 393 hvcurveto
            73 vmoveto
            -344 -262 274 346 432 320 303 382 342 264 -275 -345 -432 -321 -303 -381 hvcurveto
            return
          </CharString>
          <CharString index="167">
            rmoveto
            163 -126 139 -251 27 vhcurveto
            234 20 206 103 1 210 rrcurveto
            204 2 -188 128 -393 hhcurveto
            -569 -107 callgsubr
            -90 -218 -1021 115 callsubr
            190 callsubr
            endchar
          </CharString>
          <CharString index="168">
            rmoveto
            -137 -704 rlineto
            -229 -44 94 -103 188 hhcurveto
            137 128 62 75 74 hvcurveto
            18 83 rlineto
            -27 -41 -53 -10 -53 hhcurveto
            -111 -54 55 138 34 hvcurveto
            9 41 142 560 16 59 rrcurveto
            endchar
          </CharString>
          <CharString index="169">
            1516 797 -28 rmoveto
            337 224 211 366 81 hvcurveto
            141 633 29 129 23 26 130 21 rlinecurve
            18 86 -434 0 48 callsubr
            -2 callgsubr
            return
          </CharString>
          <CharString index="170">
            592 641 rmoveto
            263 135 242 230 -1 hvcurveto
            182 -99 166 -200 -263 -135 -239 -232 1 vhcurveto
            -183 99 -166 200 vhcurveto
            return
          </CharString>
          <CharString index="171">
            755 1445 rmoveto
            -88 hlineto
            -285 -113 -12 -59 132 20 6 1 4 -4 -1 -5 rlinecurve
            -104 -488 -12 -56 -30 66 callgsubr
            return
          </CharString>
          <CharString index="172">
            rmoveto
            174 95 72 117 111 -85 68 -102 -76 -63 42 callsubr
            26 hhcurveto
            54 41 -25 -42 -44 -42 -26 -68 -46 108 callgsubr
          </CharString>
          <CharString index="173">
            -36 rlineto
            -88 131 75 -28 98 hhcurveto
            140 140 90 212 104 hvcurveto
            -58 50 -51 -78 -56 -31 -55 1 rlinecurve
            -76 -59 25 64 -107 hvcurveto
            return
          </CharString>
          <CharString index="174">
            rmoveto
            192 150 104 169 30 hvcurveto
            -97 hlineto
            -65 -18 -99 -43 -123 hhcurveto
            -123 39 callsubr
            193 hhcurveto
            endchar
          </CharString>
          <CharString index="175">
            12 rlineto
            14 -45 -46 11 -52 -72 callgsubr
            46 hhcurveto
            29 28 -7 -12 36 hvcurveto
            35 -11 rlineto
            -15 45 45 -11 52 hhcurveto
            return
          </CharString>
          <CharString index="176">
            -59 callgsubr
            -134 hhcurveto
            -114 -77 63 81 9 1 8 1 6 hvcurveto
            -94 hlineto
            -11 -29 -52 callgsubr
            return
          </CharString>
          <CharString index="177">
            rmoveto
            233 92 324 193 67 45 -33 -39 11 vhcurveto
            -95 -445 rlineto
            -159 -36 -80 -88 -82 hhcurveto
            -72 -44 return
          </CharString>
          <CharString index="178">
            -31 hvcurveto
            96 hlineto
            109 18 30 31 42 hhcurveto
            30 24 -13 -25 32 hvcurveto
            32 -26 rlineto
            -39 49 51 -25 62 hhcurveto
            return
          </CharString>
          <CharString index="179">
            -8 hlineto
            263 -380 rlineto
            106 hlineto
            317 388 rmoveto
            -268 -8 hlineto
            158 -380 rlineto
            98 hlineto
            return
          </CharString>
          <CharString index="180">
            rmoveto
            127 136 58 81 56 hvcurveto
            18 87 rlineto
            -33 -37 -54 -19 -61 hhcurveto
            -93 -45 58 139 29 hvcurveto
            return
          </CharString>
          <CharString index="181">
            19 85 -644 8 callgsubr
            24 -70 417 151 223 152 78 361 rlinecurve
            endchar
          </CharString>
          <CharString index="182">
            -1 -23 13 -29 22 -31 24 rcurveline
            35 -46 -47 22 -58 hhcurveto
            -98 -80 -67 -231 -27 hvcurveto
            89 hlineto
            98 return
          </CharString>
          <CharString index="183">
            1573 rmoveto
            189 113 126 200 6 hvcurveto
            -84 hlineto
            -92 -18 -77 -55 -122 hhcurveto
            return
          </CharString>
          <CharString index="184">
            1267 688 1026 rmoveto
            -69 callsubr
            -90 callsubr
            131 callsubr
            return
          </CharString>
          <CharString index="185">
            130 -14 14 -22 -19 -89 rlinecurve
            -217 -1022 -1 callsubr
            644 0 18 86 return
          </CharString>
          <CharString index="186">
            rmoveto
            113 90 78 146 30 hvcurveto
            -97 hlineto
            -53 -11 -31 -22 -45 hhcurveto
            -27 -28 7 14 return
          </CharString>
          <CharString index="187">
            217 1022 19 88 22 19 137 18 rlinecurve
            19 86 -644 0 -19 -86 return
          </CharString>
          <CharString index="188">
            -20 11 20 -25 hvcurveto
            -26 20 rlineto
            32 -42 -43 19 -53 hhcurveto
            -89 -73 -61 -211 return
          </CharString>
          <CharString index="189">
            241 1135 44 -2 228 -11 55 -51 -2 -228 rlinecurve
            78 hlineto
            return
          </CharString>
          <CharString index="190">
            0 638 1527 rmoveto
            38 181 -669 -195 -17 -84 rlineto
            return
          </CharString>
          <CharString index="191">
            hhcurveto
            -24 -21 11 20 -25 hvcurveto
            -26 20 rlineto
            32 -42 -43 19 -52 hhcurveto
            return
          </CharString>
          <CharString index="192">
            1846 rmoveto
            -275 -9 hlineto
            287 -290 rlineto
            82 hlineto
            return
          </CharString>
          <CharString index="193">
            1846 rmoveto
            -275 -9 hlineto
            287 -290 rlineto
            81 hlineto
            return
          </CharString>
          <CharString index="194">
            1534 rmoveto
            -326 -11 hlineto
            319 -377 rlineto
            100 hlineto
            return
          </CharString>
          <CharString index="195">
            1534 rmoveto
            -326 -11 hlineto
            319 -377 rlineto
            99 hlineto
            return
          </CharString>
          <CharString index="196">
            1534 rmoveto
            -326 -11 hlineto
            318 -377 rlineto
            100 hlineto
            return
          </CharString>
          <CharString index="197">
            1183 rmoveto
            106 86 74 258 31 hvcurveto
            -96 hlineto
            -109 return
          </CharString>
          <CharString index="198">
            -241 -1135 -18 -87 -25 -19 -152 -19 rlinecurve
            -18 -85 return
          </CharString>
          <CharString index="199">
            94 0 -123 350 -199 0 -269 -350 rlineto
            endchar
          </CharString>
          <CharString index="200">
            rmoveto
            -142 -395 135 0 310 384 rlineto
            11 vlineto
            return
          </CharString>
          <CharString index="201">
            1528 rmoveto
            -209 -128 -143 -231 -8 hvcurveto
            return
          </CharString>
          <CharString index="202">
            -167 190 -280 -347 -241 -272 -329 return
          </CharString>
          <CharString index="203">
            102 0 -131 389 -214 0 -291 -389 rlineto
            return
          </CharString>
          <CharString index="204">
            -46 16 22 -31 hvcurveto
            -18 -80 rlineto
            -45 47 72 -31 89 hhcurveto
            return
          </CharString>
          <CharString index="205">
            -97 0 128 -299 207 0 252 299 rlineto
            return
          </CharString>
          <CharString index="206">
            rmoveto
            145 hlineto
            1255 1444 rlineto
            -145 hlineto
            return
          </CharString>
          <CharString index="207">
            1512 816 1444 148 callsubr
            return
          </CharString>
          <CharString index="208">
            679 0 18 85 -145 19 -16 19 18 87 rlinecurve
            return
          </CharString>
          <CharString index="209">
            639 0 18 86 -120 17 -17 19 19 89 rlinecurve
            return
          </CharString>
          <CharString index="210">
            173 106 81 117 105 -82 70 -126 8 hvcurveto
            return
          </CharString>
          <CharString index="211">
            hhcurveto
            -28 -28 7 12 -37 hvcurveto
            -34 11 rlineto
            14 -45 -45 return
          </CharString>
          <CharString index="212">
            9 callsubr
            33 157 rlineto
            -563 hlineto
            return
          </CharString>
          <CharString index="213">
            -245 190 -57 0 -324 -190 rlineto
            endchar
          </CharString>
          <CharString index="214">
            151 89 143 23 22 callsubr
            endchar
          </CharString>
          <CharString index="215">
            88 -245 190 -57 0 -324 -190 rlineto
            return
          </CharString>
          <CharString index="216">
            -55 -17 -82 68 -16 51 -14 9 -19 -11 -54 rlinecurve
            return
          </CharString>
          <CharString index="217">
            -57 57 -75 -80 -64 -62 -79 -72 56 -57 77 hvcurveto
            return
          </CharString>
          <CharString index="218">
            1534 rmoveto
            -282 72 callsubr
            return
          </CharString>
          <CharString index="219">
            1168 989 -17 130 callsubr
            return
          </CharString>
          <CharString index="220">
            49 15 51 hhcurveto
            76 39 -31 -50 -59 -56 -58 return
          </CharString>
          <CharString index="221">
            -61 -211 -24 callgsubr
            25 20 -11 return
          </CharString>
          <CharString index="222">
            rcurveline
            -19 -88 -22 -19 -137 -18 -18 -86 rcurveline
            return
          </CharString>
          <CharString index="223">
            rmoveto
            -222 -146 -176 -277 -10 vhcurveto
            return
          </CharString>
          <CharString index="224">
            rmoveto
            1010 hlineto
            37 174 rlineto
            -1010 hlineto
            return
          </CharString>
          <CharString index="225">
            1900 rmoveto
            -189 -113 -127 return
          </CharString>
          <CharString index="226">
            -15 callsubr
            -57 callgsubr
            return
          </CharString>
          <CharString index="227">
            52 hhcurveto
            -516 -297 rmoveto
            339 86 return
          </CharString>
          <CharString index="228">
            -15 -72 rlineto
            1 2 27 1 4 hhcurveto
            71 return
          </CharString>
          <CharString index="229">
            -19 25 hvcurveto
            26 -21 rlineto
            -32 42 43 -19 return
          </CharString>
          <CharString index="230">
            -67 callgsubr
            72 -31 88 hhcurveto
            endchar
          </CharString>
          <CharString index="231">
            -61 -57 -39 -55 -12 hvcurveto
            -55 -12 40 -39 return
          </CharString>
          <CharString index="232">
            -82 69 -16 50 -14 10 -19 -12 -54 rlinecurve
            return
          </CharString>
          <CharString index="233">
            -82 69 -16 rlineto
            50 -14 10 -19 -12 -54 return
          </CharString>
          <CharString index="234">
            -86 -70 -66 -83 vhcurveto
            10 callsubr
          </CharString>
          <CharString index="235">
            rmoveto
            -76 65 -59 80 83 67 62 76 45 -22 40 -33 25 vhcurveto
            12 33 38 6 40 hhcurveto
            157 71 -104 -199 -31 hvcurveto
            -7 -43 -162 -15 rlineto
            -331 -32 -168 -115 -187 vvcurveto
            -150 122 -95 170 180 133 104 197 47 vhcurveto
            -199 43 158 -103 179 hhcurveto
            163 135 70 92 68 hvcurveto
            19 88 rlineto
            -49 -57 -80 -32 -85 hhcurveto
            -160 -93 116 217 hvcurveto
            3 0 3 2 vvcurveto
            48 3 401 31 132 120 1 153 rlinecurve
            152 1 -137 90 -198 hhcurveto
            -129 -117 -46 -86 -95 hvcurveto
            85 -67 -110 47 -152 hhcurveto
            -235 -165 -106 -143 hvcurveto
            1055 141 rmoveto
            68 32 -54 -69 -1 hvcurveto
            -3 -104 -76 -105 -216 -21 -32 -3 rcurveline
            205 21 90 151 117 hhcurveto
            -873 -659 rmoveto
            106 80 79 184 22 vhcurveto
            81 9 -9 -53 rlineto
            -200 -31 -77 -90 -105 hhcurveto
            -72 -51 43 84 hvcurveto
            endchar
          </CharString>
          <CharString index="236">
            rmoveto
            -1080 hlineto
            -791 -1150 -114 -167 -45 -27 -112 -14 rlinecurve
            -18 -86 457 0 18 86 -138 19 -9 36 100 152 rlinecurve
            187 282 433 0 -67 -345 -21 -108 -17 -19 -147 -17 rlinecurve
            -18 -86 1141 0 105 427 rlineto
            -76 hlineto
            -107 -254 -86 -54 -247 -11 rrcurveto
            -212 -9 113 587 181 -2 89 -2 20 -36 -6 -165 rlinecurve
            76 hlineto
            103 507 rlineto
            -75 hlineto
            -62 -161 -34 -34 -90 -3 rrcurveto
            -182 -1 107 556 193 -8 239 -11 34 -47 13 -226 rlinecurve
            76 hlineto
            -968 288 rmoveto
            73 hlineto
            -127 -656 rlineto
            -381 hlineto
            endchar
          </CharString>
          <CharString index="237">
            rmoveto
            107 85 52 70 44 hvcurveto
            19 87 rlineto
            -20 -22 -29 -12 -30 hhcurveto
            -51 -42 37 137 -46 hvcurveto
            -118 348 99 77 161 125 77 39 101 20 rlinecurve
            14 71 -457 0 -15 -71 126 -14 16 -33 -116 -98 rlinecurve
            -318 -271 207 969 -467 -52 -17 -82 69 -16 -83 callsubr
            -76 callsubr
            315 0 90 421 84 66 69 -220 rlineto
            -194 59 75 -90 130 hhcurveto
            return
          </CharString>
          <CharString index="238">
            130 611 rlineto
            155 34 99 105 93 hhcurveto
            81 38 -63 -115 -25 hvcurveto
            -96 -458 rlineto
            -171 -35 61 -81 140 hhcurveto
            118 118 52 72 58 hvcurveto
            18 87 rlineto
            -24 -30 -43 -12 -33 hhcurveto
            -49 -17 33 68 14 hvcurveto
            90 419 rlineto
            225 48 -87 133 -205 hhcurveto
            -164 -130 -97 -178 -76 hvcurveto
            return
          </CharString>
          <CharString index="239">
            rmoveto
            112 90 78 146 30 hvcurveto
            -96 hlineto
            -53 -12 -31 -22 -44 hhcurveto
            -27 -28 7 14 -36 hvcurveto
            -32 13 rlineto
            18 -44 -44 12 -51 hhcurveto
            -111 -91 -78 -146 -30 hvcurveto
            97 hlineto
            53 11 31 22 45 hhcurveto
            27 27 -8 -13 36 hvcurveto
            33 -13 rlineto
            -17 43 43 -13 52 hhcurveto
            -293 -1171 -101 callsubr
          </CharString>
          <CharString index="240">
            1443 590 211 rmoveto
            101 476 115 -1 240 -686 404 0 18 81 -62 25 -33 40 -79 218 rlinecurve
            -201 567 221 198 185 163 64 44 127 22 rlinecurve
            18 86 -489 0 -18 -86 131 -16 8 201 callsubr
            return
          </CharString>
          <CharString index="241">
            556 1574 rmoveto
            71 58 58 71 1 hvcurveto
            67 -51 53 -68 -72 -59 -57 -73 -67 51 -52 69 vhcurveto
            344 hmoveto
            71 59 58 71 hvcurveto
            67 1 -51 53 -69 hhcurveto
            -71 -59 -57 -73 hvcurveto
            -67 -1 51 -52 69 hhcurveto
            -311 -1363 -93 callsubr
          </CharString>
          <CharString index="242">
            -58 -61 -88 -27 -73 hhcurveto
            -151 -106 109 214 255 123 201 172 26 24 -4 -8 21 hvcurveto
            -60 -18 -41 -55 -64 vvcurveto
            -81 63 -61 81 87 69 64 88 137 -117 112 -207 vhcurveto
            -325 -1 -243 -262 -350 vvcurveto
            return
          </CharString>
          <CharString index="243">
            1862 rmoveto
            -227 -141 -161 141 -65 callgsubr
            return
          </CharString>
          <CharString index="244">
            rmoveto
            115 89 67 124 26 hvcurveto
            -99 hlineto
            -45 -10 -30 -104 callgsubr
            -34 12 rlineto
            14 -45 -45 11 -53 hhcurveto
            -114 -90 -67 -124 -26 hvcurveto
            99 hlineto
            45 10 31 20 46 hhcurveto
            28 28 -41 callgsubr
            53 hhcurveto
            endchar
          </CharString>
          <CharString index="245">
            98 89 hhcurveto
            80 38 -63 -115 -25 hvcurveto
            -95 -458 rlineto
            -171 -36 61 -81 141 hhcurveto
            117 118 52 72 58 hvcurveto
            -21 callsubr
            -33 hhcurveto
            -64 callsubr
            89 419 rlineto
            225 48 return
          </CharString>
          <CharString index="246">
            rmoveto
            192 110 73 89 80 hvcurveto
            19 87 rlineto
            -61 -74 -107 -37 -115 hhcurveto
            -104 -67 44 74 74 37 48 135 49 hvcurveto
            47 16 rlineto
            193 67 114 83 182 vvcurveto
            170 return
          </CharString>
          <CharString index="247">
            -35 hvcurveto
            -33 13 rlineto
            18 -43 -44 12 -51 hhcurveto
            -111 -91 -78 -146 -31 hvcurveto
            97 hlineto
            53 12 30 22 46 hhcurveto
            27 27 -8 -13 36 hvcurveto
            32 -13 rlineto
            -17 44 43 -13 51 hhcurveto
            endchar
          </CharString>
          <CharString index="248">
            rmoveto
            -466 -55 -18 -82 69 -16 51 -14 9 -19 -11 -54 rlinecurve
            -151 -713 -56 -264 -47 -117 -185 -92 rlinecurve
            26 -78 344 92 164 143 68 318 rlinecurve
            endchar
          </CharString>
          <CharString index="249">
            -58 -60 -88 -27 -77 hhcurveto
            -136 -102 87 188 -15 hvcurveto
            60 18 rlineto
            330 95 182 96 178 vvcurveto
            137 -127 90 -196 -314 -261 -259 -355 return
          </CharString>
          <CharString index="250">
            21 96 -258 0 38 166 -319 -25 -30 -141 -151 0 -21 -96 151 0 -257 -1211 316 0 131 619 rlineto
            154 34 102 return
          </CharString>
          <CharString index="251">
            129 644 rlineto
            94 60 113 57 126 hhcurveto
            45 39 -7 -10 27 hvcurveto
            11 22 13 44 45 vvcurveto
            85 -37 57 -78 -103 -76 -89 -226 -130 vhcurveto
            return
          </CharString>
          <CharString index="252">
            -16 -75 rlineto
            22 30 113 callsubr
            -104 -60 hvcurveto
            103 -64 callgsubr
            return
          </CharString>
          <CharString index="253">
            rmoveto
            -335 hlineto
            -13 -59 74 -11 7 -20 -15 -61 rlinecurve
            -113 -482 -17 -68 -14 -17 -78 -9 rlinecurve
            -13 -59 261 0 13 59 -76 10 return
          </CharString>
          <CharString index="254">
            -267 166 -190 281 hvcurveto
            9 111 rmoveto
            -87 -52 78 160 1 hvcurveto
            86 callgsubr
            -88 -354 -172 hhcurveto
            return
          </CharString>
          <CharString index="255">
            rmoveto
            -470 hlineto
            -19 -86 128 -14 15 -45 -23 -105 rlinecurve
            -204 -924 -29 -136 -26 -29 -128 -19 199 callsubr
            return
          </CharString>
          <CharString index="256">
            0 239 1124 19 91 22 17 132 17 rlinecurve
            18 86 -638 0 -18 -86 125 -16 19 -18 -20 -91 rlinecurve
            endchar
          </CharString>
          <CharString index="257">
            -945 -71 -333 -99 -135 -236 -144 rlinecurve
            24 -70 417 151 224 152 77 361 rlinecurve
            return
          </CharString>
          <CharString index="258">
            260 -5 26 124 -263 -14 52 243 -328 -44 -42 -199 -148 -32 -16 -78 140 0 return
          </CharString>
          <CharString index="259">
            rmoveto
            241 -123 135 -164 -147 11 callgsubr
            -123 -22 rlinecurve
            -17 193 callsubr
          </CharString>
          <CharString index="260">
            900 685 1026 rmoveto
            -451 109 callsubr
            -90 callsubr
            144 callsubr
            return
          </CharString>
          <CharString index="261">
            46 64 13 hvcurveto
            65 14 -41 47 -65 hhcurveto
            -14 hlineto
            -63 -62 -47 -65 -14 hvcurveto
            -64 -13 41 -46 64 hhcurveto
            return
          </CharString>
          <CharString index="262">
            1175 rmoveto
            98 78 77 96 90 -69 70 -93 -98 -80 -77 -97 -89 70 -70 94 hvcurveto
            return
          </CharString>
          <CharString index="263">
            463 1233 rmoveto
            -217 -1022 rlineto
            -19 -91 -24 -17 -134 -17 -19 -86 rcurveline
            return
          </CharString>
          <CharString index="264">
            425 hhcurveto
            -23 116 rmoveto
            -174 -112 -35 callgsubr
            84 callgsubr
            return
          </CharString>
          <CharString index="265">
            124 -787 -84 callsubr
            -87 -70 -66 -83 1 vhcurveto
            -76 62 -61 84 vhcurveto
            endchar
          </CharString>
          <CharString index="266">
            -46 -117 -186 -92 rlinecurve
            26 -78 345 92 163 143 68 318 rlinecurve
            endchar
          </CharString>
          <CharString index="267">
            hhcurveto
            155 134 94 171 78 hvcurveto
            -2 -9 -9 -45 -10 vvcurveto
            -129 -16 59 -67 return
          </CharString>
          <CharString index="268">
            1573 rmoveto
            189 114 126 200 5 hvcurveto
            -84 hlineto
            -92 -17 -78 -55 return
          </CharString>
          <CharString index="269">
            963 -736 rmoveto
            -36 callgsubr
            -201 -262 -81 callgsubr
            return
          </CharString>
          <CharString index="270">
            -50 -49 -92 -52 hvcurveto
            90 hlineto
            155 53 81 60 84 vvcurveto
            81 -76 60 -105 vhcurveto
            return
          </CharString>
          <CharString index="271">
            -322 -797 rmoveto
            145 hlineto
            1254 1444 rlineto
            -145 hlineto
            return
          </CharString>
          <CharString index="272">
            -169 191 -102 0 131 -388 214 0 291 388 rlineto
            return
          </CharString>
          <CharString index="273">
            -135 hhcurveto
            -113 -77 63 81 9 1 8 1 6 hvcurveto
            -94 hlineto
            -11 -29 return
          </CharString>
          <CharString index="274">
            65 61 47 64 14 hvcurveto
            64 14 -42 47 -64 hhcurveto
            -14 hlineto
            -64 -62 -47 -64 return
          </CharString>
          <CharString index="275">
            hvcurveto
            67 1 -51 53 -69 hhcurveto
            -71 -59 -58 -73 hvcurveto
            -66 -1 51 -53 69 hhcurveto
            return
          </CharString>
          <CharString index="276">
            27 110 16 rlinecurve
            18 86 -431 0 -18 -86 134 -17 4 -35 return
          </CharString>
          <CharString index="277">
            -32 hvcurveto
            97 hlineto
            109 18 29 31 43 hhcurveto
            29 25 -13 -25 31 hvcurveto
            return
          </CharString>
          <CharString index="278">
            -2444 rmoveto
            170 hlineto
            519 2444 rlineto
            -170 hlineto
            return
          </CharString>
          <CharString index="279">
            rmoveto
            482 311 384 447 162 -46 148 -88 114 hvcurveto
            167 161 -69 72 -165 -159 rlineto
            104 -113 -158 63 -197 hhcurveto
            -482 -307 -383 -447 -5 hvcurveto
            -1 -164 47 -147 88 -115 rrcurveto
            -166 -160 69 -72 165 159 rlineto
            -104 113 159 -63 196 hhcurveto
            -309 553 rmoveto
            395 180 432 276 126 94 -74 -154 42 vhcurveto
            -714 -689 rlineto
            -2 28 -2 30 32 vvcurveto
            286 -437 rmoveto
            -126 -94 74 154 -41 hvcurveto
            713 688 rlineto
            2 -28 2 -29 -32 vvcurveto
            -405 -186 -422 -270 vhcurveto
            endchar
          </CharString>
          <CharString index="280">
            rmoveto
            -257 -25 128 -169 231 hhcurveto
            164 116 96 170 60 hvcurveto
            -161 3 118 -105 174 hhcurveto
            312 204 287 338 25 hvcurveto
            272 20 -109 161 -155 hhcurveto
            -117 -79 -110 -141 13 hvcurveto
            172 -31 95 -130 -12 -180 rrcurveto
            -173 -10 -107 -133 -130 hhcurveto
            -138 -77 106 297 71 hvcurveto
            48 206 -268 0 -50 -239 rlineto
            -280 -60 -60 -90 -102 hhcurveto
            -100 -44 87 180 16 hvcurveto
            17 241 102 215 154 108 rrcurveto
            -38 60 -319 -69 -217 -257 -26 -299 rlinecurve
            endchar
          </CharString>
          <CharString index="281">
            -55 -94 -441 rcurveline
            -224 -47 90 -142 207 hhcurveto
            154 135 94 170 77 hvcurveto
            -2 -8 -9 -45 -9 vvcurveto
            -130 -15 59 -67 119 hhcurveto
            110 121 51 68 59 hvcurveto
            18 87 rlineto
            -24 -33 -42 -11 -33 hhcurveto
            -48 -19 33 68 15 hvcurveto
            149 701 rlineto
            -2 14 15 -1 16 hhcurveto
            134 103 71 129 91 -55 77 -83 41 hvcurveto
            -74 hlineto
            8 -17 5 -30 -32 vvcurveto
            -152 -109 -111 -290 -35 vhcurveto
            -129 -17 -17 -79 62 -15 rlineto
            50 -16 11 -18 -12 -55 -85 -396 rcurveline
            -147 -34 -87 -95 -99 hhcurveto
            -83 -38 62 117 25 hvcurveto
            return
          </CharString>
          <CharString index="282">
            rmoveto
            157 116 90 165 105 hvcurveto
            -175 17 64 -75 132 hhcurveto
            83 86 48 47 42 hvcurveto
            18 84 rlineto
            -9 -13 -29 -8 -25 hhcurveto
            -78 -42 22 224 -36 hvcurveto
            -13 86 324 536 rlineto
            -302 hlineto
            -15 -57 -43 -119 -42 -109 rrcurveto
            203 -30 -90 104 -186 hhcurveto
            -274 -212 -248 -356 -28 hvcurveto
            -281 -28 124 -172 218 hhcurveto
            15 495 rmoveto
            289 22 87 148 110 hhcurveto
            93 21 -99 -331 20 hvcurveto
            3 -84 rlineto
            -171 -83 -78 -74 -83 hhcurveto
            -91 -42 97 225 21 hvcurveto
            endchar
          </CharString>
          <CharString index="283">
            131 614 rlineto
            152 33 92 105 89 hhcurveto
            75 35 -64 -105 -22 hvcurveto
            -147 -702 313 0 130 612 rlineto
            153 34 90 106 90 hhcurveto
            75 35 -64 -111 -23 hvcurveto
            -97 -461 rlineto
            -171 -36 62 -81 140 hhcurveto
            -25 callsubr
            18 87 rlineto
            -24 -30 -43 -12 -33 hhcurveto
            -49 -18 33 68 15 hvcurveto
            90 420 rlineto
            226 49 -89 131 -201 hhcurveto
            -153 -130 -104 -161 -62 hvcurveto
            153 16 -82 112 -187 hhcurveto
            -157 -125 -94 -181 -72 hvcurveto
            56 265 -69 callsubr
            return
          </CharString>
          <CharString index="284">
            rmoveto
            232 188 82 133 102 hvcurveto
            15 89 rlineto
            -71 -77 -147 -54 -145 hhcurveto
            -142 -76 54 84 3 hvcurveto
            110 1 104 47 201 hhcurveto
            63 hlineto
            -2 197 rlineto
            -67 hlineto
            -191 -53 55 78 3 hvcurveto
            87 3 76 63 164 hhcurveto
            71 59 -11 -19 45 hvcurveto
            -39 -22 -24 -45 -45 vvcurveto
            -68 51 -56 83 74 56 58 78 119 -99 115 -304 -326 -181 -130 -180 -5 vhcurveto
            -4 -113 74 -88 156 -26 -195 -21 -133 -90 -4 -151 rrcurveto
            -156 -6 140 -103 256 hhcurveto
            endchar
          </CharString>
          <CharString index="285">
            701 1231 rmoveto
            2 -111 -157 -25 -113 -7 -13 -66 rcurveline
            1 14 16 2 24 hhcurveto
            101 70 -50 -85 hvcurveto
            -108 2 -81 -60 -88 hhcurveto
            -36 -31 7 13 -24 hvcurveto
            24 14 15 26 30 vvcurveto
            48 -36 36 -49 -51 -37 -38 -49 vhcurveto
            -105 1 126 -62 127 hhcurveto
            174 171 92 170 -1 hvcurveto
            -1 91 -66 72 -113 29 118 13 116 62 -2 110 rrcurveto
            121 -122 59 -121 -137 -123 -75 -145 -48 vhcurveto
            50 -20 rlineto
            74 39 57 37 73 hhcurveto
            82 47 -47 -54 1 hvcurveto
            return
          </CharString>
          <CharString index="286">
            rmoveto
            345 238 273 327 107 -27 94 -49 74 hvcurveto
            119 114 -66 69 -115 -110 rlineto
            68 -75 -103 39 -127 hhcurveto
            -345 -238 -273 -327 -108 28 -96 51 -75 hvcurveto
            -112 -107 65 -69 109 104 rlineto
            -66 75 102 -38 125 hhcurveto
            132 948 rmoveto
            74 48 -55 -114 14 hvcurveto
            -400 -381 rlineto
            240 11 89 310 164 hhcurveto
            -124 -840 rmoveto
            -72 -49 53 109 -15 hvcurveto
            399 380 rlineto
            -239 -12 -88 -303 -163 hhcurveto
            endchar
          </CharString>
          <CharString index="287">
            rmoveto
            -12 -66 -138 -28 -16 -78 139 0 -148 -904 -38 -227 -53 -88 -79 -21 rlinecurve
            16 21 9 27 30 vvcurveto
            74 -57 58 -70 -73 -59 -58 -77 -108 87 -80 139 248 195 187 592 102 vhcurveto
            100 579 239 -5 27 124 -252 -11 23 136 33 205 60 81 91 3 rlinecurve
            -24 -24 -14 -34 -37 vvcurveto
            -74 58 -58 72 75 61 59 77 113 -107 85 -176 -238 -163 -167 -306 -57 vhcurveto
            endchar
          </CharString>
          <CharString index="288">
            rmoveto
            102 93 59 67 45 hvcurveto
            18 88 rlineto
            -21 -33 -27 -11 -31 hhcurveto
            -51 -40 28 79 -38 hvcurveto
            -180 371 74 75 44 47 34 37 28 29 rlinecurve
            -61 20 53 -42 68 hhcurveto
            85 71 69 87 hvcurveto
            81 -1 -59 71 -96 hhcurveto
            -100 -65 -67 -147 -129 hvcurveto
            -268 -316 112 520 -468 -55 -17 -82 69 -16 50 -14 10 -19 -11 -54 rlinecurve
            -168 -786 315 0 103 481 143 -294 rlineto
            -144 59 65 -60 121 hhcurveto
            endchar
          </CharString>
          <CharString index="289">
            rmoveto
            -94 71 -73 112 179 132 115 316 226 vhcurveto
            562 786 89 126 37 27 124 17 rlinecurve
            18 86 -457 0 -18 -86 155 -18 -1 -22 -85 -127 rlinecurve
            -383 -575 -152 590 -31 117 4 17 165 18 rlinecurve
            18 86 -680 0 -18 -86 116 -17 23 -23 34 -114 rlinecurve
            275 -913 -68 -92 -60 -63 -69 -34 rlinecurve
            4 12 2 14 13 vvcurveto
            93 -71 68 -87 -93 -73 -74 -90 vhcurveto
            endchar
          </CharString>
          <CharString index="290">
            482 311 383 448 245 -106 208 -188 113 hvcurveto
            -6 40 43 -4 47 hhcurveto
            184 147 79 146 95 -57 86 -80 45 hvcurveto
            -82 hlineto
            9 -17 5 -30 -30 vvcurveto
            -157 -107 -134 -176 vhcurveto
            -119 -81 26 -148 hhcurveto
            -482 -307 -383 -448 -5 hvcurveto
            361 -112 rmoveto
            395 180 432 276 -98 callgsubr
            -405 -186 -422 -270 -174 -112 140 297 vhcurveto
            return
          </CharString>
          <CharString index="291">
            325 hlineto
            125 608 rlineto
            186 41 90 75 93 hhcurveto
            84 50 -65 -149 -31 hvcurveto
            -25 -119 -169 -786 -48 -210 rrcurveto
            329 hlineto
            7 32 218 1066 7 37 rrcurveto
            246 50 -107 115 -198 hhcurveto
            -175 -122 -104 -156 -69 hvcurveto
            179 20 -70 72 -143 hhcurveto
            -87 -86 -27 -36 -62 hvcurveto
            -18 -82 rlineto
            4 13 16 3 24 hhcurveto
            65 41 -36 -112 -21 hvcurveto
            -19 -104 -110 -489 -38 -148 rrcurveto
            endchar
          </CharString>
          <CharString index="292">
            rmoveto
            241 -123 135 -163 -141 -116 -82 -151 -66 vhcurveto
            157 693 -466 -52 -18 -82 70 -16 51 -14 9 -19 -11 -54 -76 callsubr
            182 0 120 107 rlineto
            -68 31 82 -61 135 hhcurveto
            313 222 308 374 hvcurveto
            -324 3 rmoveto
            -233 -92 -323 -192 -68 -45 33 39 -11 vhcurveto
            95 445 rlineto
            159 36 80 88 82 hhcurveto
            72 44 -58 -150 -1 hvcurveto
            return
          </CharString>
          <CharString index="293">
            14 -16 3 -48 54 -802 rcurveline
            223 hlineto
            137 176 119 200 69 171 26 -547 rcurveline
            218 hlineto
            273 278 285 394 198 vvcurveto
            101 -71 68 -95 -93 -72 -66 -91 -86 69 -69 86 vhcurveto
            3 3 0 3 hhcurveto
            -57 -179 -122 -182 -148 -168 rrcurveto
            -37 832 -292 -47 7 -137 -10 -203 -116 -222 -120 -191 rlinecurve
            return
          </CharString>
          <CharString index="294">
            64 92 56 19 56 41 46 hvcurveto
            474 8 305 380 443 vvcurveto
            373 100 callgsubr
            vhcurveto
            -2 -347 213 -276 369 -38 rrcurveto
            -141 -80 -79 -100 -101 vvcurveto
            -107 95 -75 133 vhcurveto
            59 574 rmoveto
            -174 -112 140 297 395 180 432 276 -98 callgsubr
            -405 -186 -422 -270 hvcurveto
            endchar
          </CharString>
          <CharString index="295">
            639 hlineto
            17 86 -120 17 -18 18 19 90 rlinecurve
            7 33 721 761 -169 -794 -19 -91 -21 -17 -133 -105 callgsubr
            -125 16 -18 18 19 91 71 callgsubr
            -18 -86 123 -17 16 -16 -20 -92 rlinecurve
            -7 -37 -721 -760 169 797 19 90 23 17 131 2 callsubr
            38 callgsubr
            endchar
          </CharString>
          <CharString index="296">
            rmoveto
            88 83 36 50 40 hvcurveto
            18 83 rlineto
            -14 -19 -28 -11 -29 hhcurveto
            -64 -44 60 92 60 22 61 34 47 hvcurveto
            318 26 217 260 313 vvcurveto
            267 95 callsubr
            -246 142 -181 241 -27 vhcurveto
            -135 -79 -72 -98 -103 vvcurveto
            -106 87 -79 136 vhcurveto
            57 573 rmoveto
            -87 -52 78 160 1 hvcurveto
            -43 callgsubr
            endchar
          </CharString>
          <CharString index="297">
            587 hlineto
            493 311 164 286 hvcurveto
            -287 654 rmoveto
            -174 -121 -122 -203 vhcurveto
            -117 -1 115 538 75 -2 rlineto
            161 -6 90 -82 -151 vvcurveto
            -82 -658 rmoveto
            -201 -138 -136 -295 -9 vhcurveto
            -77 -2 130 611 117 -2 rlineto
            162 -3 101 -96 -162 vvcurveto
            return
          </CharString>
          <CharString index="298">
            1437 501 rmoveto
            229 -189 150 -351 1 vhcurveto
            -168 hlineto
            75 353 19 88 26 16 145 20 rlinecurve
            18 86 -655 0 -18 -86 rlineto
            126 -18 17 -17 -19 -90 -217 -1022 rcurveline
            -19 -89 -22 -18 -136 -18 -19 -86 rcurveline
            665 hlineto
            426 296 193 308 hvcurveto
            return
          </CharString>
          <CharString index="299">
            389 -824 rmoveto
            78 -77 134 155 53 -36 rlineto
            -88 130 76 -28 98 hhcurveto
            139 141 90 212 103 hvcurveto
            -58 50 -50 -78 -57 -31 -55 1 rlinecurve
            -75 -59 25 64 -107 hvcurveto
            -68 41 552 580 18 84 -771 0 -97 -353 rlineto
            77 hlineto
            97 39 27 17 88 hhcurveto
            317 hlineto
            endchar
          </CharString>
          <CharString index="300">
            -86 630 0 19 86 rlineto
            -155 25 -17 14 13 64 70 343 rcurveline
            -52 37 74 -42 111 hhcurveto
            312 222 308 374 hvcurveto
            -323 3 rmoveto
            -233 -1 -91 -323 -193 hhcurveto
            -68 -45 33 39 -11 hvcurveto
            95 445 rlineto
            159 36 80 88 83 hhcurveto
            71 44 -58 -150 hvcurveto
            endchar
          </CharString>
          <CharString index="301">
            149 -1158 260 0 635 1142 98 175 32 28 116 16 rlinecurve
            18 86 -445 0 -18 -86 138 -21 15 -32 -87 -164 rlinecurve
            -462 -874 -94 886 -16 149 26 36 145 20 rlinecurve
            18 86 -661 0 -18 -86 103 -15 27 -27 21 -161 rlinecurve
            return
          </CharString>
          <CharString index="302">
            1107 -824 rmoveto
            103 427 rlineto
            -77 hlineto
            -112 -264 -97 -45 -269 -10 rrcurveto
            -243 -9 971 1264 17 81 -1050 0 -95 -391 rlineto
            78 hlineto
            101 222 69 51 244 -54 callgsubr
            -381 874 -50 callgsubr
            61 callgsubr
            endchar
          </CharString>
          <CharString index="303">
            rmoveto
            353 218 275 323 266 -177 194 -280 -352 -218 -276 -322 -266 177 -194 279 hvcurveto
            -2 111 rmoveto
            -90 -47 79 163 hvcurveto
            241 1 91 353 163 hhcurveto
            90 47 -79 -163 -241 -92 -353 -163 hvcurveto
            endchar
          </CharString>
          <CharString index="304">
            305 -250 rmoveto
            141 102 44 68 14 hvcurveto
            67 14 -83 44 -141 hhcurveto
            -73 hlineto
            -140 -103 -44 -67 -14 hvcurveto
            -68 -14 84 -44 139 hhcurveto
            72 61 rmoveto
            -42 hlineto
            -44 -20 20 31 6 hvcurveto
            30 6 30 19 43 hhcurveto
            42 hlineto
            44 20 -19 -30 -6 hvcurveto
            -31 -6 -30 -20 -43 hhcurveto
            return
          </CharString>
          <CharString index="305">
            662 0 19 85 -146 19 -16 19 18 87 rlinecurve
            100 469 170 -2 88 -2 20 -36 -6 -167 rlinecurve
            73 hlineto
            107 507 rlineto
            -73 hlineto
            -64 -163 -33 -34 -91 -3 rrcurveto
            -170 -1 120 567 174 -6 227 -11 50 -47 9 -228 rlinecurve
            78 hlineto
            endchar
          </CharString>
          <CharString index="306">
            rlinecurve
            -19 -86 436 0 18 86 -137 21 -12 25 27 139 rlinecurve
            172 873 491 -1144 279 0 261 1180 28 130 24 29 129 19 rlinecurve
            18 86 -435 0 -18 -86 rlineto
            137 -20 11 -25 -25 -133 -161 -827 rcurveline
            return
          </CharString>
          <CharString index="307">
            1432 1443 450 rmoveto
            163 -126 139 -251 27 vhcurveto
            234 20 206 103 1 210 rrcurveto
            204 2 -188 128 -393 hhcurveto
            -569 -107 callgsubr
            -90 -218 -1021 115 callsubr
            190 callsubr
            return
          </CharString>
          <CharString index="308">
            -43 -123 -122 rlinecurve
            -392 -387 -112 0 94 443 19 88 22 20 125 17 rlinecurve
            18 86 -632 0 -18 -86 129 -26 callgsubr
            -18 -88 -22 -19 -137 -18 rlinecurve
            -18 -86 631 0 18 86 -117 16 -14 20 19 89 rlinecurve
            return
          </CharString>
          <CharString index="309">
            rmoveto
            -1089 hlineto
            -19 -86 128 -18 16 -17 -19 -90 rlinecurve
            -217 -1022 -19 -89 -22 -18 -137 -18 rlinecurve
            -18 -86 669 0 18 86 -151 20 -18 17 19 87 rlinecurve
            241 1135 180 -7 247 -11 39 -46 7 -218 rlinecurve
            77 hlineto
            endchar
          </CharString>
          <CharString index="310">
            0 438 1455 rmoveto
            113 90 78 147 30 hvcurveto
            -97 hlineto
            -53 -11 -31 -23 -45 hhcurveto
            -27 -28 8 14 -35 92 callgsubr
            -31 hvcurveto
            97 hlineto
            53 12 30 23 46 hhcurveto
            27 27 -8 -14 36 hvcurveto
            32 -13 rlineto
            -17 44 43 -13 51 hhcurveto
            return
          </CharString>
          <CharString index="311">
            rmoveto
            3 -110 -157 -25 -113 -8 -14 -66 rcurveline
            1 14 16 2 24 hhcurveto
            101 70 -49 -85 hvcurveto
            -108 2 -81 -61 -88 hhcurveto
            -35 -31 7 13 -25 hvcurveto
            24 14 15 27 29 vvcurveto
            48 -35 36 -49 -51 -37 -38 -49 -105 127 -62 return
          </CharString>
          <CharString index="312">
            1250 1172 hmoveto
            103 427 rlineto
            -78 hlineto
            -111 -264 -98 -45 -268 -10 rrcurveto
            -243 -9 970 1264 17 81 -1049 0 -95 -391 rlineto
            78 hlineto
            100 222 69 51 245 -54 callgsubr
            return
          </CharString>
          <CharString index="313">
            -118 -129 -628 rcurveline
            -278 -57 -161 -136 -194 hhcurveto
            -204 -131 134 320 69 hvcurveto
            132 621 20 93 24 19 140 21 rlinecurve
            18 86 -637 0 -18 -86 117 -20 16 -20 -20 -93 rlinecurve
            return
          </CharString>
          <CharString index="314">
            -484 rmoveto
            86 85 32 46 44 hvcurveto
            18 83 rlineto
            -15 -26 -31 -10 -37 hhcurveto
            -62 -41 30 65 78 54 79 138 82 hvcurveto
            91 52 -95 0 -121 -56 rlineto
            -231 -115 -78 -86 -105 vvcurveto
            -93 83 -67 123 vhcurveto
            endchar
          </CharString>
          <CharString index="315">
            92 170 vhcurveto
            -2 92 -65 71 -113 29 118 13 115 62 -1 111 rrcurveto
            120 -123 59 -121 -137 -123 -74 -146 -48 vhcurveto
            50 -20 rlineto
            75 39 57 36 74 hhcurveto
            82 47 -46 -55 hvcurveto
            endchar
          </CharString>
          <CharString index="316">
            13 -16 4 -48 60 -802 rcurveline
            223 hlineto
            287 295 278 379 196 vvcurveto
            101 -72 68 -95 -92 -72 -66 -91 -86 70 -69 86 4 4 0 1 4 vhcurveto
            -58 -176 -126 -178 -153 -175 rrcurveto
            return
          </CharString>
          <CharString index="317">
            -11 -53 -76 -358 rcurveline
            -294 -62 148 7 callgsubr
            -61 -290 rmoveto
            40 190 rlineto
            8 27 39 7 39 hhcurveto
            119 59 -69 -122 -148 -82 -127 -120 -110 -48 86 175 37 hvcurveto
            endchar
          </CharString>
          <CharString index="318">
            -323 -41 -126 -596 rlineto
            -143 -33 -89 -104 -100 hhcurveto
            -78 -29 63 108 24 hvcurveto
            150 713 -325 -39 -125 -600 rlineto
            -141 -32 -89 -104 -100 hhcurveto
            -77 -28 64 107 22 hvcurveto
            148 return
          </CharString>
          <CharString index="319">
            rrcurveto
            198 4 136 83 142 hhcurveto
            35 31 -5 -8 28 hvcurveto
            -40 -20 -28 -40 -54 vvcurveto
            -75 53 -60 81 77 60 61 77 134 -138 103 -231 -285 -239 -161 -294 -6 vhcurveto
            -1 return
          </CharString>
          <CharString index="320">
            1218 1016 1455 rmoveto
            113 89 78 147 31 hvcurveto
            -97 hlineto
            -53 -12 -30 -23 -45 hhcurveto
            -27 -28 8 14 -36 hvcurveto
            -32 13 rlineto
            17 -43 -44 13 -51 hhcurveto
            -112 -6 callgsubr
            return
          </CharString>
          <CharString index="321">
            -277 173 -146 196 -20 vhcurveto
            -118 -124 121 callsubr
            40 -28 -46 -44 -40 -28 -67 -55 97 callsubr
            endchar
          </CharString>
          <CharString index="322">
            -128 -126 -618 rcurveline
            -277 -57 -161 -137 -194 hhcurveto
            -205 -130 134 320 68 hvcurveto
            133 621 20 92 24 19 138 22 rlinecurve
            17 86 -632 0 -18 -86 return
          </CharString>
          <CharString index="323">
            -93 -391 rlineto
            77 hlineto
            99 231 66 47 207 12 rrcurveto
            63 2 -241 -1135 -18 -86 -23 -19 -153 -19 rlinecurve
            -18 -86 676 0 18 86 rlineto
            -143 19 -17 18 19 87 98 return
          </CharString>
          <CharString index="324">
            rmoveto
            204 147 143 188 -1 hvcurveto
            153 -102 104 -170 -204 -146 -144 -187 -153 103 -104 169 vhcurveto
            7 76 rmoveto
            -43 -27 35 74 -2 hvcurveto
            124 -2 47 return
          </CharString>
          <CharString index="325">
            1066 204 289 rmoveto
            69 -49 128 -37 153 -6 rrcurveto
            -42 -197 73 0 42 196 rlineto
            315 6 155 149 183 vvcurveto
            123 -64 92 -172 81 vhcurveto
            return
          </CharString>
          <CharString index="326">
            119 0 148 295 1 0 193 325 -92 -495 -8 -45 -13 -12 -79 -9 rlinecurve
            -13 -60 395 0 55 callgsubr
            12 59 -345 0 -260 -487 rlineto
            return
          </CharString>
          <CharString index="327">
            778 1473 rmoveto
            -263 -6 -189 -157 -219 vvcurveto
            -131 79 -76 102 119 71 101 120 4 vhcurveto
            -86 12 -58 43 74 vvcurveto
            86 86 62 116 7 vhcurveto
            return
          </CharString>
          <CharString index="328">
            1528 rmoveto
            -208 -129 -143 -231 -8 hvcurveto
            105 callgsubr
            0 -9 -2 -5 hvcurveto
            94 hlineto
            12 29 7 38 37 vvcurveto
            154 -119 116 -172 vhcurveto
            return
          </CharString>
          <CharString index="329">
            -480 0 240 1127 19 89 19 19 128 14 rlinecurve
            18 86 -623 0 -18 -86 119 -13 15 -20 -19 -89 rlinecurve
            -239 -1127 -480 149 callsubr
          </CharString>
          <CharString index="330">
            0 -18 -86 rlineto
            151 -17 26 -35 -30 -132 -33 -139 -29 -120 -56 -202 -63 -239 -60 -183 -77 -109 rrcurveto
            76 -14 -61 51 -81 hhcurveto
            -98 -70 -76 -91 return
          </CharString>
          <CharString index="331">
            -44 -9 -31 -20 -46 hhcurveto
            -28 -29 7 12 -37 hvcurveto
            -34 11 rlineto
            14 -45 -45 11 -52 hhcurveto
            -115 -90 -67 -124 -25 hvcurveto
            99 hlineto
            45 10 30 20 46 hhcurveto
            28 29 -7 -12 return
          </CharString>
          <CharString index="332">
            -98 -462 rcurveline
            -202 -43 72 -144 201 hhcurveto
            135 143 72 183 84 hvcurveto
            -155 -11 81 -100 178 hhcurveto
            138 147 83 190 81 hvcurveto
            -2 -9 return
          </CharString>
          <CharString index="333">
            2015 rmoveto
            -86 -81 -30 -36 -52 hvcurveto
            -12 -57 rlineto
            13 31 55 13 49 hhcurveto
            74 35 -24 -35 -8 hvcurveto
            -7 -34 -43 -25 -88 -16 rrcurveto
            67 -44 147 25 90 44 return
          </CharString>
          <CharString index="334">
            -589 -357 rmoveto
            79 64 63 78 73 -56 56 -76 -79 -65 -62 -82 callsubr
            678 hmoveto
            80 63 63 78 73 -56 56 -75 -80 -86 callgsubr
            return
          </CharString>
          <CharString index="335">
            -271 -6 -316 -143 -231 -239 -72 rrcurveto
            -66 -310 633 0 126 375 rlineto
            -68 hlineto
            -104 -154 -110 -40 -342 -4 14 64 rcurveline
            return
          </CharString>
          <CharString index="336">
            131 619 rlineto
            154 34 102 138 callsubr
            return
          </CharString>
          <CharString index="337">
            101 0 -130 389 -214 0 -292 -389 rlineto
            return
          </CharString>
          <CharString index="338">
            71 70 87 81 -63 64 -84 -89 -72 -70 -88 -80 63 -64 return
          </CharString>
          <CharString index="339">
            -12 -23 29 hvcurveto
            30 -23 46 -35 48 -23 57 1 rlinecurve
            endchar
          </CharString>
          <CharString index="340">
            -89 -1 -51 -53 -10 -107 -7 -69 2 -87 6 -120 rrcurveto
            return
          </CharString>
        <CharString name=".notdef">
          2048 14 -494 rmoveto
          170 hlineto
          519 2444 rlineto
          -170 hlineto
          -108 171 callsubr
          -110 171 callsubr
          -109 171 callsubr
          -110 -2444 rmoveto
          171 hlineto
          519 2444 rlineto
          -171 hlineto
          endchar
        </CharString>
        <CharString name=".null">
          0 endchar
        </CharString>
        <CharString name="A">
          1431 1302 289 -105 callsubr
        </CharString>
        <CharString name="AE">
          1987 2152 1444 129 callsubr
        </CharString>
        <CharString name="AEacute">
          1987 1588 -95 callsubr
          -60 callsubr
          269 -403 129 callsubr
        </CharString>
        <CharString name="AEmacron">
          1987 1223 105 callsubr
          895 -324 129 callsubr
        </CharString>
        <CharString name="Aacute">
          1431 1115 -95 callsubr
          -65 callsubr
          -109 -1558 -105 callsubr
        </CharString>
        <CharString name="Abreve">
          1431 1060 161 callsubr
          -121 hhcurveto
          -103 -70 55 71 8 0 8 1 6 hvcurveto
          -83 -49 callgsubr
          155 hhcurveto
          242 -1284 -105 callsubr
        </CharString>
        <CharString name="Abreveacute">
          1431 1408 0 callsubr
          -166 -15 -71 rlineto
          267 -255 rmoveto
          197 150 89 143 24 22 callsubr
          287 -1241 -105 callsubr
        </CharString>
        <CharString name="Abrevecyrillic">
          1431 1016 1575 rmoveto
          179 155 95 201 59 hvcurveto
          -90 26 rlineto
          -141 -46 -111 -84 -126 hhcurveto
          -27 -24 4 6 -21 hvcurveto
          37 18 27 39 48 vvcurveto
          76 -55 -55 callgsubr
          286 -1286 -105 callsubr
        </CharString>
        <CharString name="Abrevedotbelow">
          1431 1060 161 callsubr
          -121 hhcurveto
          -103 -70 55 71 8 0 8 1 6 hvcurveto
          -83 -49 callgsubr
          155 hhcurveto
          242 -1284 rmoveto
          -40 callsubr
          21 callsubr
          -340 -742 -98 callsubr
          -91 callsubr
        </CharString>
        <CharString name="Abrevegrave">
          1431 766 94 callgsubr
          150 89 143 24 22 callsubr
          287 -1241 -105 callsubr
        </CharString>
        <CharString name="Abrevehookabove">
          1431 1099 226 callsubr
          16 80 rlinecurve
          78 17 -84 48 -120 hhcurveto
          -84 -485 rmoveto
          197 150 89 143 24 22 callsubr
          287 -1241 -105 callsubr
        </CharString>
        <CharString name="Abrevetilde">
          1431 1208 1812 rmoveto
          115 89 67 124 25 hvcurveto
          -99 hlineto
          -45 -9 -31 -19 -46 104 callsubr
          56 callgsubr
          27 29 45 callgsubr
          150 89 143 24 22 callsubr
          287 -1241 -105 callsubr
        </CharString>
        <CharString name="Acaron">
          1431 1283 -27 callsubr
          44 callsubr
          -83 -1573 -105 callsubr
        </CharString>
        <CharString name="Acircumflex">
          1431 830 40 callsubr
          569 -1259 -105 callsubr
        </CharString>
        <CharString name="Acircumflexacute">
          1431 1403 1848 rmoveto
          33 154 -678 -166 -14 -71 rlineto
          -57 -270 49 callsubr
          599 -1279 -105 callsubr
        </CharString>
        <CharString name="Acircumflexdotbelow">
          1431 830 40 callsubr
          569 -1259 rmoveto
          -40 callsubr
          21 callsubr
          -340 -742 -98 callsubr
          -91 callsubr
        </CharString>
        <CharString name="Acircumflexgrave">
          1431 761 1848 rmoveto
          625 -83 16 71 -609 166 rlineto
          -106 -507 49 callsubr
          599 -1279 -105 callsubr
        </CharString>
        <CharString name="Acircumflexhookabove">
          1431 1377 22 callgsubr
          -8 hvcurveto
          -7 -34 -41 -25 -84 -16 rrcurveto
          64 -44 140 25 86 44 17 62 callgsubr
          599 -1279 -105 callsubr
        </CharString>
        <CharString name="Acircumflextilde">
          1431 1203 1792 rmoveto
          116 89 67 124 25 hvcurveto
          -99 hlineto
          -44 -9 -31 -20 -46 104 callsubr
          11 -53 -72 callgsubr
          47 hhcurveto
          27 29 -41 callgsubr
          120 callsubr
          -80 callgsubr
          599 -1279 -105 callsubr
        </CharString>
        <CharString name="Acyrillic">
          1431 1302 289 -105 callsubr
        </CharString>
        <CharString name="Adblgrave">
          1431 872 1846 rmoveto
          -230 -7 hlineto
          219 -293 rlineto
          84 hlineto
          255 124 callgsubr
          109 -1257 -105 callsubr
        </CharString>
        <CharString name="Adieresis">
          1431 874 1573 rmoveto
          -5 callsubr
          344 hmoveto
          71 59 58 72 168 callsubr
          84 -1284 -105 callsubr
        </CharString>
        <CharString name="Adieresismacron">
          1431 760 4 callsubr
          61 -412 rmoveto
          61 57 39 55 12 hvcurveto
          54 12 29 callsubr
          61 hhcurveto
          359 hmoveto
          62 57 39 55 12 hvcurveto
          54 11 -40 40 -61 hhcurveto
          -14 hlineto
          -61 -57 -40 -54 -12 hvcurveto
          -55 -12 41 -39 61 hhcurveto
          123 -1263 -105 callsubr
        </CharString>
        <CharString name="Adotaccent">
          1431 1046 -13 callsubr
          256 -1273 -105 callsubr
        </CharString>
        <CharString name="Adotbelow">
          1431 1302 289 rmoveto
          -40 callsubr
          21 callsubr
          -340 -742 -98 callsubr
          -91 callsubr
        </CharString>
        <CharString name="Adotmacron">
          1431 754 1817 -38 callgsubr
          263 -393 rmoveto
          64 51 42 59 -1 hvcurveto
          58 -1 -54 42 -65 hhcurveto
          -65 -49 -42 -58 hvcurveto
          -59 1 53 -42 66 hhcurveto
          259 -1256 -105 callsubr
        </CharString>
        <CharString name="Agrave">
          1431 1012 86 callsubr
          197 -1258 -105 callsubr
        </CharString>
        <CharString name="Ahookabove">
          1431 1087 -48 callgsubr
          43 13 46 hhcurveto
          67 35 -26 -43 -50 163 callsubr
          215 -1593 -105 callsubr
        </CharString>
        <CharString name="Ainvertedbreve">
          1431 1056 118 callsubr
          -200 -6 -51 callgsubr
          -71 -9 0 -7 -2 -6 hvcurveto
          85 hlineto
          10 26 6 33 33 vvcurveto
          133 -1 -108 102 -155 hhcurveto
          246 -1611 -105 callsubr
        </CharString>
        <CharString name="Alphagreek">
          1431 1302 289 -105 callsubr
        </CharString>
        <CharString name="Alphatonosgreek">
          1431 1302 289 rmoveto
          -40 callsubr
          16 -149 -26 -36 -145 -20 rlinecurve
          -18 -86 661 0 -29 callgsubr
          -883 1155 93 callsubr
          -181 -860 rmoveto
          313 592 63 -592 rlineto
          endchar
        </CharString>
        <CharString name="Amacron">
          1431 750 9 callsubr
          -22 callsubr
          518 -1479 -105 callsubr
        </CharString>
        <CharString name="Aogonek">
          1431 1068 123 callgsubr
          -25 -10 -29 hhcurveto
          -64 -44 67 96 63 24 63 47 51 hvcurveto
          262 hlineto
          -29 callgsubr
          -40 callsubr
          rlineto
          16 -149 -26 -36 -145 -20 -18 -86 rcurveline
          297 112 callgsubr
          -527 1068 rmoveto
          313 592 63 -592 rlineto
          endchar
        </CharString>
        <CharString name="Aring">
          1431 802 1737 rmoveto
          -114 104 79 callgsubr
          -104 -91 -112 vhcurveto
          174 -16 rmoveto
          78 45 60 54 44 27 -32 -55 -79 -46 -60 -54 -43 -27 32 56 vhcurveto
          326 -1432 -105 callsubr
        </CharString>
        <CharString name="Aringacute">
          1431 1404 1851 rmoveto
          33 154 -678 -165 -15 -72 rlineto
          197 callsubr
          255 -1290 -105 callsubr
        </CharString>
        <CharString name="Aringbelow">
          1431 1302 289 rmoveto
          -40 callsubr
          21 callsubr
          -635 -886 rmoveto
          -111 3 118 -70 151 hhcurveto
          192 114 91 107 -4 hvcurveto
          112 -2 -118 69 -151 hhcurveto
          -193 -114 -90 -108 4 hvcurveto
          193 -16 rmoveto
          75 -2 49 56 60 hhcurveto
          48 31 -30 -52 2 hvcurveto
          -75 3 -50 -56 -59 hhcurveto
          -49 -31 30 52 -2 hvcurveto
          endchar
        </CharString>
        <CharString name="Atilde">
          1431 1156 1579 rmoveto
          89 -30 callgsubr
          -24 -26 -35 84 callsubr
          -89 -74 114 callsubr
          122 callsubr
          53 hhcurveto
          146 -1290 -105 callsubr
        </CharString>
        <CharString name="B">
          1432 1443 450 60 callsubr
        </CharString>
        <CharString name="Bdotaccent">
          1432 1016 -13 callsubr
          427 -1112 60 callsubr
        </CharString>
        <CharString name="Bdotbelow">
          200 callsubr
          -431 -604 -98 callsubr
          -91 callsubr
        </CharString>
        <CharString name="Becyrillic">
          1419 1444 470 rmoveto
          223 -187 148 -353 vhcurveto
          -175 hlineto
          106 503 221 -8 255 -10 42 -46 11 -217 rlinecurve
          78 hlineto
          69 381 -1154 0 -18 -86 rlineto
          135 -19 16 -16 -19 -90 -217 -1022 rcurveline
          -19 -89 -24 -17 -142 -19 -19 -86 rcurveline
          674 hlineto
          419 301 178 292 hvcurveto
          -360 8 rmoveto
          -205 -144 -160 -277 -10 vhcurveto
          -91 -3 135 636 rlineto
          105 hlineto
          170 -2 102 -83 -173 vvcurveto
          endchar
        </CharString>
        <CharString name="Betagreek">
          1432 1443 450 60 callsubr
        </CharString>
        <CharString name="Blinebelow">
          200 callsubr
          -744 -818 -88 callsubr
        </CharString>
        <CharString name="C">
          1418 609 568 -56 callsubr
          -38 callsubr
          -51 callsubr
        </CharString>
        <CharString name="Cacute">
          1418 1239 -95 callsubr
          -65 callsubr
          -926 -1279 -56 callsubr
          -38 callsubr
          -51 callsubr
        </CharString>
        <CharString name="Ccaron">
          1418 1407 -27 callsubr
          44 callsubr
          -900 -1294 -56 callsubr
          -38 callsubr
          -51 callsubr
        </CharString>
        <CharString name="Ccedilla">
          1418 609 568 -56 callsubr
          -4 -410 264 -228 328 -37 rrcurveto
          -115 -121 121 callsubr
          -95 callgsubr
          97 callsubr
          103 callsubr
          65 69 175 -1 158 43 91 65 rlinecurve
          -56 callgsubr
          -51 callsubr
        </CharString>
        <CharString name="Ccedillaacute">
          1418 1239 -95 callsubr
          -65 callsubr
          -926 -1279 -56 callsubr
          -4 -410 264 -228 328 -37 rrcurveto
          -115 -121 121 callsubr
          -95 callgsubr
          97 callsubr
          103 callsubr
          65 69 175 -1 158 43 91 65 rlinecurve
          -56 callgsubr
          -51 callsubr
        </CharString>
        <CharString name="Ccircumflex">
          1418 953 1548 rmoveto
          226 73 callgsubr
          -248 -980 -56 callsubr
          -38 callsubr
          -51 callsubr
        </CharString>
        <CharString name="Cdotaccent">
          1418 1170 -78 callsubr
          -86 callsubr
          -82 callsubr
          -561 -994 -56 callsubr
          -38 callsubr
          -51 callsubr
        </CharString>
        <CharString name="Checyrillic">
          1599 1102 210 rmoveto
          -19 -90 -27 -16 -148 -18 rrcurveto
          -18 -86 659 0 18 86 -125 16 -19 17 20 92 71 callgsubr
          -19 -86 rlineto
          123 -17 16 -17 -19 -91 -105 -494 rcurveline
          -26 -84 -80 -18 -96 hhcurveto
          -173 -78 105 225 48 hvcurveto
          46 211 19 87 19 22 125 13 rlinecurve
          18 86 -629 0 -18 -86 rlineto
          128 -15 15 -19 -19 -88 -42 -200 rcurveline
          -321 -68 161 -150 350 hhcurveto
          142 94 28 35 99 hvcurveto
          endchar
        </CharString>
        <CharString name="Chigreek">
          1393 338 304 11 callsubr
        </CharString>
        <CharString name="D">
          1588 -31 callsubr
          -63 callsubr
          endchar
        </CharString>
        <CharString name="Dbar">
          1588 199 692 rmoveto
          152 hlineto
          -103 -481 rlineto
          -19 -88 -22 -19 -137 -18 -18 -86 rcurveline
          574 hlineto
          591 436 329 495 391 -299 229 -449 hvcurveto
          -546 -107 callgsubr
          -89 -95 -445 rcurveline
          -152 hlineto
          1056 86 -50 callgsubr
          126 593 233 0 20 96 -232 0 118 558 61 -4 rlineto
          252 -14 132 -192 -262 vvcurveto
          endchar
        </CharString>
        <CharString name="Dcaron">
          1588 1266 136 callsubr
          285 -1038 19 callsubr
          -63 callsubr
          endchar
        </CharString>
        <CharString name="Dcircumflexbelow">
          1588 -31 callsubr
          -63 callsubr
          -889 -1342 -45 callsubr
          92 callsubr
        </CharString>
        <CharString name="Dcommaaccent">
          1588 -31 callsubr
          -63 callsubr
          -693 -1351 37 callsubr
          -62 42 callsubr
          26 -82 callgsubr
          -68 -46 -42 15 18 -32 hvcurveto
          -17 -28 callsubr
        </CharString>
        <CharString name="Ddotaccent">
          1588 1028 1562 rmoveto
          79 64 63 77 73 -56 57 -76 -79 -86 callgsubr
          625 -738 19 callsubr
          -63 callsubr
          endchar
        </CharString>
        <CharString name="Ddotbelow">
          1588 -31 callsubr
          -63 callsubr
          -653 -1032 -98 callsubr
          -91 callsubr
        </CharString>
        <CharString name="Decyrillic">
          1513 648 839 rmoveto
          39 145 54 220 31 130 rrcurveto
          458 hlineto
          -261 -1224 rlineto
          -623 hlineto
          113 133 91 214 98 382 rrcurveto
          867 -729 rmoveto
          -204 hlineto
          238 1123 20 90 24 17 135 18 rlinecurve
          18 86 -1265 0 -19 -86 rlineto
          155 -18 24 -35 -34 -149 -24 -103 -30 -116 -29 -96 -93 -362 -100 -238 -137 -131 rrcurveto
          -141 hlineto
          -100 -429 rlineto
          88 hlineto
          260 125 54 59 218 hhcurveto
          644 hlineto
          218 36 -55 -264 12 hvcurveto
          88 hlineto
          endchar
        </CharString>
        <CharString name="Deltagreek">
          1303 33 hmoveto
          1214 hlineto
          16 78 -197 1368 -250 0 -766 -1367 rlineto
          148 25 rmoveto
          571 1058 127 -1058 rlineto
          endchar
        </CharString>
        <CharString name="Djecyrillic">
          1759 1768 426 rmoveto
          269 -181 137 -294 -120 -87 -18 -27 -81 vhcurveto
          118 103 callgsubr
          71 391 -1252 0 216 callsubr
          464 rcurveline
          18 66 65 10 77 hhcurveto
          154 87 -84 -176 -304 -150 -298 -299 -156 hvcurveto
          25 -72 rlineto
          484 147 279 302 365 vvcurveto
          endchar
        </CharString>
        <CharString name="Dlinebelow">
          1588 -31 callsubr
          -63 callsubr
          -965 -1246 -88 callsubr
        </CharString>
        <CharString name="Dzecyrillic">
          1182 609 -29 56 callsubr
          endchar
        </CharString>
        <CharString name="Dzhecyrillic">
          1621 156 callsubr
          531 hlineto
          113 18 -31 -286 -12 hvcurveto
          87 hlineto
          286 109 30 31 114 hhcurveto
          531 hlineto
          18 86 -127 18 -18 17 19 90 rlinecurve
          217 1022 19 90 23 17 137 2 callsubr
          120 -17 18 -18 -19 -90 rlinecurve
          -240 -1124 -535 149 callsubr
        </CharString>
        <CharString name="E">
          1279 1467 1444 -100 callsubr
        </CharString>
        <CharString name="Eacute">
          1279 1061 33 callsubr
          111 -403 -100 callsubr
        </CharString>
        <CharString name="Ebreve">
          1279 1006 76 callsubr
          -103 -70 55 71 8 0 8 2 6 hvcurveto
          -84 -49 callgsubr
          156 hhcurveto
          461 -129 -100 callsubr
        </CharString>
        <CharString name="Ecaron">
          1279 1229 136 callsubr
          136 -418 -100 callsubr
        </CharString>
        <CharString name="Ecedilla">
          1279 572 -478 rmoveto
          174 105 -32 callgsubr
          90 94 1 3 471 -41 callsubr
          70 391 -1105 0 -49 callsubr
          -26 callsubr
          -138 -18 rlinecurve
          -18 -86 574 0 -137 -144 -52 callsubr
          123 callsubr
        </CharString>
        <CharString name="Ecedillabreve">
          1279 1006 76 callsubr
          -103 -70 55 71 8 0 8 2 6 hvcurveto
          -84 -49 callgsubr
          156 hhcurveto
          -434 -2051 rmoveto
          174 105 -32 callgsubr
          90 94 1 3 471 -41 callsubr
          70 391 -1105 0 -49 callsubr
          -26 callsubr
          -138 -18 rlinecurve
          -18 -86 574 0 -137 -144 -52 callsubr
          123 callsubr
        </CharString>
        <CharString name="Ecircumflex">
          1279 775 -74 callsubr
          52 callsubr
          789 -104 -100 callsubr
        </CharString>
        <CharString name="Ecircumflexacute">
          1279 1348 -71 callgsubr
          -56 -270 3 callsubr
          820 -124 -100 callsubr
        </CharString>
        <CharString name="Ecircumflexbelow">
          1279 1467 1444 rmoveto
          -1105 hlineto
          -49 callsubr
          -26 callsubr
          -138 -18 rlinecurve
          -18 -86 1150 -41 callsubr
          -1028 -1521 -45 callsubr
          95 31 callsubr
        </CharString>
        <CharString name="Ecircumflexdotbelow">
          1279 775 -74 callsubr
          52 callsubr
          789 -104 rmoveto
          -1105 hlineto
          -49 callsubr
          -26 callsubr
          -138 -18 rlinecurve
          -18 -86 1150 -41 callsubr
          17 callgsubr
        </CharString>
        <CharString name="Ecircumflexgrave">
          1279 706 1848 -37 callgsubr
          -106 -507 3 callsubr
          820 -124 -100 callsubr
        </CharString>
        <CharString name="Ecircumflexhookabove">
          1279 1321 10 callgsubr
          -7 -34 -42 107 callgsubr
          17 -81 48 -115 hhcurveto
          -689 -470 3 callsubr
          820 -124 -100 callsubr
        </CharString>
        <CharString name="Ecircumflextilde">
          1279 1148 1792 -4 callsubr
          224 callsubr
          37 hvcurveto
          34 -11 rlineto
          -15 45 45 -11 120 callsubr
          -79 callgsubr
          820 -124 -100 callsubr
        </CharString>
        <CharString name="Ecyrillic">
          1424 610 568 rmoveto
          38 2 38 4 37 vhcurveto
          586 -9 27 127 -597 -8 rlineto
          318 64 195 245 243 hhcurveto
          192 108 -125 -242 8 hvcurveto
          77 -27 callgsubr
          -219 hhcurveto
          -483 -346 -334 -486 -4 hvcurveto
          -38 callsubr
          -162 hhcurveto
          -211 -138 190 289 hvcurveto
          endchar
        </CharString>
        <CharString name="Edblgrave">
          1279 818 -76 callgsubr
          254 124 callgsubr
          329 -102 -100 callsubr
        </CharString>
        <CharString name="Edieresis">
          1279 819 -44 callsubr
          -44 callgsubr
          hvcurveto
          345 hmoveto
          -5 callsubr
          303 -129 -100 callsubr
        </CharString>
        <CharString name="Edotaccent">
          1279 991 -13 callsubr
          476 -118 -100 callsubr
        </CharString>
        <CharString name="Edotbelow">
          1279 1467 1444 rmoveto
          -1105 hlineto
          -49 callsubr
          -26 callsubr
          -138 -18 rlinecurve
          -18 -86 1150 -41 callsubr
          17 callgsubr
        </CharString>
        <CharString name="Efcyrillic">
          1975 195 677 rmoveto
          -267 227 -165 444 -27 vhcurveto
          -8 -39 -18 -83 -22 -19 -142 -15 rlinecurve
          -18 -86 642 0 18 86 rlineto
          -132 15 -17 19 17 83 8 37 rcurveline
          625 25 260 228 298 vvcurveto
          267 -228 166 -444 26 vhcurveto
          8 39 18 83 23 19 141 15 rlinecurve
          18 86 -642 0 -18 -86 rlineto
          133 -15 16 -19 -18 -83 -7 -37 rcurveline
          -624 -26 -260 -227 -298 vvcurveto
          374 -13 rmoveto
          251 131 172 355 30 vhcurveto
          -166 -786 rlineto
          -229 33 -91 123 177 vvcurveto
          1137 116 rmoveto
          -1 -252 -131 -171 -357 -31 rrcurveto
          166 787 231 -32 91 -124 1 -177 rlinecurve
          endchar
        </CharString>
        <CharString name="Egrave">
          1279 957 85 callsubr
          416 -103 -100 callsubr
        </CharString>
        <CharString name="Ehookabove">
          1279 1032 1882 rmoveto
          -93 -74 -35 -51 -41 hvcurveto
          3 callgsubr
          155 53 82 60 84 vvcurveto
          81 -76 60 -106 vhcurveto
          435 -438 -100 callsubr
        </CharString>
        <CharString name="Einvertedbreve">
          1279 1001 118 callsubr
          -200 -6 hvcurveto
          84 hlineto
          93 17 78 55 122 hhcurveto
          102 71 -55 -71 -9 -1 -7 -1 -6 hvcurveto
          84 hlineto
          10 26 6 33 33 vvcurveto
          133 -1 -107 102 -156 hhcurveto
          466 -456 -100 callsubr
        </CharString>
        <CharString name="Elcyrillic">
          1543 223 -28 rmoveto
          220 115 227 511 133 hvcurveto
          70 257 48 193 40 175 rrcurveto
          436 hlineto
          -239 -1124 -20 -91 -21 -17 -132 -105 callgsubr
          -125 16 -19 18 19 91 rlinecurve
          218 1022 19 91 24 17 135 17 rlinecurve
          18 86 -1244 223 callsubr
          -100 67 -70 113 hvcurveto
          endchar
        </CharString>
        <CharString name="Emacron">
          1279 696 105 callsubr
          737 -324 -100 callsubr
        </CharString>
        <CharString name="Emacronacute">
          1279 1353 0 callsubr
          -58 callgsubr
          791 -263 -100 callsubr
        </CharString>
        <CharString name="Emacrongrave">
          1279 711 1868 rmoveto
          625 91 callgsubr
          791 -263 -100 callsubr
        </CharString>
        <CharString name="Emcyrillic">
          1855 897 1444 15 callsubr
        </CharString>
        <CharString name="Encyrillic">
          1632 589 211 rmoveto
          -81 callsubr
          102 callsubr
          endchar
        </CharString>
        <CharString name="Eogonek">
          1279 935 -484 rmoveto
          89 72 35 51 37 hvcurveto
          17 83 rlineto
          -15 -17 -26 -10 -29 hhcurveto
          -64 -43 67 96 63 24 63 47 51 hvcurveto
          163 hlineto
          103 427 rlineto
          -78 hlineto
          -110 -262 -81 -48 -259 -10 rrcurveto
          -210 -8 124 589 193 -1 90 -2 19 -37 -5 -166 rlinecurve
          74 hlineto
          107 506 rlineto
          -73 hlineto
          -65 -162 -34 -35 -92 -2 rrcurveto
          -193 -2 119 558 197 -7 231 -10 48 -47 9 -228 rlinecurve
          78 hlineto
          70 391 -1105 0 -18 -86 rlineto
          129 -18 15 -18 -19 -89 -217 -1022 rcurveline
          -19 -88 -22 -19 -138 -18 -18 -86 rcurveline
          884 hlineto
          -147 -84 -84 -107 -111 vvcurveto
          -107 94 -75 133 vhcurveto
          endchar
        </CharString>
        <CharString name="Epsilongreek">
          1279 1467 1444 -100 callsubr
        </CharString>
        <CharString name="Epsilontonosgreek">
          1676 1864 1444 rmoveto
          -1104 hlineto
          -19 -86 129 -18 16 -18 -19 -89 rlinecurve
          -218 -1022 -1 callsubr
          1149 0 103 427 rlineto
          -77 hlineto
          -111 -262 -80 -48 -259 -10 rrcurveto
          -211 -8 124 589 193 -1 90 -2 20 -37 -5 -166 rlinecurve
          73 hlineto
          107 506 rlineto
          -73 hlineto
          -65 -162 -34 -35 -92 -2 rrcurveto
          -193 -2 119 558 198 -7 230 -10 48 -47 10 -228 rlinecurve
          77 hlineto
          -1424 391 93 callsubr
          endchar
        </CharString>
        <CharString name="Ercyrillic">
          1395 718 hmoveto
          14 callsubr
        </CharString>
        <CharString name="Ereversedcyrillic">
          1464 423 1351 rmoveto
          -80 -343 rlineto
          78 hlineto
          244 97 141 106 166 hhcurveto
          232 107 -218 -301 hvcurveto
          -17 -1 -17 -17 vvcurveto
          -582 9 -27 -129 598 8 rlineto
          -321 -45 -181 -271 -281 hhcurveto
          -212 -113 138 208 -4 hvcurveto
          -78 hlineto
          -50 -336 rlineto
          -60 71 197 -62 207 hhcurveto
          523 348 347 462 436 -301 255 -390 -157 -163 -45 -76 -100 hvcurveto
          endchar
        </CharString>
        <CharString name="Escyrillic">
          1418 609 568 -56 callsubr
          -38 callsubr
          -51 callsubr
        </CharString>
        <CharString name="Etagreek">
          1632 589 211 rmoveto
          -81 callsubr
          102 callsubr
          endchar
        </CharString>
        <CharString name="Etatonosgreek">
          2033 990 211 rmoveto
          -81 callsubr
          102 callsubr
          -620 1233 93 callsubr
          endchar
        </CharString>
        <CharString name="Etilde">
          1279 1101 23 callgsubr
          -24 hvcurveto
          -26 20 rlineto
          32 -42 -44 19 -52 hhcurveto
          -89 -74 -61 -211 -25 hvcurveto
          85 hlineto
          87 44 callgsubr
          366 -135 -100 callsubr
        </CharString>
        <CharString name="Etildebelow">
          1279 1467 1444 rmoveto
          -1105 hlineto
          -49 callsubr
          -26 callsubr
          -138 -18 rlinecurve
          -18 -86 1150 -41 callsubr
          -681 -1490 rmoveto
          98 -45 callgsubr
          -39 hhcurveto
          -28 75 callsubr
          17 89 callgsubr
          58 1 rlinecurve
          endchar
        </CharString>
        <CharString name="F">
          1200 1443 1444 rmoveto
          -1080 hlineto
          -18 -86 130 -26 callgsubr
          -1 callsubr
          198 callsubr
        </CharString>
        <CharString name="Fdotaccent">
          1200 1004 -78 callsubr
          -86 callsubr
          -82 callsubr
          439 -118 rmoveto
          -1080 hlineto
          -18 -86 130 -26 callgsubr
          -1 callsubr
          198 callsubr
        </CharString>
        <CharString name="G">
          1569 242 652 -42 callsubr
        </CharString>
        <CharString name="Gacute">
          1569 1233 -95 callsubr
          -60 callsubr
          -1286 -1195 -42 callsubr
        </CharString>
        <CharString name="Gammagreek">
          1217 1466 1444 rmoveto
          -1102 hlineto
          -18 -86 135 -19 17 -16 -19 -90 rlinecurve
          -217 -1022 -19 -89 -24 -17 -143 -19 rlinecurve
          -19 -86 678 0 18 86 -151 20 -18 17 18 87 rlinecurve
          241 1135 188 -7 245 -11 38 -46 7 -218 rlinecurve
          76 hlineto
          endchar
        </CharString>
        <CharString name="Gbreve">
          1569 1178 76 callsubr
          -102 -71 55 71 8 1 8 1 6 hvcurveto
          -84 -49 callgsubr
          156 hhcurveto
          -936 -921 -42 callsubr
        </CharString>
        <CharString name="Gcaron">
          1569 1401 -48 callsubr
          98 callsubr
          -1261 -1210 -42 callsubr
        </CharString>
        <CharString name="Gcircumflex">
          1569 947 -74 callsubr
          -194 0 -251 -299 rlineto
          -609 -896 -42 callsubr
        </CharString>
        <CharString name="Gcommaaccent">
          1569 242 652 rmoveto
          -446 -4 322 -234 369 hhcurveto
          183 201 51 77 108 hvcurveto
          85 399 18 85 20 21 121 16 rlinecurve
          18 85 -589 0 -18 -85 rlineto
          136 -17 12 -19 -18 -85 -77 -370 rcurveline
          -26 -36 -65 -14 -62 hhcurveto
          -212 -143 180 298 419 227 367 299 193 108 -125 -242 7 hvcurveto
          78 -27 callgsubr
          -220 hhcurveto
          -484 -347 -334 -486 -4 hvcurveto
          558 -1129 rmoveto
          173 -35 callsubr
          42 callgsubr
          82 hhcurveto
          endchar
        </CharString>
        <CharString name="Gdotaccent">
          1569 1164 -78 callsubr
          110 callsubr
          -922 -910 -42 callsubr
        </CharString>
        <CharString name="Geacutecyrillic">
          1197 1028 33 callsubr
          125 -403 202 callsubr
        </CharString>
        <CharString name="Gecyrillic">
          1197 1448 1444 202 callsubr
        </CharString>
        <CharString name="Germandbls">
          1564 561 hmoveto
          282 1346 157 -7 rlineto
          225 -9 87 -88 -148 vvcurveto
          -137 -97 -90 -162 -19 vhcurveto
          -47 -214 rlineto
          173 -73 80 -115 -147 vvcurveto
          -137 -79 -79 -116 -125 -86 105 204 8 vhcurveto
          -79 hlineto
          -63 -318 rlineto
          -59 70 132 -43 151 hhcurveto
          263 229 155 278 190 -91 153 -174 92 hvcurveto
          177 17 147 99 176 vvcurveto
          198 -170 114 -331 vhcurveto
          -753 hlineto
          -18 -86 rlineto
          130 -18 17 -19 -18 -88 -215 -1022 rcurveline
          -19 -90 -23 -17 -139 -18 -17 -86 rcurveline
          endchar
        </CharString>
        <CharString name="Geupturncyrillic">
          1178 1407 1338 rmoveto
          97 434 rlineto
          -88 hlineto
          -268 -124 -58 -60 -211 hhcurveto
          -664 hlineto
          -19 -86 127 -18 17 -17 -20 -90 rlinecurve
          -216 -1022 -19 -89 -22 -18 -137 -18 rlinecurve
          -18 -86 667 0 18 86 rlineto
          -136 19 -31 18 18 87 240 1128 rcurveline
          endchar
        </CharString>
        <CharString name="Gmacron">
          1569 868 105 callsubr
          -660 -1116 -42 callsubr
        </CharString>
        <CharString name="H">
          1632 589 211 rmoveto
          -81 callsubr
          102 callsubr
          endchar
        </CharString>
        <CharString name="Hacyrillic">
          1393 338 304 11 callsubr
        </CharString>
        <CharString name="Hardsigncyrillic">
          1627 1696 501 rmoveto
          229 -188 150 -352 1 vhcurveto
          -167 hlineto
          74 353 19 88 27 16 144 20 rlinecurve
          18 86 -908 0 -91 -380 rlineto
          80 hlineto
          102 237 57 32 206 9 rrcurveto
          29 1 -241 -1133 rlineto
          -19 -88 -21 -18 -140 -18 -18 -86 rcurveline
          668 hlineto
          425 296 193 308 hvcurveto
          -359 10 116 callsubr
          -91 -3 144 677 97 -1 rlineto
          171 -2 102 -86 -177 vvcurveto
          endchar
        </CharString>
        <CharString name="Hbar">
          1632 589 211 rmoveto
          100 473 545 0 -101 -473 -18 -90 -22 -19 -129 -16 rlinecurve
          -19 -86 636 0 18 86 -128 17 -16 18 19 90 rlinecurve
          173 815 152 0 20 95 -151 0 23 112 19 90 24 18 135 17 rlinecurve
          19 86 -636 0 -18 -86 123 -16 13 -19 -19 -90 rlinecurve
          -24 -112 -545 0 24 112 18 88 23 20 129 17 rlinecurve
          18 86 -635 0 -19 -86 130 -18 14 -18 -19 -89 rlinecurve
          -24 -112 -151 0 -20 -95 151 0 -173 -815 -1 callsubr
          635 0 18 86 -120 17 -15 19 19 89 rlinecurve
          123 579 rmoveto
          50 236 545 0 -50 -236 rlineto
          endchar
        </CharString>
        <CharString name="Hbrevebelow">
          1632 589 211 rmoveto
          -81 callsubr
          102 callsubr
          167 -673 rmoveto
          194 34 callgsubr
          -1 hvcurveto
          7 1 8 2 6 vhcurveto
          -73 callgsubr
          160 hhcurveto
          endchar
        </CharString>
        <CharString name="Hcaron">
          1632 1411 -48 callsubr
          98 callsubr
          -924 -1651 rmoveto
          -81 callsubr
          102 callsubr
          endchar
        </CharString>
        <CharString name="Hcedilla">
          1632 262 -478 rmoveto
          174 105 -31 callgsubr
          91 95 1 2 265 0 18 86 -120 17 -17 19 19 89 rlinecurve
          -81 callsubr
          268 0 -136 -144 -15 -72 rlineto
          1 2 27 1 4 hhcurveto
          72 39 -28 -46 -44 -40 -28 -67 -55 -74 callgsubr
        </CharString>
        <CharString name="Hcircumflex">
          1632 957 1547 rmoveto
          226 142 160 -142 91 0 -128 299 -194 0 -251 -299 rlineto
          -272 -1336 rmoveto
          -81 callsubr
          102 callsubr
          endchar
        </CharString>
        <CharString name="Hdieresis">
          1632 1001 -44 callsubr
          67 -50 52 -69 -71 -59 -57 -73 -1 hvcurveto
          -67 51 -52 69 vhcurveto
          46 callsubr
          52 -69 -72 -58 -57 -73 -1 hvcurveto
          -67 51 -52 69 vhcurveto
          -757 -1362 rmoveto
          -81 callsubr
          102 callsubr
          endchar
        </CharString>
        <CharString name="Hdotaccent">
          1632 1174 1562 rmoveto
          78 65 62 78 72 -57 57 -75 -80 -64 -62 -79 -72 56 -56 77 hvcurveto
          -585 -1351 rmoveto
          -81 callsubr
          102 callsubr
          endchar
        </CharString>
        <CharString name="Hdotbelow">
          1632 589 211 rmoveto
          -81 callsubr
          102 callsubr
          170 -369 -98 callsubr
          -91 callsubr
        </CharString>
        <CharString name="I">
          747 589 211 -93 callsubr
        </CharString>
        <CharString name="IAcyrillic">
          1468 351 980 rmoveto
          -158 94 -101 155 -41 vhcurveto
          -233 -283 -136 -162 -117 -127 -80 -27 rlinecurve
          -18 -81 389 0 500 617 rlineto
          -1 10 11 0 12 hhcurveto
          119 hlineto
          -86 -405 -19 -91 -24 -17 -130 -105 callgsubr
          rlineto
          -127 17 -17 16 20 92 217 1022 rcurveline
          19 91 22 17 136 17 19 86 rcurveline
          -662 hlineto
          -467 -245 -181 -283 hvcurveto
          352 -13 rmoveto
          216 135 148 280 10 vhcurveto
          93 3 -132 -624 -110 1 rlineto
          -165 2 -101 87 157 vvcurveto
          endchar
        </CharString>
        <CharString name="IJ">
          1498 1349 270 16 callgsubr
          -19 -89 rlinecurve
          -201 150 callsubr
          -760 -59 -93 callsubr
        </CharString>
        <CharString name="IJacute">
          1498 797 95 callgsubr
          8 vlineto
          444 hmoveto
          -201 -299 -65 callsubr
          -484 -1577 16 callgsubr
          -19 -89 rlinecurve
          -201 150 callsubr
          -760 -59 -93 callsubr
        </CharString>
        <CharString name="IUcyrillic">
          2289 50 hmoveto
          639 hlineto
          17 86 rlineto
          -120 17 -18 18 19 90 100 473 rcurveline
          211 hlineto
          -1 -18 0 -18 -17 vvcurveto
          -366 231 -293 424 474 334 377 465 365 -232 294 -424 -1 vhcurveto
          -418 -1 -309 -293 -67 -388 rrcurveto
          -200 hlineto
          94 443 19 90 23 17 131 2 callsubr
          38 callgsubr
          1483 -1 rmoveto
          -189 -93 173 270 370 150 461 285 189 92 -172 -271 -370 -151 -461 -283 hvcurveto
          endchar
        </CharString>
        <CharString name="Iacute">
          747 797 95 callgsubr
          8 vlineto
          -504 -1636 -93 callsubr
        </CharString>
        <CharString name="Ibreve">
          747 742 1573 rmoveto
          189 114 127 200 5 hvcurveto
          -84 hlineto
          -93 -17 -78 -55 -121 hhcurveto
          -103 -70 55 72 7 0 8 1 6 hvcurveto
          -83 hlineto
          -10 -26 -7 -33 -33 vvcurveto
          -133 1 108 -102 155 hhcurveto
          -153 -1362 -93 callsubr
        </CharString>
        <CharString name="Icaron">
          747 965 1863 rmoveto
          -226 -141 -161 141 -65 callgsubr
          -479 -1652 -93 callsubr
        </CharString>
        <CharString name="Icircumflex">
          747 512 40 callsubr
          174 -1337 -93 callsubr
        </CharString>
        <CharString name="Icyrillic">
          747 589 211 -93 callsubr
        </CharString>
        <CharString name="Idblgrave">
          747 555 1846 rmoveto
          -230 -6 hlineto
          218 -293 rlineto
          84 hlineto
          255 299 rmoveto
          -218 -6 hlineto
          133 -293 rlineto
          78 hlineto
          -286 -1336 -93 callsubr
        </CharString>
        <CharString name="Idieresis">
          747 134 callsubr
        </CharString>
        <CharString name="Idieresisacute">
          747 1090 0 callsubr
          -166 -16 -71 rlineto
          99 -233 rmoveto
          62 57 39 55 11 hvcurveto
          55 13 -41 39 -61 hhcurveto
          -14 hlineto
          -61 -57 -39 -55 -12 hvcurveto
          -55 -11 39 -39 62 hhcurveto
          359 hmoveto
          61 58 39 55 11 hvcurveto
          -97 callgsubr
          -61 -57 -39 -55 -13 hvcurveto
          -55 -11 40 -39 62 hhcurveto
          -272 -1341 -93 callsubr
        </CharString>
        <CharString name="Idotaccent">
          747 728 1562 rmoveto
          79 64 63 78 72 -86 callsubr
          -82 callsubr
          -139 -1351 -93 callsubr
        </CharString>
        <CharString name="Idotbelow">
          747 589 211 rmoveto
          80 callsubr
          78 callsubr
          -99 callgsubr
          -272 -369 rmoveto
          -79 -65 -64 -77 -72 57 -58 75 80 47 callsubr
        </CharString>
        <CharString name="Iecyrillic">
          1279 1467 1444 -100 callsubr
        </CharString>
        <CharString name="Igrave">
          747 694 1847 rmoveto
          -275 -9 hlineto
          287 -291 rlineto
          82 hlineto
          -199 -1336 -93 callsubr
        </CharString>
        <CharString name="Ihookabove">
          747 769 1882 rmoveto
          -93 -74 -34 -52 -41 hvcurveto
          -14 -62 rlineto
          17 28 43 13 46 hhcurveto
          67 36 -25 -44 -49 -51 -50 -92 -52 hvcurveto
          90 hlineto
          155 54 81 59 84 vvcurveto
          82 -76 59 -105 vhcurveto
          -180 -1671 -93 callsubr
        </CharString>
        <CharString name="Iicyrillic">
          1644 50 hmoveto
          188 callsubr
        </CharString>
        <CharString name="Iinvertedbreve">
          747 738 118 callsubr
          -199 -6 hvcurveto
          84 hlineto
          93 17 78 54 122 hhcurveto
          102 70 -54 -72 -8 0 -8 -1 -6 hvcurveto
          84 hlineto
          10 26 6 34 32 vvcurveto
          134 -1 -108 101 -155 hhcurveto
          -149 -1689 -93 callsubr
        </CharString>
        <CharString name="Iishortcyrillic">
          1644 1160 1575 rmoveto
          178 37 callgsubr
          -24 4 6 -22 hvcurveto
          37 18 28 39 48 vvcurveto
          76 -56 56 -69 -81 -55 -59 -82 -110 90 -93 159 vhcurveto
          -1110 -1575 rmoveto
          188 callsubr
        </CharString>
        <CharString name="Imacron">
          747 433 1612 rmoveto
          563 hlineto
          -22 callsubr
          123 -1558 -93 callsubr
        </CharString>
        <CharString name="Iocyrillic">
          1279 819 -44 callsubr
          -44 callgsubr
          hvcurveto
          345 hmoveto
          -5 callsubr
          303 -129 -100 callsubr
        </CharString>
        <CharString name="Iogonek">
          747 331 -484 72 callgsubr
          67 96 63 23 63 47 51 hvcurveto
          259 hlineto
          18 86 -99 callgsubr
          80 callsubr
          rlineto
          130 -14 14 -22 -19 -89 -217 -1022 115 callsubr
          283 112 callgsubr
          endchar
        </CharString>
        <CharString name="Iotadieresisgreek">
          747 134 callsubr
        </CharString>
        <CharString name="Iotagreek">
          747 589 211 -93 callsubr
        </CharString>
        <CharString name="Iotatonosgreek">
          1156 997 211 rmoveto
          217 1022 19 88 22 19 138 18 rlinecurve
          18 86 -644 0 -19 -86 78 callsubr
          -129 18 -15 18 19 89 rlinecurve
          -627 1233 93 callsubr
          endchar
        </CharString>
        <CharString name="Itilde">
          747 838 1579 rmoveto
          89 1 74 60 25 213 rrcurveto
          -85 hlineto
          -88 -15 -24 -25 -35 hhcurveto
          -24 -21 10 20 -25 hvcurveto
          -25 21 rlineto
          31 -43 -43 19 -52 hhcurveto
          -89 -74 -60 -212 -25 hvcurveto
          85 hlineto
          87 15 24 25 35 hhcurveto
          24 20 -10 -20 26 hvcurveto
          25 -21 rlineto
          -31 43 42 -20 53 hhcurveto
          -249 -1368 -93 callsubr
        </CharString>
        <CharString name="Itildebelow">
          747 589 211 rmoveto
          80 callsubr
          78 callsubr
          -99 callgsubr
          -162 -648 rmoveto
          98 80 66 233 27 hvcurveto
          -89 hlineto
          -99 -17 -27 -28 -39 hhcurveto
          -28 -1 -23 13 -29 22 -12 callgsubr
          30 -23 46 -35 48 -23 58 1 rlinecurve
          endchar
        </CharString>
        <CharString name="J">
          750 602 270 36 callsubr
          74 callsubr
        </CharString>
        <CharString name="Jacute">
          750 790 33 callsubr
          -483 -1577 36 callsubr
          74 callsubr
        </CharString>
        <CharString name="Jcircumflex">
          750 504 -74 callsubr
          52 callsubr
          195 -1278 36 callsubr
          74 callsubr
        </CharString>
        <CharString name="Jecyrillic">
          750 602 270 36 callsubr
          74 callsubr
        </CharString>
        <CharString name="K">
          1443 590 211 -18 callsubr
        </CharString>
        <CharString name="Kaacutecyrillic">
          1443 1220 -95 callsubr
          90 -92 callgsubr
          -925 -1636 -18 callsubr
        </CharString>
        <CharString name="Kacute">
          1443 1220 -95 callsubr
          90 -92 callgsubr
          -925 -1636 -18 callsubr
        </CharString>
        <CharString name="Kacyrillic">
          1443 590 211 -18 callsubr
        </CharString>
        <CharString name="Kappagreek">
          1443 590 211 -18 callsubr
        </CharString>
        <CharString name="Kcaron">
          1443 1388 -48 callsubr
          -65 callgsubr
          -900 -1651 -18 callsubr
        </CharString>
        <CharString name="Kcommaaccent">
          133 callsubr
          144 -688 rmoveto
          173 -35 callsubr
          42 -25 -42 -44 -42 -26 -69 -46 -42 15 18 -32 hvcurveto
          -16 -28 callsubr
        </CharString>
        <CharString name="Kdotbelow">
          133 callsubr
          184 -369 -98 callsubr
          -91 callsubr
        </CharString>
        <CharString name="Klinebelow">
          133 callsubr
          -128 -583 rmoveto
          581 hlineto
          34 159 rlineto
          -582 hlineto
          endchar
        </CharString>
        <CharString name="L">
          -11 callsubr
          endchar
        </CharString>
        <CharString name="Lacute">
          1204 794 -95 callsubr
          -65 callsubr
          51 -1847 rmoveto
          -36 callsubr
          -16 callsubr
          endchar
        </CharString>
        <CharString name="Lambdagreek">
          1453 1313 271 rmoveto
          -152 1174 -257 0 -641 -1156 -91 -164 -31 -23 -120 -16 rlinecurve
          -18 -86 451 0 19 86 -149 21 -12 28 98 184 rlinecurve
          451 847 98 -893 14 -136 -21 -32 -149 -19 rlinecurve
          -18 -86 665 0 18 86 -112 14 -24 27 -19 144 rlinecurve
          endchar
        </CharString>
        <CharString name="Lcaron">
          1204 1180 1114 rmoveto
          289 435 -242 0 -136 -435 rlineto
          50 -1114 rmoveto
          -36 callsubr
          -16 callsubr
          endchar
        </CharString>
        <CharString name="Lcircumflexbelow">
          -11 callsubr
          278 -468 30 callsubr
        </CharString>
        <CharString name="Lcommaaccent">
          -11 callsubr
          475 -477 rmoveto
          173 -35 callsubr
          42 callgsubr
          82 hhcurveto
          endchar
        </CharString>
        <CharString name="Ldot">
          -11 callsubr
          1055 690 rmoveto
          94 74 74 91 86 -66 67 -88 -94 -84 callgsubr
          endchar
        </CharString>
        <CharString name="Ldotbelow">
          -11 callsubr
          515 -158 -98 callsubr
          76 79 47 callsubr
        </CharString>
        <CharString name="Ldotbelowmacron">
          1204 430 1611 rmoveto
          563 hlineto
          -22 callsubr
          678 -1768 rmoveto
          -36 callsubr
          -16 callsubr
          515 -158 -98 callsubr
          76 79 47 callsubr
        </CharString>
        <CharString name="Ljecyrillic">
          2136 43 142 rmoveto
          -100 67 -70 113 220 115 227 511 133 vhcurveto
          70 257 48 193 40 175 rrcurveto
          404 hlineto
          -239 -1125 rlineto
          -18 -88 -24 -17 -146 -19 -18 -86 rcurveline
          676 hlineto
          425 296 193 308 229 -188 151 -352 hvcurveto
          -168 hlineto
          75 353 19 88 27 16 144 20 rlinecurve
          18 86 -1224 223 callsubr
          hvcurveto
          1803 369 116 callsubr
          -91 -3 143 677 98 -1 rlineto
          171 -2 102 -86 -177 vvcurveto
          endchar
        </CharString>
        <CharString name="Llinebelow">
          -11 callsubr
          202 -372 -88 callsubr
        </CharString>
        <CharString name="Lslash">
          1204 181 614 rmoveto
          162 42 -95 -445 -18 -88 -22 -19 -137 -18 rlinecurve
          -19 -86 1089 0 -36 callsubr
          138 651 338 88 24 103 -340 -88 80 380 19 88 23 18 145 20 rlinecurve
          18 85 -652 0 -18 -86 128 -17 15 -22 -20 -96 rlinecurve
          -99 -464 -160 -42 rlineto
          endchar
        </CharString>
        <CharString name="M">
          1855 897 1444 15 callsubr
        </CharString>
        <CharString name="Macute">
          1855 1357 -95 callsubr
          -60 callsubr
          -755 -403 15 callsubr
        </CharString>
        <CharString name="Mdotaccent">
          1855 1288 -78 callsubr
          -86 callsubr
          -82 callsubr
          -391 -118 15 callsubr
        </CharString>
        <CharString name="Mdotbelow">
          1855 897 1444 rmoveto
          -522 hlineto
          -18 -86 126 -17 14 -35 -27 -113 rlinecurve
          -218 -929 -32 -129 -25 -31 -136 -18 rlinecurve
          -18 -86 439 0 18 86 -132 18 -11 28 29 133 rlinecurve
          191 910 163 -1175 174 0 219 420 422 765 -184 -978 -16 -85 -22 -20 -139 -40 callgsubr
          1 callgsubr
          -260 -591 -98 callsubr
          -91 callsubr
        </CharString>
        <CharString name="Mugreek">
          1855 897 1444 15 callsubr
        </CharString>
        <CharString name="N">
          1512 816 1444 148 callsubr
          endchar
        </CharString>
        <CharString name="Nacute">
          1512 1168 -95 callsubr
          90 -92 callgsubr
          -647 -403 148 callsubr
          endchar
        </CharString>
        <CharString name="Ncaron">
          1512 1336 -48 callsubr
          -65 callgsubr
          -622 -418 148 callsubr
          endchar
        </CharString>
        <CharString name="Ncircumflexbelow">
          100 callsubr
          -846 -821 30 callsubr
        </CharString>
        <CharString name="Ncommaaccent">
          100 callsubr
          -649 -830 rmoveto
          173 -35 callsubr
          42 callgsubr
          82 hhcurveto
          endchar
        </CharString>
        <CharString name="Ndotaccent">
          1512 1099 -78 callsubr
          110 callsubr
          -283 -118 148 callsubr
          endchar
        </CharString>
        <CharString name="Ndotbelow">
          100 callsubr
          -609 -511 -98 callsubr
          -91 callsubr
        </CharString>
        <CharString name="Ngrave">
          1512 1064 1846 rmoveto
          -275 -9 hlineto
          288 -290 rlineto
          81 hlineto
          -342 -103 148 callsubr
          endchar
        </CharString>
        <CharString name="Njecyrillic">
          2232 600 211 rmoveto
          109 509 510 0 -108 -509 rlineto
          -19 -89 -22 -18 -137 -18 -17 -86 rcurveline
          664 hlineto
          425 296 182 288 218 -189 143 -352 hvcurveto
          -177 hlineto
          85 403 19 88 27 16 144 20 rlinecurve
          19 86 -655 0 -18 -86 126 -18 17 -17 -19 -90 rlinecurve
          -85 -402 -511 0 85 402 20 89 23 18 131 2 callsubr
          126 -18 17 -17 -19 -90 rlinecurve
          -217 -1022 -19 -89 -23 -18 -135 -18 rlinecurve
          -19 -86 638 0 18 86 -121 17 -18 18 19 90 rlinecurve
          1341 269 rmoveto
          -206 -145 -161 -277 -10 vhcurveto
          -91 -3 134 627 107 -1 rlineto
          171 -2 101 -80 -164 vvcurveto
          endchar
        </CharString>
        <CharString name="Nlinebelow">
          100 callsubr
          -922 -725 -88 callsubr
        </CharString>
        <CharString name="Ntilde">
          1512 1208 -70 callgsubr
          -14 -25 -26 -35 hhcurveto
          -24 81 callsubr
          -26 hvcurveto
          86 hlineto
          87 14 24 25 35 hhcurveto
          24 21 -90 callgsubr
          -392 -135 148 callsubr
          endchar
        </CharString>
        <CharString name="Nugreek">
          1512 816 1444 148 callsubr
          endchar
        </CharString>
        <CharString name="O">
          1631 907 -26 -104 callsubr
        </CharString>
        <CharString name="OE">
          2055 244 649 rmoveto
          -401 274 -276 402 vhcurveto
          134 79 28 143 hhcurveto
          705 hlineto
          103 427 rlineto
          -75 hlineto
          -108 -255 -86 -54 -247 -11 rrcurveto
          -208 -8 125 587 193 -2 89 -2 19 -36 -6 -166 rlinecurve
          74 hlineto
          108 509 rlineto
          -74 hlineto
          -64 -162 -34 -34 -90 -3 rrcurveto
          -193 -1 118 556 189 -8 237 -10 34 -49 11 -225 rlinecurve
          76 hlineto
          70 391 rlineto
          -780 hlineto
          -140 -82 28 -153 hhcurveto
          -509 -334 -362 -461 hvcurveto
          357 -71 rmoveto
          382 190 399 346 61 50 -10 -15 35 vhcurveto
          -263 -1241 rlineto
          -5 -21 -21 -3 -23 hhcurveto
          -226 -128 187 306 hvcurveto
          endchar
        </CharString>
        <CharString name="Oacute">
          1631 1186 -95 callsubr
          -60 callsubr
          -574 -1873 -104 callsubr
        </CharString>
        <CharString name="Obreve">
          1631 1131 161 callsubr
          -122 hhcurveto
          -102 -71 55 71 8 1 8 1 65 callgsubr
          -224 -1599 -104 callsubr
        </CharString>
        <CharString name="Ocaron">
          1631 1354 -48 callsubr
          -97 -53 callgsubr
          -549 -1888 -104 callsubr
        </CharString>
        <CharString name="Ocircumflex">
          1631 900 -74 callsubr
          -100 callgsubr
          103 -1574 -104 callsubr
        </CharString>
        <CharString name="Ocircumflexacute">
          1631 1474 -71 callgsubr
          -56 -270 3 callsubr
          134 -1594 -104 callsubr
        </CharString>
        <CharString name="Ocircumflexdotbelow">
          1631 900 -74 callsubr
          -100 callgsubr
          103 -1574 rmoveto
          482 311 383 447 374 100 callgsubr
          -83 callgsubr
          157 callsubr
          -73 -248 -98 callsubr
          76 79 47 callsubr
        </CharString>
        <CharString name="Ocircumflexgrave">
          1631 832 1848 -37 callgsubr
          -106 -507 3 callsubr
          134 -1594 -104 callsubr
        </CharString>
        <CharString name="Ocircumflexhookabove">
          1631 1447 10 callgsubr
          -8 -34 -41 107 callgsubr
          16 -80 48 -115 hhcurveto
          -689 -470 3 callsubr
          134 -1594 -104 callsubr
        </CharString>
        <CharString name="Ocircumflextilde">
          1631 1274 1792 -4 callsubr
          224 callsubr
          36 hvcurveto
          35 -11 rlineto
          -15 45 45 -11 120 callsubr
          -79 callgsubr
          134 -1594 -104 callsubr
        </CharString>
        <CharString name="Ocyrillic">
          1631 907 -26 -104 callsubr
        </CharString>
        <CharString name="Odblgrave">
          1631 943 -76 callgsubr
          85 callgsubr
          -357 -1572 -104 callsubr
        </CharString>
        <CharString name="Odieresis">
          1631 944 -44 callsubr
          168 callsubr
          46 callsubr
          -8 callsubr
          -382 -1599 -104 callsubr
        </CharString>
        <CharString name="Odieresismacron">
          1631 831 4 callsubr
          60 -412 18 callsubr
          -343 -1578 -104 callsubr
        </CharString>
        <CharString name="Odotaccent">
          1631 1117 -78 callsubr
          -86 callsubr
          -82 callsubr
          -210 -1588 -104 callsubr
        </CharString>
        <CharString name="Odotaccentmacron">
          1631 825 1817 -38 callgsubr
          262 -393 rmoveto
          65 50 42 59 -1 hvcurveto
          58 -1 -53 42 -65 hhcurveto
          -65 -50 -42 -58 1 hvcurveto
          -59 1 52 -42 66 hhcurveto
          -206 -1571 -104 callsubr
        </CharString>
        <CharString name="Odotbelow">
          1631 907 -26 rmoveto
          482 311 383 447 374 100 callgsubr
          -83 callgsubr
          157 callsubr
          -73 -248 -98 callsubr
          76 79 47 callsubr
        </CharString>
        <CharString name="Ograve">
          1631 1083 86 callsubr
          -269 -1573 -104 callsubr
        </CharString>
        <CharString name="Ohookabove">
          1631 1158 1882 rmoveto
          -94 -73 -89 callgsubr
          28 42 -94 callgsubr
          163 callsubr
          -251 -1908 -104 callsubr
        </CharString>
        <CharString name="Ohorn">
          1656 237 639 27 callsubr
        </CharString>
        <CharString name="Ohornacute">
          1656 1187 -95 callsubr
          -65 callsubr
          -1246 -1208 27 callsubr
        </CharString>
        <CharString name="Ohorndotbelow">
          1656 237 639 rmoveto
          -373 -3 248 -292 425 hhcurveto
          183 callsubr
          227 -685 -98 callsubr
          -91 callsubr
        </CharString>
        <CharString name="Ohorngrave">
          1656 1084 86 callsubr
          -940 -908 27 callsubr
        </CharString>
        <CharString name="Ohornhookabove">
          1656 1159 -48 callgsubr
          42 -94 callgsubr
          163 callsubr
          -922 -1243 27 callsubr
        </CharString>
        <CharString name="Ohorntilde">
          1656 1228 1579 rmoveto
          89 -30 callgsubr
          -24 -26 -35 84 callsubr
          -89 -74 114 callsubr
          122 callsubr
          53 hhcurveto
          -991 -940 27 callsubr
        </CharString>
        <CharString name="Ohungarumlaut">
          1631 996 47 callgsubr
          -174 -300 94 0 329 293 rlineto
          7 vlineto
          -677 -1873 -104 callsubr
        </CharString>
        <CharString name="Oinvertedbreve">
          1631 1127 1900 rmoveto
          -189 -114 -127 -200 -5 -51 callgsubr
          -71 -9 0 -7 -2 -75 callgsubr
          102 -155 hhcurveto
          -220 -1926 -104 callsubr
        </CharString>
        <CharString name="Omacron">
          1631 821 9 callsubr
          -22 callsubr
          52 -1794 -104 callsubr
        </CharString>
        <CharString name="Omacronacute">
          1631 1479 0 callsubr
          -58 callgsubr
          105 -1733 -104 callsubr
        </CharString>
        <CharString name="Omacrongrave">
          1631 836 1868 rmoveto
          626 91 callgsubr
          105 -1733 -104 callsubr
        </CharString>
        <CharString name="Omegagreek">
          1692 135 hmoveto
          619 hlineto
          65 315 rlineto
          -142 69 -78 136 8 226 7 378 181 230 262 -1 219 0 130 -153 -9 228 callsubr
          409 76 244 277 7 310 6 83 callgsubr
          -6 -366 -7 -256 175 -218 285 -68 rrcurveto
          -15 -74 -345 5 -70 41 -39 152 rlinecurve
          -68 hlineto
          endchar
        </CharString>
        <CharString name="Omegatonosgreek">
          1937 381 hmoveto
          618 hlineto
          66 315 rlineto
          -142 69 -78 136 7 226 8 378 181 230 262 -1 219 0 129 -153 -8 228 callsubr
          408 76 245 277 6 310 7 83 callgsubr
          -7 -366 -6 -256 175 -218 284 -68 rrcurveto
          -14 -74 -345 5 -70 41 -39 152 rlinecurve
          -69 hlineto
          -46 1069 93 callsubr
          endchar
        </CharString>
        <CharString name="Omicrongreek">
          1631 907 -26 -104 callsubr
        </CharString>
        <CharString name="Omicrontonosgreek">
          1854 1130 -26 rmoveto
          482 312 383 447 374 -245 292 -424 -482 -308 -383 -447 -4 -83 callgsubr
          424 hhcurveto
          -760 1470 93 callsubr
          434 -1354 rmoveto
          -174 -111 -35 callgsubr
          276 -98 callgsubr
          -404 -186 -423 -270 hvcurveto
          endchar
        </CharString>
        <CharString name="Oogonek">
          1631 825 -484 72 callgsubr
          187 callsubr
        </CharString>
        <CharString name="Oogonekmacron">
          1631 821 9 callsubr
          -22 callsubr
          -30 -2252 72 callgsubr
          187 callsubr
        </CharString>
        <CharString name="Oslash">
          1631 907 -26 172 callsubr
        </CharString>
        <CharString name="Oslashacute">
          1631 1186 -95 callsubr
          -60 callsubr
          -574 -1873 172 callsubr
        </CharString>
        <CharString name="Otilde">
          1631 1226 1579 rmoveto
          90 -30 callgsubr
          -25 -26 -34 84 callsubr
          -90 -73 114 callsubr
          122 callsubr
          52 hhcurveto
          -319 -1605 -104 callsubr
        </CharString>
        <CharString name="Otildeacute">
          1631 1479 114 callgsubr
          405 -230 -4 callsubr
          -45 -9 -31 -104 callgsubr
          -33 68 callsubr
          -316 -1581 -104 callsubr
        </CharString>
        <CharString name="Otildedieresis">
          1631 971 115 callgsubr
          -61 hhcurveto
          -13 hlineto
          124 callsubr
          62 -30 callsubr
          55 11 -40 39 -61 hhcurveto
          -13 hlineto
          -62 -57 -39 -55 -12 hvcurveto
          -55 -11 40 -39 61 hhcurveto
          -81 -254 -4 callsubr
          -45 -9 -31 -104 callgsubr
          -33 68 callsubr
          -316 -1581 -104 callsubr
        </CharString>
        <CharString name="Otildemacron">
          1631 831 4 callsubr
          366 -409 -4 callsubr
          -45 -9 -31 -104 callgsubr
          -33 68 callsubr
          -316 -1581 -104 callsubr
        </CharString>
        <CharString name="P">
          1395 718 hmoveto
          14 callsubr
        </CharString>
        <CharString name="Pacute">
          1395 1096 95 callgsubr
          9 vlineto
          -674 -1848 rmoveto
          14 callsubr
        </CharString>
        <CharString name="Pdotaccent">
          1395 1027 1562 rmoveto
          79 64 63 78 72 -86 callsubr
          -82 callsubr
          -309 -1562 rmoveto
          14 callsubr
        </CharString>
        <CharString name="Pecyrillic">
          1631 1464 211 rmoveto
          217 1022 20 91 24 17 134 17 rlinecurve
          18 86 -1520 0 -18 -86 127 -18 18 -17 -19 -90 rlinecurve
          -218 -1022 -19 -90 -22 -16 -137 -19 rlinecurve
          -19 -86 639 0 17 86 -119 17 -18 18 19 90 rlinecurve
          240 1124 535 0 -239 -1124 -19 -91 -22 -17 -132 -105 callgsubr
          -126 16 -18 18 19 91 rlinecurve
          endchar
        </CharString>
        <CharString name="Phigreek">
          1869 234 715 rmoveto
          -34 -312 218 -171 420 -17 rrcurveto
          -3 -15 -18 -88 -23 -21 -128 -17 rlinecurve
          -16 -78 569 0 17 78 rlineto
          -121 17 -15 21 19 88 3 14 rcurveline
          491 12 292 177 35 327 34 314 -239 166 -400 18 rrcurveto
          3 13 19 88 23 20 127 18 rlinecurve
          15 77 -569 0 -15 -77 120 -16 15 -22 -19 -88 rlinecurve
          -2 -12 -469 -11 -314 -172 -35 -331 rlinecurve
          354 -1 rmoveto
          26 241 144 170 273 6 rrcurveto
          -172 -816 -207 26 -89 144 25 229 rlinecurve
          999 19 rmoveto
          -27 -247 -143 -168 -275 -6 rrcurveto
          172 815 208 -25 89 -145 -24 -224 rlinecurve
          endchar
        </CharString>
        <CharString name="Pigreek">
          1655 1485 212 rmoveto
          216 1019 19 89 23 21 144 17 rlinecurve
          19 86 -1543 0 -18 -86 136 -19 14 -18 -18 -89 rlinecurve
          -217 -1020 -19 -89 -24 -18 -143 -20 rlinecurve
          -18 -85 654 0 18 85 -130 18 -16 20 19 89 rlinecurve
          238 1125 543 0 -237 -1125 -19 -89 -22 -19 -139 -18 rlinecurve
          -18 -86 652 0 18 86 -136 17 -15 20 19 89 rlinecurve
          endchar
        </CharString>
        <CharString name="Psigreek">
          1863 598 hmoveto
          645 hlineto
          18 85 rlineto
          -146 19 -17 21 19 86 58 277 rcurveline
          355 16 191 127 134 365 70 192 rcurveline
          46 123 33 30 96 8 18 85 rcurveline
          5 -32 -62 5 -61 hhcurveto
          -180 -89 -53 -203 -74 hvcurveto
          -73 -202 -94 -257 -82 -108 -173 -25 rlinecurve
          134 636 20 88 21 21 120 17 rlinecurve
          18 86 -572 0 -18 -86 rlineto
          113 -17 13 -21 -19 -88 -134 -636 rcurveline
          -163 25 -34 108 15 257 13 194 rcurveline
          203 12 -68 61 -184 hhcurveto
          -57 -67 -5 -5 -33 hvcurveto
          -18 -85 93 -8 25 -30 -7 -123 rlinecurve
          -12 -192 -22 -364 134 -128 350 -16 rlinecurve
          -59 -277 -19 -86 -25 -22 -152 -18 rlinecurve
          endchar
        </CharString>
        <CharString name="Q">
          1642 1310 -399 rmoveto
          104 93 25 39 66 hvcurveto
          16 78 rlineto
          -125 -4 -81 30 -148 141 -100 95 rcurveline
          350 100 215 328 371 vvcurveto
          374 100 callgsubr
          vhcurveto
          -2 -322 183 -261 322 -66 162 -172 rcurveline
          -169 162 113 -49 133 hhcurveto
          -426 489 rmoveto
          -174 -112 -35 callgsubr
          84 callgsubr
          endchar
        </CharString>
        <CharString name="R">
          1444 1073 hmoveto
          12 callsubr
          endchar
        </CharString>
        <CharString name="Racute">
          1444 1073 -95 callsubr
          -65 callsubr
          -296 -1847 rmoveto
          12 callsubr
          endchar
        </CharString>
        <CharString name="Rcaron">
          1444 1241 -27 callsubr
          -161 141 -65 callgsubr
          -271 -1862 rmoveto
          12 callsubr
          endchar
        </CharString>
        <CharString name="Rcommaaccent">
          1444 1073 hmoveto
          12 callsubr
          -452 -1546 65 callsubr
        </CharString>
        <CharString name="Rdblgrave">
          1444 830 1846 rmoveto
          -229 -7 hlineto
          218 -293 rlineto
          84 hlineto
          255 124 callgsubr
          -78 -1546 rmoveto
          12 callsubr
          endchar
        </CharString>
        <CharString name="Rdotaccent">
          1444 1004 -13 callsubr
          69 -1562 rmoveto
          12 callsubr
          endchar
        </CharString>
        <CharString name="Rdotbelow">
          1444 1073 hmoveto
          12 callsubr
          -14 callgsubr
        </CharString>
        <CharString name="Rdotbelowmacron">
          1444 709 1611 rmoveto
          563 hlineto
          -22 callsubr
          331 -1768 rmoveto
          12 callsubr
          -14 callgsubr
        </CharString>
        <CharString name="Rhogreek">
          1395 718 hmoveto
          14 callsubr
        </CharString>
        <CharString name="Rinvertedbreve">
          1444 1014 118 callsubr
          -200 -6 -51 callgsubr
          -71 -9 0 -7 -1 -6 hvcurveto
          84 hlineto
          10 26 6 33 33 vvcurveto
          133 -1 -108 102 -155 hhcurveto
          59 -1900 rmoveto
          12 callsubr
          endchar
        </CharString>
        <CharString name="Rlinebelow">
          1444 1073 hmoveto
          12 callsubr
          -724 -1441 -88 callsubr
        </CharString>
        <CharString name="S">
          1182 609 -29 56 callsubr
          endchar
        </CharString>
        <CharString name="Sacute">
          1182 1004 -95 callsubr
          -60 callsubr
          -690 -1876 56 callsubr
          endchar
        </CharString>
        <CharString name="Sacutedotaccent">
          1182 979 1772 rmoveto
          65 50 42 58 -1 hvcurveto
          59 -1 -53 42 -66 hhcurveto
          -64 -50 -42 -59 1 hvcurveto
          -58 54 -42 65 vhcurveto
          264 -153 rmoveto
          33 153 -678 -165 -15 -71 rlineto
          26 -1565 56 callsubr
          endchar
        </CharString>
        <CharString name="Scaron">
          1182 1172 -48 callsubr
          98 callsubr
          -665 -1891 56 callsubr
          endchar
        </CharString>
        <CharString name="Scarondotaccent">
          1182 983 -21 callgsubr
          -310 86 -16 -73 265 -162 60 0 334 162 rlineto
          -663 -1736 56 callsubr
          endchar
        </CharString>
        <CharString name="Scedilla">
          1182 494 -478 rmoveto
          174 105 -32 callgsubr
          66 69 rlineto
          317 8 240 182 276 vvcurveto
          164 -80 121 -186 118 vhcurveto
          -89 59 rlineto
          -134 85 -51 69 96 vvcurveto
          123 100 81 143 177 105 -117 -228 11 vhcurveto
          77 hlineto
          57 345 rlineto
          61 -78 -164 57 -197 hhcurveto
          -362 -198 -197 -245 -168 84 -116 187 -118 hvcurveto
          89 -59 rlineto
          135 -87 45 -72 -102 vvcurveto
          -137 -115 -82 -146 -183 -140 117 233 -4 vhcurveto
          -78 hlineto
          -57 -357 76 -50 152 -46 163 -12 rlinecurve
          -113 -118 -52 callsubr
          123 callsubr
        </CharString>
        <CharString name="Schwa">
          1540 796 -29 rmoveto
          470 316 355 461 419 -264 266 -418 -166 -177 -40 -67 -110 hvcurveto
          -79 -359 rlineto
          80 hlineto
          244 104 155 104 172 hhcurveto
          236 100 -200 -309 -46 -2 -45 -3 -43 hvcurveto
          -961 hlineto
          -23 -68 -14 -77 -74 vvcurveto
          -272 165 -249 419 vhcurveto
          -268 449 rmoveto
          64 8 67 14 55 vhcurveto
          648 1 rlineto
          -316 -46 -144 -207 -210 hhcurveto
          -184 -86 142 194 hvcurveto
          endchar
        </CharString>
        <CharString name="Scircumflex">
          1182 718 -74 callsubr
          -194 0 -251 -299 rlineto
          -13 -1577 56 callsubr
          endchar
        </CharString>
        <CharString name="Scommaaccent">
          1182 609 -29 56 callsubr
          -122 -448 37 callsubr
          46 callgsubr
          -42 15 18 -32 hvcurveto
          -17 -28 callsubr
        </CharString>
        <CharString name="Sdotaccent">
          1182 935 -78 callsubr
          110 callsubr
          -326 -1591 56 callsubr
          endchar
        </CharString>
        <CharString name="Sdotbelow">
          1182 609 -29 56 callsubr
          -82 -129 -98 callsubr
          -91 callsubr
        </CharString>
        <CharString name="Sdotbelowdotaccent">
          1182 935 -78 callsubr
          110 callsubr
          -326 -1591 56 callsubr
          -82 -129 -98 callsubr
          -91 callsubr
        </CharString>
        <CharString name="Shacyrillic">
          2392 463 1233 rmoveto
          -217 -1022 -19 -91 -24 -17 -134 -17 rlinecurve
          -19 -86 2284 0 18 86 -126 18 -17 17 19 90 rlinecurve
          217 1022 19 90 23 17 136 2 callsubr
          121 -17 18 -18 -19 -90 rlinecurve
          -239 -1124 222 callsubr
        </CharString>
        <CharString name="Shchacyrillic">
          2408 156 callsubr
          1936 hlineto
          211 25 -52 -267 18 hvcurveto
          88 hlineto
          79 428 -201 2 callgsubr
          222 callsubr
        </CharString>
        <CharString name="Sigmagreek">
          97 callgsubr
          -81 361 -672 -602 -608 -17 -83 1150 0 120 497 rlineto
          -89 hlineto
          -230 -100 -77 -38 -267 hhcurveto
          -406 hlineto
          582 579 6 28 -273 510 320 -8 257 -6 43 -51 8 -218 rlinecurve
          78 hlineto
          endchar
        </CharString>
        <CharString name="Softsigncyrillic">
          1367 191 callsubr
          -360 10 116 callsubr
          69 callgsubr
        </CharString>
        <CharString name="T">
          -39 callsubr
          endchar
        </CharString>
        <CharString name="Taugreek">
          -39 callsubr
          endchar
        </CharString>
        <CharString name="Tbar">
          1360 381 692 rmoveto
          276 hlineto
          -103 -482 -18 -87 -25 -19 -152 -19 rlinecurve
          -18 -85 101 callsubr
          103 482 277 0 20 96 -277 0 118 557 44 -2 228 -11 55 -51 -2 -228 rlinecurve
          78 hlineto
          69 391 -1244 0 26 callsubr
          -118 -557 rlineto
          -276 hlineto
          endchar
        </CharString>
        <CharString name="Tcaron">
          1360 1275 -27 callsubr
          44 callsubr
          231 -418 rmoveto
          -1244 hlineto
          26 callsubr
          91 callsubr
          101 callsubr
          82 callsubr
          endchar
        </CharString>
        <CharString name="Tcedilla">
          1360 593 98 callgsubr
          266 vlineto
          18 85 -145 19 -16 19 18 87 rlinecurve
          82 callsubr
          69 391 -1244 0 26 callsubr
          91 callsubr
          307 0 -135 -144 -15 -72 rlineto
          1 2 26 1 5 hhcurveto
          71 -95 callgsubr
          -74 callgsubr
        </CharString>
        <CharString name="Tcircumflexbelow">
          -39 callsubr
          -1150 -1521 30 callsubr
        </CharString>
        <CharString name="Tcommaaccent">
          -39 callsubr
          -954 -1530 rmoveto
          174 -35 callsubr
          41 -25 -42 -44 -42 -26 -68 -46 108 callgsubr
        </CharString>
        <CharString name="Tdotaccent">
          1360 1038 -78 callsubr
          -86 callsubr
          -82 callsubr
          570 -118 rmoveto
          -1244 hlineto
          26 callsubr
          91 callsubr
          101 callsubr
          82 callsubr
          endchar
        </CharString>
        <CharString name="Tdotbelow">
          -39 callsubr
          -913 -1211 -98 callsubr
          75 80 47 callsubr
        </CharString>
        <CharString name="Tecyrillic">
          -39 callsubr
          endchar
        </CharString>
        <CharString name="Thetagreek">
          1702 918 -28 rmoveto
          468 351 360 442 22 hvcurveto
          23 402 -256 298 -440 -2 -468 -1 -350 -361 -22 -441 rrcurveto
          -401 -23 256 -296 439 hhcurveto
          12 104 rmoveto
          -232 -114 220 354 24 hvcurveto
          386 25 150 332 291 hhcurveto
          235 112 -219 -356 -24 hvcurveto
          -387 -25 -152 -330 -290 hhcurveto
          -256 390 rmoveto
          67 hlineto
          149 55 39 40 80 hhcurveto
          135 hlineto
          79 23 -40 -149 -9 hvcurveto
          67 hlineto
          105 496 rlineto
          -67 hlineto
          -150 -58 -38 -37 -77 hhcurveto
          -135 hlineto
          -78 -22 37 150 6 hvcurveto
          -67 hlineto
          endchar
        </CharString>
        <CharString name="Thorn">
          1402 244 210 rmoveto
          -19 -89 -22 -17 -136 -19 rrcurveto
          -18 -86 642 0 18 86 rlineto
          -124 18 -19 17 19 90 24 116 rcurveline
          167 hlineto
          362 330 146 299 226 -183 143 -348 hvcurveto
          -155 1 20 92 19 89 24 17 135 19 rlinecurve
          18 85 -643 0 -18 -85 126 -19 17 -17 -19 -89 rlinecurve
          649 -446 rmoveto
          1 -177 -111 -173 -276 -10 rrcurveto
          -94 -3 131 617 93 -2 rlineto
          162 -6 94 -104 -142 vvcurveto
          endchar
        </CharString>
        <CharString name="Tlinebelow">
          -39 callsubr
          -1226 -1425 -88 callsubr
        </CharString>
        <CharString name="Tsecyrillic">
          1643 156 callsubr
          1173 hlineto
          213 25 -52 -267 18 hvcurveto
          88 hlineto
          78 428 -204 2 callgsubr
          -536 149 callsubr
        </CharString>
        <CharString name="Tshecyrillic">
          1864 1615 1444 rmoveto
          -1252 hlineto
          216 callsubr
          463 rcurveline
          18 66 67 11 82 hhcurveto
          189 72 -106 -216 -46 hvcurveto
          -81 -380 493 0 18 86 rlineto
          -128 15 -14 19 18 88 31 148 rcurveline
          323 65 -163 152 -357 hhcurveto
          -119 -88 -19 -25 -81 hvcurveto
          119 103 callgsubr
          endchar
        </CharString>
        <CharString name="U">
          1516 797 -28 -96 callsubr
        </CharString>
        <CharString name="Uacute">
          1516 1235 -95 callsubr
          -60 callsubr
          -733 -1875 -96 callsubr
        </CharString>
        <CharString name="Ubreve">
          1516 1180 76 callsubr
          -102 -71 55 71 8 1 8 1 65 callgsubr
          -383 -1601 -96 callsubr
        </CharString>
        <CharString name="Ubrevecyrillic">
          1470 1142 1575 rmoveto
          179 37 callgsubr
          -25 4 6 -21 hvcurveto
          37 18 28 39 48 vvcurveto
          76 -56 -55 callgsubr
          -912 -1437 182 callsubr
        </CharString>
        <CharString name="Ucaron">
          1516 1403 -48 callsubr
          -97 0 129 -299 206 0 252 299 rlineto
          -708 -1890 -96 callsubr
        </CharString>
        <CharString name="Ucircumflex">
          1516 949 -74 callsubr
          -100 callgsubr
          -56 -1576 -96 callsubr
        </CharString>
        <CharString name="Ucircumflexbelow">
          62 callsubr
          -285 -440 30 callsubr
        </CharString>
        <CharString name="Ucyrillic">
          1470 230 138 182 callsubr
        </CharString>
        <CharString name="Udblgrave">
          1516 992 -76 callgsubr
          85 callgsubr
          -516 -1574 -96 callsubr
        </CharString>
        <CharString name="Udieresis">
          1516 993 -44 callsubr
          67 -50 53 -69 -71 -59 -58 -73 hvcurveto
          -66 -1 51 -53 69 hhcurveto
          46 callsubr
          -8 callsubr
          -541 -1601 -96 callsubr
        </CharString>
        <CharString name="Udieresisacute">
          1516 1528 114 callgsubr
          99 -233 18 callsubr
          -502 -1580 -96 callsubr
        </CharString>
        <CharString name="Udieresisbelow">
          62 callsubr
          -266 -400 rmoveto
          81 65 63 77 70 callgsubr
          13 callgsubr
        </CharString>
        <CharString name="Udieresiscaron">
          1516 1560 2017 rmoveto
          -339 -83 -303 83 -16 -71 260 -156 58 0 324 156 rlineto
          -578 -394 18 callsubr
          -502 -1580 -96 callsubr
        </CharString>
        <CharString name="Udieresisgrave">
          1516 885 1867 rmoveto
          625 -82 16 71 -609 166 rlineto
          49 -470 18 callsubr
          -502 -1580 -96 callsubr
        </CharString>
        <CharString name="Udieresismacron">
          1516 880 4 callsubr
          60 -412 18 callsubr
          -502 -1580 -96 callsubr
        </CharString>
        <CharString name="Udotbelow">
          62 callsubr
          -48 -130 -98 callsubr
          75 80 47 callsubr
        </CharString>
        <CharString name="Ugrave">
          1516 1132 86 callsubr
          -428 -1575 -96 callsubr
        </CharString>
        <CharString name="Uhookabove">
          1516 1206 1882 rmoveto
          -93 -73 -89 callgsubr
          27 43 -94 callgsubr
          -50 -49 -92 -52 hvcurveto
          89 hlineto
          156 53 81 60 84 vvcurveto
          81 -76 60 -106 vhcurveto
          -409 -1910 -96 callsubr
        </CharString>
        <CharString name="Uhorn">
          1639 311 622 16 callsubr
        </CharString>
        <CharString name="Uhornacute">
          1639 1235 -95 callsubr
          -65 callsubr
          -1220 -1225 16 callsubr
        </CharString>
        <CharString name="Uhorndotbelow">
          1639 311 622 rmoveto
          -449 -95 253 -201 328 hhcurveto
          337 225 211 366 81 hvcurveto
          184 829 rlineto
          -3 18 18 -2 20 hhcurveto
          165 1 111 80 137 vvcurveto
          94 -56 85 -71 42 vhcurveto
          -82 hlineto
          9 -17 5 -30 -30 vvcurveto
          -159 -108 -132 -211 vhcurveto
          -93 hlineto
          48 callsubr
          206 callsubr
          284 -1383 -98 callsubr
          -91 callsubr
        </CharString>
        <CharString name="Uhorngrave">
          1639 1132 85 callsubr
          -915 -925 16 callsubr
        </CharString>
        <CharString name="Uhornhookabove">
          1639 1207 -48 callgsubr
          43 -94 callgsubr
          -51 -49 -92 -52 hvcurveto
          90 hlineto
          155 53 81 60 84 vvcurveto
          81 -75 60 -106 vhcurveto
          -896 -1260 16 callsubr
        </CharString>
        <CharString name="Uhorntilde">
          1639 1276 23 callgsubr
          -25 hvcurveto
          -25 20 rlineto
          32 -43 -43 19 -52 hhcurveto
          -89 -74 -61 -211 -25 hvcurveto
          85 hlineto
          87 44 callgsubr
          -965 -957 16 callsubr
        </CharString>
        <CharString name="Uhungarumlaut">
          1516 1045 47 callgsubr
          -175 -300 95 0 329 293 rlineto
          7 vlineto
          -836 -1875 -96 callsubr
        </CharString>
        <CharString name="Uinvertedbreve">
          1516 1176 1900 rmoveto
          -190 -113 -127 -200 -6 hvcurveto
          85 hlineto
          93 17 77 55 122 hhcurveto
          103 70 -55 -71 -9 -1 -7 -1 -75 callgsubr
          102 -155 hhcurveto
          -379 -1928 -96 callsubr
        </CharString>
        <CharString name="Umacron">
          1516 870 9 callsubr
          -22 callsubr
          -107 -1796 -96 callsubr
        </CharString>
        <CharString name="Umacrondieresis">
          1516 1021 1809 rmoveto
          62 57 39 55 11 hvcurveto
          55 13 -41 39 14 callgsubr
          -62 -57 -39 -55 -12 hvcurveto
          -55 -11 40 -39 61 hhcurveto
          -505 -224 rmoveto
          596 hlineto
          26 122 rlineto
          -596 hlineto
          -77 -1735 -96 callsubr
        </CharString>
        <CharString name="Uogonek">
          1516 763 123 callgsubr
          -26 -10 -28 hhcurveto
          -64 -44 64 92 56 20 56 40 46 hvcurveto
          303 25 202 207 76 343 rrcurveto
          141 633 29 129 23 26 130 21 rlinecurve
          18 86 -434 0 48 callsubr
          215 callsubr
          114 -20 16 -20 -20 -93 rlinecurve
          -128 -603 -90 -425 223 -203 302 -21 rlinecurve
          -135 -79 -75 -97 -99 vvcurveto
          -107 94 -75 134 vhcurveto
          endchar
        </CharString>
        <CharString name="Upsilondieresisgreek">
          1372 926 -44 callsubr
          67 -50 -8 callsubr
          345 hmoveto
          -5 callsubr
          -808 -407 -87 callsubr
          -80 callsubr
        </CharString>
        <CharString name="Upsilongreek">
          1372 463 1166 -87 callsubr
          -80 callsubr
        </CharString>
        <CharString name="Upsilontonosgreek">
          1812 903 1166 -87 callsubr
          88 420 411 533 117 152 36 169 callsubr
          -106 -145 rlinecurve
          -303 -421 -132 431 -42 135 17 35 137 17 rlinecurve
          18 86 -654 0 -18 -86 98 -16 27 -27 51 -149 rlinecurve
          -533 278 93 callsubr
          endchar
        </CharString>
        <CharString name="Uring">
          1516 921 1737 rmoveto
          -114 105 79 callgsubr
          -105 -91 -112 vhcurveto
          174 -16 rmoveto
          78 46 60 54 43 28 -32 -55 -79 -46 -60 -54 -44 -27 32 56 vhcurveto
          -298 -1749 -96 callsubr
        </CharString>
        <CharString name="Utilde">
          1516 1275 1579 rmoveto
          90 73 61 212 25 hvcurveto
          -84 hlineto
          -87 -15 -25 -26 -34 hhcurveto
          -25 81 callsubr
          -24 callgsubr
          25 20 -90 callgsubr
          -478 -1607 -96 callsubr
        </CharString>
        <CharString name="Utildeacute">
          1516 1528 114 callgsubr
          405 -230 -4 callsubr
          -45 -9 -31 -20 -46 hhcurveto
          -28 -29 8 11 -36 hvcurveto
          -34 68 callsubr
          -475 -1583 -96 callsubr
        </CharString>
        <CharString name="Utildebelow">
          62 callsubr
          62 -409 rmoveto
          98 80 66 233 28 hvcurveto
          -90 hlineto
          -99 -17 -27 -28 -39 hhcurveto
          -28 -1 -23 13 -29 22 -12 callgsubr
          31 -23 45 -35 48 -23 58 1 rlinecurve
          endchar
        </CharString>
        <CharString name="V">
          122 callgsubr
          endchar
        </CharString>
        <CharString name="Vdotbelow">
          122 callgsubr
          236 -1313 -98 callsubr
          75 80 47 callsubr
        </CharString>
        <CharString name="Vecyrillic">
          1432 1443 450 60 callsubr
        </CharString>
        <CharString name="Vtilde">
          1435 1248 -70 callgsubr
          -14 -25 -26 -34 hhcurveto
          -25 81 callsubr
          -24 callgsubr
          24 21 -90 callgsubr
          -811 -424 rmoveto
          194 callsubr
          endchar
        </CharString>
        <CharString name="W">
          2184 427 1155 -20 callsubr
        </CharString>
        <CharString name="Wacute">
          2184 1624 33 callsubr
          -1492 -692 -20 callsubr
        </CharString>
        <CharString name="Wcircumflex">
          2184 1338 -74 callsubr
          52 callsubr
          -814 -393 -20 callsubr
        </CharString>
        <CharString name="Wdieresis">
          2184 1382 1573 rmoveto
          -5 callsubr
          345 hmoveto
          40 callgsubr
          -1300 -418 -20 callsubr
        </CharString>
        <CharString name="Wdotaccent">
          2184 1554 -13 callsubr
          -1127 -407 -20 callsubr
        </CharString>
        <CharString name="Wdotbelow">
          2184 427 1155 rmoveto
          107 -1158 250 0 530 1049 79 -1049 258 0 583 1142 91 179 38 25 114 15 rlinecurve
          18 86 -440 0 -18 -86 132 -15 9 -34 -77 -163 rlinecurve
          -400 -843 -54 849 -10 159 17 27 138 20 rlinecurve
          18 86 -625 0 -18 -86 131 -16 8 -22 callgsubr
          611 -1313 -98 callsubr
          -91 callsubr
        </CharString>
        <CharString name="Wgrave">
          2184 1520 85 callsubr
          -1187 -392 -20 callsubr
        </CharString>
        <CharString name="X">
          1393 338 304 11 callsubr
        </CharString>
        <CharString name="Xdieresis">
          1393 968 -44 callsubr
          168 callsubr
          46 callsubr
          53 -69 -71 -59 -58 -73 -1 hvcurveto
          -66 51 -53 69 vhcurveto
          -975 -1269 11 callsubr
        </CharString>
        <CharString name="Xdotaccent">
          1393 1141 -78 callsubr
          -86 callsubr
          -82 callsubr
          -803 -1258 11 callsubr
        </CharString>
        <CharString name="Xigreek">
          1370 1603 1444 rmoveto
          -1206 hlineto
          -113 -452 rlineto
          80 hlineto
          194 90 73 30 240 hhcurveto
          370 hlineto
          240 60 -30 -194 7 hvcurveto
          82 hlineto
          -791 -319 rmoveto
          204 hlineto
          125 30 -45 -146 -6 hvcurveto
          76 hlineto
          103 487 rlineto
          -76 hlineto
          -145 -57 -49 -44 -124 hhcurveto
          -204 hlineto
          -125 -30 44 145 6 hvcurveto
          -77 113 callgsubr
          575 -673 rmoveto
          124 496 rlineto
          -81 hlineto
          -233 -101 -74 -32 -268 hhcurveto
          -335 hlineto
          -268 -58 33 232 -3 hvcurveto
          -81 hlineto
          -86 -496 rlineto
          endchar
        </CharString>
        <CharString name="Xigreek.1">
          1394 73 hmoveto
          1240 hlineto
          125 496 rlineto
          -82 hlineto
          -233 -101 -73 -32 -269 hhcurveto
          -128 hlineto
          93 442 rlineto
          65 hlineto
          124 30 -45 -146 -6 hvcurveto
          77 hlineto
          102 487 rlineto
          -76 hlineto
          -145 -56 -49 -44 -124 hhcurveto
          -64 hlineto
          92 436 rlineto
          147 hlineto
          241 59 -30 -194 8 hvcurveto
          81 hlineto
          77 452 -1214 0 -115 -452 rlineto
          82 hlineto
          194 89 73 30 240 hhcurveto
          148 hlineto
          -92 -436 rlineto
          -66 hlineto
          -124 -31 44 145 5 hvcurveto
          -76 113 callgsubr
          65 hlineto
          -93 -442 rlineto
          -132 hlineto
          -268 -58 33 232 -3 hvcurveto
          -81 hlineto
          endchar
        </CharString>
        <CharString name="Y">
          1372 463 1166 -87 callsubr
          -80 callsubr
        </CharString>
        <CharString name="Yacute">
          1372 1168 33 callsubr
          -1000 -681 -87 callsubr
          -80 callsubr
        </CharString>
        <CharString name="Ycircumflex">
          1372 882 -74 callsubr
          52 callsubr
          -322 -382 -87 callsubr
          -80 callsubr
        </CharString>
        <CharString name="Ydieresis">
          1372 926 -44 callsubr
          67 -50 -8 callsubr
          345 hmoveto
          -5 callsubr
          -808 -407 -87 callsubr
          -80 callsubr
        </CharString>
        <CharString name="Ydotaccent">
          1372 1098 1562 rmoveto
          79 64 63 77 73 -56 57 -75 -80 -86 callgsubr
          -635 -396 -87 callsubr
          -80 callsubr
        </CharString>
        <CharString name="Ydotbelow">
          1372 463 1166 -87 callsubr
          89 420 410 533 118 152 35 169 callsubr
          -105 -145 rlinecurve
          -303 -421 -3 callgsubr
          176 -1324 -98 callsubr
          -91 callsubr
        </CharString>
        <CharString name="Yericyrillic">
          2061 191 callsubr
          468 -290 rmoveto
          217 1022 18 88 23 19 137 18 rlinecurve
          18 86 -644 0 -18 -86 129 -14 14 -22 -18 -89 rlinecurve
          -218 -1022 -18 -88 -23 -19 -137 -18 rlinecurve
          -18 -86 644 0 18 86 -129 18 -14 18 19 89 rlinecurve
          -828 300 116 callsubr
          69 callgsubr
        </CharString>
        <CharString name="Ygrave">
          1372 1064 85 callsubr
          -695 -381 -87 callsubr
          -80 callsubr
        </CharString>
        <CharString name="Yhookabove">
          1372 1139 1882 rmoveto
          -93 -74 -35 -51 -41 hvcurveto
          3 callgsubr
          156 53 81 60 84 vvcurveto
          81 -76 60 -106 vhcurveto
          -676 -716 -87 callsubr
          -80 callsubr
        </CharString>
        <CharString name="Yicyrillic">
          747 134 callsubr
        </CharString>
        <CharString name="Ymacron">
          1372 803 105 callsubr
          -374 -602 -87 callsubr
          -80 callsubr
        </CharString>
        <CharString name="Ytilde">
          1372 1208 -70 callgsubr
          -15 -24 -26 -35 hhcurveto
          -24 81 callsubr
          -26 hvcurveto
          85 hlineto
          87 15 24 25 35 hhcurveto
          24 21 -90 callgsubr
          -745 -413 -87 callsubr
          -80 callsubr
        </CharString>
        <CharString name="Z">
          1250 1172 hmoveto
          -17 callsubr
        </CharString>
        <CharString name="Zacute">
          1250 1039 -95 callsubr
          -65 callsubr
          -163 -1847 rmoveto
          -17 callsubr
        </CharString>
        <CharString name="Zcaron">
          1250 1207 -27 callsubr
          44 callsubr
          -137 -1862 rmoveto
          -17 callsubr
        </CharString>
        <CharString name="Zcircumflex">
          1250 754 40 callsubr
          515 -1548 rmoveto
          -17 callsubr
        </CharString>
        <CharString name="Zdotaccent">
          1250 970 -13 callsubr
          202 -1562 rmoveto
          -17 callsubr
        </CharString>
        <CharString name="Zdotbelow">
          205 callsubr
          508 -158 -98 callsubr
          -91 callsubr
        </CharString>
        <CharString name="Zecyrillic">
          1336 632 -28 rmoveto
          404 307 183 305 181 -155 103 -219 21 hvcurveto
          257 36 193 121 223 vvcurveto
          212 -188 115 -316 -189 -169 -51 -69 -108 vhcurveto
          -81 -343 rlineto
          79 hlineto
          245 102 143 101 170 hhcurveto
          134 74 -90 -133 -205 -130 -133 -221 hvcurveto
          -143 hlineto
          -23 -106 rlineto
          143 hlineto
          186 98 -84 -163 -183 -118 -168 -242 -2 hvcurveto
          -182 -1 -115 118 -9 225 rrcurveto
          -79 hlineto
          -50 -337 rlineto
          -61 80 166 -60 201 hhcurveto
          endchar
        </CharString>
        <CharString name="Zetagreek">
          1250 1172 hmoveto
          -17 callsubr
        </CharString>
        <CharString name="Zhecyrillic">
          2168 406 hmoveto
          562 681 98 0 -100 -470 -19 -90 -24 -16 -143 -19 rlinecurve
          -18 -86 659 0 19 86 -133 18 -19 17 19 90 rlinecurve
          100 470 99 0 266 -681 398 0 17 81 -60 27 -33 41 -88 215 rlinecurve
          -218 557 223 202 196 174 66 40 137 21 rlinecurve
          18 86 -494 0 -18 -86 133 -17 3 -40 -128 -125 rlinecurve
          -394 -387 -100 0 94 444 19 90 26 17 141 18 rlinecurve
          18 86 -660 0 -18 -86 135 -15 17 -20 -19 -90 rlinecurve
          -95 -444 -97 0 -236 387 -81 133 35 34 131 15 rlinecurve
          17 86 -502 0 -17 -86 130 -23 52 -34 123 -177 rlinecurve
          134 -191 -462 -565 rlineto
          -178 -216 -48 -45 -70 -26 -17 -81 rcurveline
          endchar
        </CharString>
        <CharString name="Zlinebelow">
          205 callsubr
          196 -372 rmoveto
          582 hlineto
          33 159 rlineto
          -581 hlineto
          endchar
        </CharString>
        <CharString name="a">
          1218 -29 callsubr
          -107 callsubr
          -103 callsubr
        </CharString>
        <CharString name="a.dnum">
          770 120 198 rmoveto
          -135 75 -76 97 90 71 53 91 34 vhcurveto
          -2 -7 -2 -18 -8 vvcurveto
          -72 -6 37 -36 71 hhcurveto
          74 71 33 45 36 hvcurveto
          13 59 rlineto
          -11 -16 -22 -5 -19 hhcurveto
          -29 -11 18 42 10 hvcurveto
          83 392 -123 0 -75 -65 rlineto
          41 -19 -49 37 -81 hhcurveto
          -179 -131 -163 -215 2 21 callgsubr
          -16 -39 -40 -43 hhcurveto
          -36 -24 25 71 -1 hvcurveto
          endchar
        </CharString>
        <CharString name="a.numr">
          770 260 856 rmoveto
          -136 74 -75 98 89 71 53 91 35 vhcurveto
          -2 -7 -3 -18 -8 vvcurveto
          -72 -5 37 -36 70 hhcurveto
          75 70 33 44 36 hvcurveto
          13 60 rlineto
          -11 -16 -22 -6 -19 hhcurveto
          -28 -11 19 42 9 hvcurveto
          83 391 -122 0 -75 -64 rlineto
          41 -20 -49 36 -81 hhcurveto
          -179 -130 -162 -215 2 hvcurveto
          212 -2 rmoveto
          117 -2 45 173 104 hhcurveto
          35 23 -15 -18 6 hvcurveto
          -52 -243 rlineto
          -70 -15 -39 -41 -43 hhcurveto
          -36 -24 26 71 -2 hvcurveto
          endchar
        </CharString>
        <CharString name="a.sups">
          770 297 1033 rmoveto
          -135 1 74 -76 98 hhcurveto
          89 71 53 91 35 hvcurveto
          -2 -7 -3 -17 -9 vvcurveto
          -72 -5 37 -36 70 hhcurveto
          74 71 34 44 36 hvcurveto
          13 59 rlineto
          -11 -16 -22 -5 -19 hhcurveto
          -28 -11 18 42 9 hvcurveto
          83 392 -122 0 -76 -65 rlineto
          41 -19 -49 37 -81 hhcurveto
          -179 -130 -163 -215 1 21 callgsubr
          -15 -39 -40 -43 hhcurveto
          -36 -24 25 71 -2 hvcurveto
          endchar
        </CharString>
        <CharString name="aacute">
          1218 936 -53 callsubr
          -1104 -1181 -106 callsubr
          -107 callsubr
          -103 callsubr
        </CharString>
        <CharString name="abreve">
          1218 868 1163 rmoveto
          208 -46 callgsubr
          -86 -62 -135 hhcurveto
          -113 -78 63 81 9 1 8 2 6 hvcurveto
          -94 hlineto
          -12 -29 -7 -38 -37 vvcurveto
          -154 118 -116 173 vhcurveto
          -690 -809 -106 callsubr
          -107 callsubr
          -103 callsubr
        </CharString>
        <CharString name="abreveacute">
          1218 1215 119 callgsubr
          248 -311 rmoveto
          193 150 104 169 29 hvcurveto
          -96 hlineto
          -65 -19 -99 -43 -123 hhcurveto
          -122 39 callsubr
          192 hhcurveto
          -637 -764 -106 callsubr
          -107 callsubr
          -103 callsubr
        </CharString>
        <CharString name="abrevecyrillic">
          1218 825 1165 rmoveto
          181 164 100 207 60 hvcurveto
          -91 27 rlineto
          -156 -50 -114 -80 -132 hhcurveto
          -33 90 callgsubr
          -61 -70 -90 -131 115 -94 162 vhcurveto
          -647 -811 -106 callsubr
          -107 callsubr
          -103 callsubr
        </CharString>
        <CharString name="abrevedotbelow">
          1218 868 1163 rmoveto
          208 -46 callgsubr
          -86 -62 -135 hhcurveto
          -113 -78 63 81 9 1 8 2 6 hvcurveto
          -94 hlineto
          -12 -29 -7 -38 -37 vvcurveto
          -154 118 -116 173 vhcurveto
          -690 -809 -106 callsubr
          -107 callsubr
          45 callsubr
          -49 -18 33 68 15 hvcurveto
          20 callsubr
          158 callsubr
        </CharString>
        <CharString name="abrevegrave">
          50 callgsubr
          188 -590 rmoveto
          193 150 104 169 29 hvcurveto
          -96 hlineto
          -65 -19 -99 -43 -123 hhcurveto
          -122 39 callsubr
          192 hhcurveto
          -637 -764 -106 callsubr
          -107 callsubr
          -103 callsubr
        </CharString>
        <CharString name="abrevehookabove">
          1218 918 1692 rmoveto
          -84 -66 callgsubr
          72 33 -28 -40 -9 hvcurveto
          -9 -41 30 callgsubr
          -103 -574 rmoveto
          193 150 104 169 29 hvcurveto
          -96 hlineto
          -65 -19 -99 -43 -123 hhcurveto
          -122 39 callsubr
          192 hhcurveto
          -637 -764 -106 callsubr
          -107 callsubr
          -103 callsubr
        </CharString>
        <CharString name="abrevetilde">
          213 callsubr
          -201 -337 rmoveto
          193 150 104 169 29 hvcurveto
          -96 hlineto
          -65 -19 -99 -43 -123 hhcurveto
          -122 39 callsubr
          192 hhcurveto
          -637 -764 -106 callsubr
          -107 callsubr
          -103 callsubr
        </CharString>
        <CharString name="acaron">
          1218 1116 -66 callsubr
          165 callsubr
          -1046 -1190 -106 callsubr
          -107 callsubr
          -103 callsubr
        </CharString>
        <CharString name="acircumflex">
          1218 611 1 callsubr
          96 callsubr
          -325 -793 -106 callsubr
          -107 callsubr
          -103 callsubr
        </CharString>
        <CharString name="acircumflexacute">
          1218 1215 119 callgsubr
          -64 -311 rmoveto
          335 102 291 -102 19 108 callsubr
          -344 -852 -106 callsubr
          -107 callsubr
          -103 callsubr
        </CharString>
        <CharString name="acircumflexdotbelow">
          1218 611 1 callsubr
          96 callsubr
          -325 -793 -106 callsubr
          -107 callsubr
          45 callsubr
          -49 -18 33 68 15 hvcurveto
          20 callsubr
          158 callsubr
        </CharString>
        <CharString name="acircumflexgrave">
          50 callgsubr
          -124 -590 rmoveto
          335 102 291 -102 19 108 callsubr
          -344 -852 -106 callsubr
          -107 callsubr
          -103 callsubr
        </CharString>
        <CharString name="acircumflexhookabove">
          1218 1169 1692 rmoveto
          -84 -66 callgsubr
          72 33 67 callgsubr
          106 callgsubr
          335 102 291 -102 19 108 callsubr
          -344 -852 -106 callsubr
          -107 callsubr
          -103 callsubr
        </CharString>
        <CharString name="acircumflextilde">
          213 callsubr
          -513 -337 rmoveto
          335 102 291 -102 19 108 callsubr
          -344 -852 -106 callsubr
          -107 callsubr
          -103 callsubr
        </CharString>
        <CharString name="acute">
          1024 870 5 callsubr
          -2 callsubr
          endchar
        </CharString>
        <CharString name="acutecmb">
          0 358 5 callsubr
          -2 callsubr
          endchar
        </CharString>
        <CharString name="acutecmb.short">
          0 334 1417 rmoveto
          -201 -300 91 0 405 291 rlineto
          9 vlineto
          endchar
        </CharString>
        <CharString name="acutedotaccentcmb">
          20 callgsubr
          247 -192 rmoveto
          39 181 -669 -194 -17 -84 rlineto
          endchar
        </CharString>
        <CharString name="acutedotaccentcmb.short">
          0 400 1772 rmoveto
          65 51 42 58 -1 hvcurveto
          59 -2 -53 42 -65 hhcurveto
          -65 -50 -42 -59 1 hvcurveto
          -58 1 53 -42 65 hhcurveto
          265 -153 rmoveto
          33 153 -678 -165 -15 -71 rlineto
          endchar
        </CharString>
        <CharString name="acyrillic">
          1218 -29 callsubr
          -107 callsubr
          -103 callsubr
        </CharString>
        <CharString name="adblgrave">
          1218 645 111 callsubr
          -859 -792 -106 callsubr
          -107 callsubr
          -103 callsubr
        </CharString>
        <CharString name="adieresis">
          1218 632 -62 callsubr
          -77 callsubr
          -79 callsubr
          -77 callsubr
          -903 -838 -106 callsubr
          -107 callsubr
          -103 callsubr
        </CharString>
        <CharString name="adieresismacron">
          1218 578 121 callgsubr
          30 -484 rmoveto
          64 62 47 64 13 hvcurveto
          64 14 68 callgsubr
          378 hmoveto
          64 62 47 64 13 hvcurveto
          64 14 -42 47 -64 hhcurveto
          -14 hlineto
          -64 -61 -47 -64 -14 hvcurveto
          -64 -14 42 -47 64 hhcurveto
          -810 -784 -106 callsubr
          -107 callsubr
          -103 callsubr
        </CharString>
        <CharString name="adotaccent">
          1218 857 -75 callsubr
          -679 -828 -106 callsubr
          -107 callsubr
          -103 callsubr
        </CharString>
        <CharString name="adotbelow">
          1218 -29 callsubr
          -107 callsubr
          45 callsubr
          -49 -18 33 68 15 hvcurveto
          20 callsubr
          158 callsubr
        </CharString>
        <CharString name="adotmacron">
          1218 576 1467 rmoveto
          627 hlineto
          30 142 rlineto
          -627 hlineto
          239 -473 rmoveto
          69 53 50 69 69 -54 50 -68 -69 -54 -50 -69 -69 54 -50 69 hvcurveto
          -667 -782 -106 callsubr
          -107 callsubr
          -103 callsubr
        </CharString>
        <CharString name="ae">
          1566 255 787 128 callsubr
        </CharString>
        <CharString name="aeacute">
          1566 1145 -72 callsubr
          -1236 -748 128 callsubr
        </CharString>
        <CharString name="aemacron">
          1566 736 -9 callsubr
          -519 -628 128 callsubr
        </CharString>
        <CharString name="agrave">
          1218 849 87 callsubr
          -764 -792 -106 callsubr
          -107 callsubr
          -103 callsubr
        </CharString>
        <CharString name="ahookabove">
          1218 909 -61 callsubr
          145 callsubr
          -731 -1189 -106 callsubr
          -107 callsubr
          -103 callsubr
        </CharString>
        <CharString name="ainvertedbreve">
          1218 865 94 callsubr
          105 callgsubr
          29 callgsubr
          -687 -1174 -106 callsubr
          -107 callsubr
          -103 callsubr
        </CharString>
        <CharString name="alphagreek">
          1289 488 -21 175 callsubr
        </CharString>
        <CharString name="alphatonosgreek">
          1289 905 50 callsubr
          -720 -1567 175 callsubr
        </CharString>
        <CharString name="amacron">
          1218 528 1237 rmoveto
          625 hlineto
          38 178 rlineto
          -626 hlineto
          -387 -1061 -106 callsubr
          -107 callsubr
          -103 callsubr
        </CharString>
        <CharString name="ampersand">
          1553 126 341 rmoveto
          -207 152 -162 267 169 139 76 153 153 vhcurveto
          166 -201 391 0 14 64 -94 64 -84 92 -103 126 rlinecurve
          -69 85 149 170 146 163 48 29 114 17 rlinecurve
          18 86 -450 0 -17 -86 139 -16 14 -35 -97 -123 rlinecurve
          -115 -143 -280 343 -2 3 rlineto
          254 79 126 111 145 vvcurveto
          177 -148 122 -261 -278 -169 -163 -213 -3 vhcurveto
          -2 -102 37 -97 82 -118 rrcurveto
          -259 -78 -147 -144 -217 vvcurveto
          583 847 rmoveto
          106 66 63 96 100 50 -81 -105 -109 -57 -92 -121 -67 vhcurveto
          -99 128 -35 78 79 vvcurveto
          -284 -729 rmoveto
          121 68 78 91 53 vhcurveto
          9 -12 10 -13 11 -12 342 -413 rcurveline
          -60 -72 -69 -32 -85 hhcurveto
          -176 -129 124 166 hvcurveto
          endchar
        </CharString>
        <CharString name="anoteleiagreek">
          558 458 691 rmoveto
          102 83 78 103 95 -76 76 -104 -101 -84 -78 -103 -95 77 -76 103 hvcurveto
          endchar
        </CharString>
        <CharString name="aogonek">
          1218 -29 callsubr
          -107 callsubr
          15 14 1 2 15 hvcurveto
          -194 -114 -76 -91 -101 vvcurveto
          -100 81 -64 119 92 81 38 48 36 vhcurveto
          18 83 rlineto
          -15 -21 -29 -10 -31 hhcurveto
          -46 -34 32 62 99 84 110 163 139 hvcurveto
          1 1 1 1 1 1 19 87 rcurveline
          -24 -31 -42 -11 -33 hhcurveto
          -49 -18 33 68 15 hvcurveto
          161 756 -181 0 -121 -108 rlineto
          69 -31 -82 61 -135 hhcurveto
          -313 -222 -308 -374 hvcurveto
          -57 callgsubr
          endchar
        </CharString>
        <CharString name="approxequal">
          1243 1037 815 rmoveto
          -153 -119 212 -203 hhcurveto
          -169 -134 -125 -263 -34 hvcurveto
          140 78 callgsubr
          168 134 126 262 35 hvcurveto
          -141 hlineto
          -149 -27 -77 -64 -89 hhcurveto
          -108 -505 rmoveto
          -153 -118 212 -203 hhcurveto
          -170 -134 -125 -263 -34 hvcurveto
          141 78 callgsubr
          167 135 126 262 34 hvcurveto
          -140 hlineto
          -149 -27 -78 -64 -89 hhcurveto
          endchar
        </CharString>
        <CharString name="aring">
          1218 576 41 callsubr
          193 115 -33 callgsubr
          101 callgsubr
          60 48 30 -36 -63 -88 -52 -68 -60 -49 -29 36 62 vhcurveto
          -591 -962 -106 callsubr
          -107 callsubr
          -103 callsubr
        </CharString>
        <CharString name="aringacute">
          1218 1216 49 callgsubr
          148 110 58 90 19 hvcurveto
          90 19 -85 63 callgsubr
          147 hhcurveto
          78 81 rmoveto
          -44 hlineto
          -46 -20 28 39 8 hvcurveto
          40 9 33 27 45 hhcurveto
          44 hlineto
          46 20 -27 -40 -8 hvcurveto
          -39 -9 -32 -28 -46 hhcurveto
          -674 -835 -106 callsubr
          -107 callsubr
          -103 callsubr
        </CharString>
        <CharString name="aringbelow">
          1218 -29 callsubr
          -107 callsubr
          45 callsubr
          -49 -18 33 68 15 hvcurveto
          20 callsubr
          -161 -652 93 callgsubr
          -4 hvcurveto
          112 -3 -118 69 -151 hhcurveto
          -192 -114 -90 -108 4 109 callgsubr
          3 hvcurveto
          -75 2 -49 -56 -60 hhcurveto
          -48 -31 30 52 -2 hvcurveto
          endchar
        </CharString>
        <CharString name="asciicircum">
          1248 853 1444 rmoveto
          -545 -595 100 -91 498 513 281 -513 117 91 -292 595 rlineto
          endchar
        </CharString>
        <CharString name="asciitilde">
          1243 982 560 rmoveto
          -152 -119 213 -203 hhcurveto
          -169 -134 -126 -263 -34 hvcurveto
          140 hlineto
          150 27 77 64 91 154 118 -212 202 hhcurveto
          168 134 125 262 34 hvcurveto
          -140 hlineto
          -148 -27 -77 -65 -90 hhcurveto
          endchar
        </CharString>
        <CharString name="asterisk">
          849 714 1473 rmoveto
          -61 -38 -42 -75 -19 0 -20 4 -29 hvcurveto
          25 -185 24 0 103 185 rlineto
          24 40 7 30 25 vvcurveto
          53 -37 37 -51 vhcurveto
          -295 -129 rmoveto
          -56 -38 -44 -49 -46 30 -40 87 -26 hvcurveto
          183 -58 14 20 -90 150 rlineto
          70 -42 -47 23 -41 hhcurveto
          529 -56 rmoveto
          -43 -33 -17 -52 -60 hvcurveto
          -140 -119 9 -21 175 15 rlineto
          132 6 50 43 60 vvcurveto
          50 -36 35 -54 vhcurveto
          -590 -423 rmoveto
          43 32 18 51 61 hvcurveto
          139 119 -8 22 -175 -15 rlineto
          -132 -7 -50 -44 -59 vvcurveto
          -49 36 -36 54 vhcurveto
          622 37 rmoveto
          46 -29 41 -87 25 vhcurveto
          -183 59 -14 -21 90 -149 rlineto
          -71 42 47 -23 41 hhcurveto
          56 37 44 49 hvcurveto
          -388 -223 rmoveto
          61 38 43 75 19 -1 21 -3 28 hvcurveto
          -25 184 -24 0 -104 -184 rlineto
          -23 -41 -7 -29 -25 vvcurveto
          -53 37 -38 51 vhcurveto
          endchar
        </CharString>
        <CharString name="at">
          2075 1496 -298 rmoveto
          86 vlineto
          -74 -129 -138 -21 -163 hhcurveto
          -409 -1 -313 281 460 vvcurveto
          498 376 405 517 450 289 -255 -394 -336 -205 -194 -175 -82 -22 47 90 19 vhcurveto
          147 687 -162 0 -123 -126 rlineto
          93 -31 -79 57 -116 hhcurveto
          -272 -187 -308 -313 -214 93 -123 155 125 110 80 163 77 hvcurveto
          -4 -22 -2 -21 -18 vvcurveto
          -129 -5 103 -82 161 hhcurveto
          341 263 285 400 443 -353 303 -517 -596 -424 -457 -566 -520 371 -327 457 178 181 47 76 94 hvcurveto
          -518 681 rmoveto
          212 101 301 149 67 42 -51 -86 -4 vhcurveto
          -69 -324 rlineto
          -129 -27 -78 -98 -83 hhcurveto
          -71 -27 68 107 hvcurveto
          endchar
        </CharString>
        <CharString name="atilde">
          1218 986 1183 rmoveto
          106 85 -68 callgsubr
          -29 -25 34 callsubr
          -105 -87 -74 -257 -31 hvcurveto
          54 callgsubr
          -808 -829 -106 callsubr
          -107 callsubr
          -103 callsubr
        </CharString>
        <CharString name="austral">
          1417 84 381 rmoveto
          225 hlineto
          -66 -121 -73 -133 -32 -28 -116 -13 rlinecurve
          -18 -86 427 0 19 86 -124 15 -18 28 66 129 rlinecurve
          65 123 502 0 14 -132 11 -118 -18 -29 -140 -16 rlinecurve
          -17 -86 615 0 18 86 -108 12 -20 28 -15 123 rlinecurve
          -16 132 229 0 16 73 -254 0 -24 205 322 0 15 72 -346 0 -86 715 -245 0 -391 -715 -342 0 -16 -72 318 0 -112 -205 rlineto
          -249 hlineto
          524 277 rmoveto
          235 447 46 -447 rlineto
          -428 -277 rmoveto
          108 205 327 0 22 -205 rlineto
          endchar
        </CharString>
        <CharString name="austral.tnum">
          1276 96 449 rmoveto
          -16 -72 193 0 -59 -117 -67 -133 -29 -29 -99 -12 rlinecurve
          -18 -86 393 0 18 86 -117 14 -13 26 64 132 rlinecurve
          58 119 432 0 8 -128 7 -119 -18 -28 -129 -16 rlinecurve
          -18 -86 588 0 18 86 -90 11 -16 28 -11 124 rlinecurve
          -10 128 190 0 16 72 -212 0 -17 205 272 0 16 72 -294 0 -60 720 -261 0 -364 -720 -296 0 -16 -72 275 0 -104 -205 rlineto
          265 277 rmoveto
          214 440 27 -440 rlineto
          -376 -277 rmoveto
          99 205 281 0 12 -205 rlineto
          endchar
        </CharString>
        <CharString name="b">
          -62 callgsubr
          endchar
        </CharString>
        <CharString name="backslash">
          760 484 -284 rmoveto
          171 hlineto
          -104 1868 rlineto
          -170 hlineto
          endchar
        </CharString>
        <CharString name="baht">
          -11 callgsubr
          164 -127 112 -282 27 rrcurveto
          48 225 -72 0 -47 -220 rlineto
          1 -24 -24 1 -25 hhcurveto
          -544 hlineto
          -18 -86 rlineto
          129 -18 15 -18 -19 -89 -205 -963 rcurveline
          -18 -87 -22 -19 -137 -18 -18 -86 rcurveline
          581 hlineto
          12 11 0 12 hhcurveto
          -47 -219 72 0 48 222 rlineto
          396 23 241 153 249 vvcurveto
          -585 859 rmoveto
          74 -3 rlineto
          26 -1 24 -2 22 -5 -106 -498 rcurveline
          -1 -12 -12 0 -13 hhcurveto
          -111 hlineto
          430 284 rmoveto
          -133 -73 -101 -134 -36 vhcurveto
          99 463 rlineto
          72 -35 36 -65 -93 vvcurveto
          -451 -382 rmoveto
          110 -1 rlineto
          13 13 -1 -1 12 hvcurveto
          -122 -573 rlineto
          -2 -23 -24 -2 -25 hhcurveto
          -79 -2 rlineto
          496 325 rmoveto
          -153 -83 -113 -187 -41 vhcurveto
          116 545 rlineto
          101 -34 53 -86 -118 vvcurveto
          endchar
        </CharString>
        <CharString name="baht.tnum">
          -5 callgsubr
          157 -116 108 -256 27 vhcurveto
          47 224 -72 0 -47 -219 rlineto
          1 -20 -21 0 -22 hhcurveto
          -511 hlineto
          -18 -86 rlineto
          120 -16 15 -21 -18 -88 -205 -963 rcurveline
          -19 -87 -20 -20 -131 -17 -18 -86 rcurveline
          558 hlineto
          5 6 0 5 hhcurveto
          -47 -219 73 0 47 221 rlineto
          373 21 229 154 251 vvcurveto
          -534 859 rmoveto
          69 -2 rlineto
          22 -1 21 -3 19 -4 -106 -499 rcurveline
          -1 -10 -10 0 -10 hhcurveto
          -103 hlineto
          398 298 rmoveto
          -134 -67 -109 -123 -39 vhcurveto
          98 461 rlineto
          61 -34 31 -59 -86 vvcurveto
          -419 -396 rmoveto
          95 -1 rlineto
          12 13 -1 -2 12 hvcurveto
          -122 -573 rlineto
          -2 -17 -18 -1 -18 hhcurveto
          -82 -2 rlineto
          463 345 rmoveto
          -160 -82 -124 -171 -43 vhcurveto
          116 544 rlineto
          91 -35 46 -79 -103 vvcurveto
          endchar
        </CharString>
        <CharString name="bar">
          760 234 -284 rmoveto
          170 hlineto
          397 1868 rlineto
          -170 hlineto
          endchar
        </CharString>
        <CharString name="bdotaccent">
          1214 697 1613 rmoveto
          93 75 73 92 85 -66 67 -89 -93 -76 -74 -92 -85 66 -66 90 hvcurveto
          555 -953 185 callsubr
          endchar
        </CharString>
        <CharString name="bdotbelow">
          -62 callgsubr
          -354 -1100 -84 callsubr
          127 callsubr
        </CharString>
        <CharString name="becyrillic">
          1203 1226 566 rmoveto
          255 -155 188 -260 -211 -161 -124 -176 -81 vhcurveto
          9 267 104 179 355 23 rrcurveto
          5 124 7 5 hhcurveto
          287 17 105 87 50 235 rrcurveto
          -85 hlineto
          -22 -48 -73 -18 -151 -6 rrcurveto
          -568 -17 -304 -415 -534 vvcurveto
          -321 160 -187 285 343 239 265 323 vhcurveto
          -318 99 rmoveto
          -235 -91 -342 -165 -88 -50 79 158 236 92 342 166 87 49 -80 -158 vhcurveto
          endchar
        </CharString>
        <CharString name="betagreek">
          1219 24 -460 rmoveto
          330 hlineto
          100 568 rlineto
          -72 55 110 -58 127 hhcurveto
          288 197 205 252 18 hvcurveto
          21 230 -122 163 -220 27 214 55 117 122 11 167 rrcurveto
          193 15 -133 134 -267 hhcurveto
          -286 -186 -171 -360 -77 hvcurveto
          333 127 rmoveto
          188 41 49 99 110 hhcurveto
          81 52 -67 -151 -14 hvcurveto
          -13 -176 -83 -108 -176 -5 rrcurveto
          -43 -209 183 -5 85 -91 -11 -192 rlinecurve
          -189 -11 -119 -106 -136 hhcurveto
          -79 -64 32 63 -48 hvcurveto
          43 208 148 685 5 24 rrcurveto
          endchar
        </CharString>
        <CharString name="bitcoin">
          -11 callgsubr
          140 -93 102 -203 44 rrcurveto
          52 242 -72 0 -50 -230 rlineto
          8 -55 -63 4 -69 hhcurveto
          -6 hlineto
          46 218 -72 0 -47 -218 -465 0 -49 callsubr
          -205 -963 -18 -87 -22 -19 -137 -18 rlinecurve
          -18 -86 465 0 -47 -219 73 0 46 219 rlineto
          44 hlineto
          53 51 2 4 49 hvcurveto
          -48 -225 73 0 49 234 rlineto
          325 44 193 147 222 vvcurveto
          -263 633 rmoveto
          -166 -114 -117 -205 -1 vhcurveto
          -111 hlineto
          108 510 74 -3 rlineto
          165 -5 83 -77 -141 vvcurveto
          -80 -639 rmoveto
          -188 -126 -129 -291 -6 vhcurveto
          -79 -2 125 582 110 -1 rlineto
          169 -3 92 -98 -155 vvcurveto
          endchar
        </CharString>
        <CharString name="bitcoin.tnum">
          -5 callgsubr
          134 -84 97 -182 43 vhcurveto
          51 242 -72 0 -49 -229 rlineto
          7 -51 -57 4 -63 hhcurveto
          -23 hlineto
          47 218 -73 0 -46 -218 -416 0 -18 -86 120 -16 15 -21 -18 -88 rlinecurve
          -205 -963 -19 -87 -20 -20 -131 -17 rlinecurve
          -18 -86 416 0 -47 -219 72 0 47 219 rlineto
          70 hlineto
          44 43 2 3 40 hvcurveto
          -48 -224 73 0 49 232 rlineto
          306 43 184 147 225 vvcurveto
          -244 647 rmoveto
          -168 -106 -129 -189 -1 vhcurveto
          -103 hlineto
          108 510 69 -3 rlineto
          147 -8 74 -68 -133 vvcurveto
          -81 -633 rmoveto
          -195 -122 -139 -259 -9 vhcurveto
          -82 -2 125 582 95 -1 rlineto
          161 -4 82 -95 -137 vvcurveto
          endchar
        </CharString>
        <CharString name="blinebelow">
          -62 callgsubr
          -657 -1035 -88 callsubr
        </CharString>
        <CharString name="braceleft">
          760 770 1042 rmoveto
          53 245 rlineto
          141 31 49 63 151 hhcurveto
          20 93 rlineto
          -48 hlineto
          -280 -158 -103 -221 -49 hvcurveto
          -63 -288 rlineto
          -154 -34 -88 -61 -116 hhcurveto
          -19 -90 rlineto
          120 59 -58 -164 -35 hvcurveto
          -73 -350 rlineto
          -240 -51 105 -139 283 hhcurveto
          48 hlineto
          20 93 rlineto
          -160 -5 105 153 32 hvcurveto
          54 249 rlineto
          47 223 -64 131 -214 40 226 27 112 94 47 211 rrcurveto
          endchar
        </CharString>
        <CharString name="braceright">
          760 433 1042 rmoveto
          -43 -211 72 -93 214 -28 -231 -40 -120 -131 -47 -223 -53 -249 rcurveline
          -153 -33 -49 -105 -160 hhcurveto
          -20 -93 rlineto
          48 hlineto
          283 165 139 240 51 hvcurveto
          75 350 rlineto
          164 35 84 58 120 hhcurveto
          19 90 rlineto
          -116 -62 61 154 32 hvcurveto
          60 288 rlineto
          221 45 -114 103 -281 hhcurveto
          -48 hlineto
          -20 -93 rlineto
          152 22 -63 -141 -29 hvcurveto
          endchar
        </CharString>
</ttFont>
